<?xml version="1.0" encoding="utf-8"?>
<!-- Uploaded to: SVG Repo, www.svgrepo.com, Generator: SVG Repo Mixer Tools -->
<svg width="800px" height="800px" viewBox="0 0 1024 1024" class="icon"  version="1.1" xmlns="http://www.w3.org/2000/svg"><path d="M558.1 924.4c0 64.6-20.2 82.5-45.1 82.5-24.9 0-45.1-17.9-45.1-82.5S488.1 773 513 773c24.9-0.1 45.1 86.7 45.1 151.4z" fill="#F4D967" /><path d="M513 1009.9c-32.4 0-48.1-28-48.1-85.5 0-32.2 5.1-70.8 13.3-100.7 12.2-44.4 25.6-53.7 34.8-53.7 28.9 0 48.1 93 48.1 154.4 0 57.5-15.7 85.5-48.1 85.5z m0-234c-9.7 0-20.6 18.4-29 49.3-8.1 29.5-13.1 67.5-13.1 99.2 0 79.5 31.7 79.5 42.1 79.5 12.9 0 22.5-5.1 29.4-15.7 8.4-13 12.7-34.5 12.7-63.8 0-31.7-5-69.7-13.1-99.2-8.4-30.9-19.3-49.3-29-49.3z" fill="#49332E" /><path d="M603.7 12.1c-40.3 0-75.1 24-90.7 58.5-15.7-34.5-50.4-58.5-90.7-58.5-55 0-99.7 44.6-99.7 99.7 0 55 152.5 212.3 190.4 212.3s190.4-157.3 190.4-212.3c0-55.1-44.6-99.7-99.7-99.7z" fill="#D19F95" /><path d="M513 328.1c-22 0-72.3-43.6-112.3-86.8-39.7-42.8-82.1-99.2-82.1-129.5 0-57.2 46.5-103.7 103.7-103.7 37.8 0 72.6 20.8 90.7 53.6 18.1-32.8 52.9-53.6 90.7-53.6 57.2 0 103.7 46.5 103.7 103.7 0 30.3-42.4 86.8-82.1 129.5-40 43.2-90.3 86.8-112.3 86.8z m-90.7-312c-52.8 0-95.7 42.9-95.7 95.7 0 23 31.4 71.8 79.9 124.1 44.6 48 90.3 84.2 106.5 84.2s61.9-36.2 106.5-84.2c48.6-52.3 79.9-101 79.9-124.1 0-52.8-42.9-95.7-95.7-95.7-37.4 0-71.6 22-87.1 56.1-0.6 1.4-2.1 2.3-3.6 2.3-1.6 0-3-0.9-3.6-2.3-15.5-34.1-49.7-56.1-87.1-56.1z" fill="#49332E" /><path d="M603.7 13.1c-40.3 0-75.1 24-90.7 58.5-13.4-29.5-40.8-51.3-73.7-57-20.2 30.5-31.8 65.9-31.8 103.7 0 84.6 57.9 157.3 140.7 189.3 58.5-42.5 155.2-151.1 155.2-194.9-0.1-55-44.7-99.6-99.7-99.6z" fill="#F4B6AB" /><path d="M513 328.1c-22 0-72.3-43.6-112.3-86.8-39.7-42.8-82.1-99.2-82.1-129.5 0-57.2 46.5-103.7 103.7-103.7 37.8 0 72.6 20.8 90.7 53.6 18.1-32.8 52.9-53.6 90.7-53.6 57.2 0 103.7 46.5 103.7 103.7 0 30.3-42.4 86.8-82.1 129.5-40 43.2-90.3 86.8-112.3 86.8z m-90.7-312c-52.8 0-95.7 42.9-95.7 95.7 0 23 31.4 71.8 79.9 124.1 44.6 48 90.3 84.2 106.5 84.2s61.9-36.2 106.5-84.2c48.6-52.3 79.9-101 79.9-124.1 0-52.8-42.9-95.7-95.7-95.7-37.4 0-71.6 22-87.1 56.1-0.6 1.4-2.1 2.3-3.6 2.3-1.6 0-3-0.9-3.6-2.3-15.5-34.1-49.7-56.1-87.1-56.1z" fill="#49332E" /><path d="M603.7 278.9c-40.3 0-75.1 24-90.7 58.5-15.7-34.5-50.4-58.5-90.7-58.5-55 0-99.7 44.6-99.7 99.7 0 55 152.5 212.3 190.4 212.3s190.4-157.3 190.4-212.3c0-55.1-44.6-99.7-99.7-99.7z" fill="#CE95C2" /><path d="M513 594.9c-22 0-72.3-43.6-112.3-86.8-39.7-42.8-82.1-99.2-82.1-129.5 0-57.2 46.5-103.7 103.7-103.7 37.8 0 72.6 20.8 90.7 53.6 18.1-32.8 52.9-53.6 90.7-53.6 57.2 0 103.7 46.5 103.7 103.7 0 30.3-42.4 86.8-82.1 129.5-40 43.2-90.3 86.8-112.3 86.8z m-90.7-312c-52.8 0-95.7 42.9-95.7 95.7 0 23 31.4 71.8 79.9 124.1 44.6 48 90.3 84.2 106.5 84.2s61.9-36.2 106.5-84.2c48.6-52.3 79.9-101 79.9-124.1 0-52.8-42.9-95.7-95.7-95.7-37.4 0-71.6 22-87.1 56.1-0.6 1.4-2.1 2.3-3.6 2.3-1.6 0-3-0.9-3.6-2.3-15.5-34.1-49.7-56.1-87.1-56.1z" fill="#49332E" /><path d="M603.7 278.9c-40.3 0-75.1 24-90.7 58.5-13.4-29.5-40.8-51.3-73.7-57-20.2 30.5-31.8 65.9-31.8 103.7 0 84.6 57.9 157.3 140.7 189.3 58.5-42.5 155.2-151.1 155.2-194.9 0-55-44.6-99.6-99.7-99.6z" fill="#F9C7EC" /><path d="M513 594.9c-22 0-72.3-43.6-112.3-86.8-39.7-42.8-82.1-99.2-82.1-129.5 0-57.2 46.5-103.7 103.7-103.7 37.8 0 72.6 20.8 90.7 53.6 18.1-32.8 52.9-53.6 90.7-53.6 57.2 0 103.7 46.5 103.7 103.7 0 30.3-42.4 86.8-82.1 129.5-40 43.2-90.3 86.8-112.3 86.8z m-90.7-312c-52.8 0-95.7 42.9-95.7 95.7 0 23 31.4 71.8 79.9 124.1 44.6 48 90.3 84.2 106.5 84.2s61.9-36.2 106.5-84.2c48.6-52.3 79.9-101 79.9-124.1 0-52.8-42.9-95.7-95.7-95.7-37.4 0-71.6 22-87.1 56.1-0.6 1.4-2.1 2.3-3.6 2.3-1.6 0-3-0.9-3.6-2.3-15.5-34.1-49.7-56.1-87.1-56.1z" fill="#49332E" /><path d="M603.7 553.1c-40.3 0-75.1 24-90.7 58.5-15.7-34.5-50.4-58.5-90.7-58.5-55 0-99.7 44.6-99.7 99.7 0 55 152.5 212.3 190.4 212.3s190.4-157.3 190.4-212.3c0-55.1-44.6-99.7-99.7-99.7z" fill="#CC8FB2" /><path d="M513 869.1c-22 0-72.3-43.6-112.3-86.8-39.7-42.8-82.1-99.2-82.1-129.5 0-57.2 46.5-103.7 103.7-103.7 37.8 0 72.6 20.8 90.7 53.6 18.1-32.8 52.9-53.6 90.7-53.6 57.2 0 103.7 46.5 103.7 103.7 0 30.3-42.4 86.8-82.1 129.5-40 43.2-90.3 86.8-112.3 86.8z m-90.7-312c-52.8 0-95.7 42.9-95.7 95.7 0 23 31.4 71.8 79.9 124.1 44.6 48 90.3 84.2 106.5 84.2s61.9-36.2 106.5-84.2c48.6-52.3 79.9-101 79.9-124.1 0-52.8-42.9-95.7-95.7-95.7-37.4 0-71.6 22-87.1 56.1-0.6 1.4-2.1 2.3-3.6 2.3-1.6 0-3-0.9-3.6-2.3-15.5-34.1-49.7-56.1-87.1-56.1z" fill="#49332E" /><path d="M603.7 553.1c-40.3 0-75.1 24-90.7 58.5-13.4-29.5-40.8-51.3-73.7-57-20.2 30.5-31.8 65.9-31.8 103.7 0 84.6 57.9 157.3 140.7 189.3 58.5-42.5 155.2-151.1 155.2-194.9 0-55-44.6-99.6-99.7-99.6z" fill="#EF86C7" /><path d="M513 869.1c-22 0-72.3-43.6-112.3-86.8-39.7-42.8-82.1-99.2-82.1-129.5 0-57.2 46.5-103.7 103.7-103.7 37.8 0 72.6 20.8 90.7 53.6 18.1-32.8 52.9-53.6 90.7-53.6 57.2 0 103.7 46.5 103.7 103.7 0 30.3-42.4 86.8-82.1 129.5-40 43.2-90.3 86.8-112.3 86.8z m-90.7-312c-52.8 0-95.7 42.9-95.7 95.7 0 23 31.4 71.8 79.9 124.1 44.6 48 90.3 84.2 106.5 84.2s61.9-36.2 106.5-84.2c48.6-52.3 79.9-101 79.9-124.1 0-52.8-42.9-95.7-95.7-95.7-37.4 0-71.6 22-87.1 56.1-0.6 1.4-2.1 2.3-3.6 2.3-1.6 0-3-0.9-3.6-2.3-15.5-34.1-49.7-56.1-87.1-56.1zM456 387c-0.8 0-1.5-0.7-1.5-1.5 0-14.6-11.8-26.5-26.2-26.5s-26.2 11.9-26.2 26.5c0 0.8-0.7 1.5-1.5 1.5s-1.5-0.7-1.5-1.5c0-16.3 13.1-29.5 29.2-29.5s29.2 13.2 29.2 29.5c0 0.9-0.6 1.5-1.5 1.5z" fill="#49332E" /><path d="M399.9 387h-0.2c-9.1-1.5-16.8-6.9-20.2-14.2-0.3-0.8 0-1.6 0.7-2 0.8-0.4 1.6 0 2 0.7 3 6.4 9.8 11.1 17.9 12.5 0.8 0.1 1.4 0.9 1.2 1.7-0.1 0.8-0.7 1.3-1.4 1.3zM403.4 374.9h-0.2c-8.1-1.3-15-6.1-18-12.6-0.3-0.8 0-1.6 0.7-2 0.8-0.3 1.6 0 2 0.7 2.6 5.6 8.6 9.8 15.7 10.9 0.8 0.1 1.4 0.9 1.2 1.7-0.1 0.8-0.7 1.3-1.4 1.3z" fill="#49332E" /><path d="M625.4 387c-0.8 0-1.5-0.7-1.5-1.5 0-14.6-11.8-26.5-26.2-26.5s-26.2 11.9-26.2 26.5c0 0.8-0.7 1.5-1.5 1.5s-1.5-0.7-1.5-1.5c0-16.3 13.1-29.5 29.2-29.5s29.2 13.2 29.2 29.5c0 0.9-0.7 1.5-1.5 1.5z" fill="#49332E" /><path d="M626.1 387c-0.7 0-1.4-0.5-1.5-1.3-0.1-0.8 0.4-1.6 1.2-1.7 8.1-1.3 15-6.1 17.9-12.5 0.3-0.8 1.2-1.1 2-0.7s1.1 1.2 0.7 2c-3.4 7.3-11.1 12.7-20.2 14.2h-0.1zM622.6 374.9c-0.7 0-1.4-0.5-1.5-1.3-0.1-0.8 0.4-1.6 1.2-1.7 7.1-1.2 13.1-5.3 15.7-10.9 0.3-0.8 1.2-1.1 2-0.7 0.8 0.3 1.1 1.2 0.7 2-3 6.5-9.9 11.3-18 12.6h-0.1z" fill="#49332E" /><path d="M601.1 131.2c-0.8 0-1.5-0.7-1.5-1.5 0-10.8-8.7-19.6-19.4-19.6s-19.4 8.8-19.4 19.6c0 0.8-0.7 1.5-1.5 1.5s-1.5-0.7-1.5-1.5c0-12.5 10.1-22.6 22.4-22.6s22.4 10.1 22.4 22.6c0 0.8-0.6 1.5-1.5 1.5z" fill="#49332E" /><path d="M404.1 414.2a26.3 16.1 0 1 0 52.6 0 26.3 16.1 0 1 0-52.6 0Z" fill="#DD5E54" /><path d="M569.3 414.2a26.3 16.1 0 1 0 52.6 0 26.3 16.1 0 1 0-52.6 0Z" fill="#DD5E54" /><path d="M477 419.1c-0.9 5.2-1.4 10.7-1.4 16.4 0 33.8 16.7 59.3 37.4 59.3s37.4-25.5 37.4-59.3c0-5.7-0.5-11.2-1.4-16.4h-72z" fill="#CE1B1B" /><path d="M513 496.3c-21.8 0-38.9-26.7-38.9-60.8 0-5.6 0.5-11.2 1.4-16.7 0.1-0.7 0.7-1.2 1.5-1.2h72c0.7 0 1.4 0.5 1.5 1.2 0.9 5.4 1.4 11 1.4 16.7 0 34.1-17.1 60.8-38.9 60.8z m-34.8-75.7c-0.8 4.9-1.1 9.9-1.1 14.9 0 32.4 15.8 57.8 35.9 57.8 20.1 0 35.9-25.4 35.9-57.8 0-5-0.4-10-1.1-14.9h-69.6z" fill="#49332E" /><path d="M550.3 441.6c0-1.3 0.1-2.6 0.1-4 0-6.4-0.5-12.6-1.4-18.5h-72c-0.9 5.9-1.4 12.1-1.4 18.5 0 1.3 0 2.7 0.1 4h74.6z" fill="#FFFFFF" /><path d="M550.3 443.1h-74.7c-0.8 0-1.5-0.6-1.5-1.5 0-1.3-0.1-2.7-0.1-4 0-6.3 0.5-12.6 1.4-18.7 0.1-0.7 0.7-1.3 1.5-1.3H549c0.7 0 1.4 0.5 1.5 1.3 0.9 6.1 1.4 12.4 1.4 18.7 0 1.4 0 2.7-0.1 4 0 0.8-0.6 1.5-1.5 1.5z m-73.2-3h71.8v-2.5c0-5.7-0.4-11.4-1.2-17h-69.5c-0.8 5.6-1.2 11.3-1.2 17 0.1 0.8 0.1 1.6 0.1 2.5z" fill="#49332E" /><path d="M513 472.8c-4.5 0-8.7-7-13.6-6.5-6.4 0.6-9.8 6.9-12.9 12.4 6.8 11.2 16.2 16.2 26.5 16.2 10.4 0 19.8-5.1 26.5-16.2-3.4-5.7-7.4-12.8-14-12.8-5.2-0.1-8.4 6.9-12.5 6.9z" fill="#D66161" /><path d="M513 496.3c-11.5 0-21.1-5.9-27.8-16.9-0.3-0.5-0.3-1.1 0-1.5l0.5-0.8c3.2-5.4 6.8-11.6 13.6-12.3 3.2-0.3 5.9 1.8 8.3 3.6 1.9 1.5 3.8 2.9 5.4 2.9 1.4 0 2.9-1.4 4.5-2.8 2.2-2 4.7-4.2 8-4.2 7.4 0 11.7 7.3 15.1 13.3l0.2 0.3c0.3 0.5 0.3 1.1 0 1.5-6.7 11.1-16.3 16.9-27.8 16.9z m-24.8-17.7c6.1 9.6 14.7 14.7 24.8 14.7 10.1 0 18.7-5.1 24.8-14.7-3.2-5.4-6.8-11.3-12.3-11.3-2.2 0-4.1 1.7-6 3.4-2 1.8-4 3.6-6.5 3.6-2.7 0-5-1.8-7.2-3.5s-4.2-3.2-6.2-3c-5.3 0.4-8.4 5.7-11.4 10.8z" fill="#49332E" /><path d="M457.2 677.4c-0.8 0-1.5-0.7-1.5-1.5 0-14.3-11.5-25.9-25.6-25.9s-25.6 11.6-25.6 25.9c0 0.8-0.7 1.5-1.5 1.5s-1.5-0.7-1.5-1.5c0-15.9 12.9-28.9 28.6-28.9s28.6 13 28.6 28.9c0 0.8-0.7 1.5-1.5 1.5z" fill="#49332E" /><path d="M402.2 677.4h-0.2c-8.9-1.4-16.5-6.8-19.8-13.9-0.3-0.8 0-1.6 0.7-2 0.8-0.3 1.6 0 2 0.7 2.9 6.2 9.6 10.9 17.5 12.2 0.8 0.1 1.4 0.9 1.2 1.7 0 0.8-0.7 1.3-1.4 1.3zM405.6 665.5h-0.2c-7.9-1.3-14.7-6-17.6-12.4-0.3-0.8 0-1.6 0.7-2 0.8-0.4 1.6 0 2 0.7 2.5 5.5 8.4 9.5 15.4 10.7 0.8 0.1 1.4 0.9 1.2 1.7-0.1 0.8-0.8 1.3-1.5 1.3z" fill="#49332E" /><path d="M623.1 677.4c-0.8 0-1.5-0.7-1.5-1.5 0-14.3-11.5-25.9-25.6-25.9-14.1 0-25.6 11.6-25.6 25.9 0 0.8-0.7 1.5-1.5 1.5s-1.5-0.7-1.5-1.5c0-15.9 12.9-28.9 28.6-28.9s28.6 13 28.6 28.9c0 0.8-0.7 1.5-1.5 1.5z" fill="#49332E" /><path d="M623.8 677.4c-0.7 0-1.4-0.5-1.5-1.3-0.1-0.8 0.4-1.6 1.2-1.7 7.9-1.3 14.6-6 17.5-12.2 0.3-0.8 1.2-1.1 2-0.7 0.8 0.3 1.1 1.2 0.7 2-3.3 7.1-10.9 12.4-19.8 13.9h-0.1zM620.4 665.5c-0.7 0-1.4-0.5-1.5-1.3-0.1-0.8 0.4-1.6 1.2-1.7 7-1.1 12.8-5.2 15.4-10.7 0.3-0.8 1.2-1.1 2-0.7s1.1 1.2 0.7 2c-2.9 6.3-9.7 11.1-17.6 12.4h-0.2z" fill="#49332E" /><path d="M405.6 709a21.3 13 0 1 0 42.6 0 21.3 13 0 1 0-42.6 0Z" fill="#F9C7F5" /><path d="M577.8 709a21.3 13 0 1 0 42.6 0 21.3 13 0 1 0-42.6 0Z" fill="#F9C7F5" /><path d="M522.9 741.2l30.5-18.9-7.8-11.5c-5.6-8.4-16.7-10.3-24.6-4.4-7.9 5.9-9.8 17.7-4.1 26l6 8.8z" fill="#BD161F" /><path d="M511.9 743.9c-16.9 0-32.3-8.9-40.2-23.2-0.3-0.5-0.1-1.1 0.4-1.4 0.5-0.3 1.1-0.1 1.4 0.4 7.5 13.7 22.2 22.2 38.4 22.2 16.5 0 31.4-8.8 38.8-22.9 0.3-0.5 0.9-0.7 1.3-0.4 0.5 0.3 0.7 0.9 0.4 1.3-7.7 14.8-23.3 24-40.5 24z" fill="#49332E" /><path d="M419.2 122.7a18.4 22.9 0 1 0 36.8 0 18.4 22.9 0 1 0-36.8 0Z" fill="#49332E" /><path d="M429.8 119.6a11.4 14.1 0 1 0 22.8 0 11.4 14.1 0 1 0-22.8 0Z" fill="#161616" /><path d="M433.4 117.4a9.6 11.9 0 1 0 19.2 0 9.6 11.9 0 1 0-19.2 0Z" fill="#EFE9E8" /><path d="M430.6 110.4h-0.3c-1.8-0.5-3.5-1.2-5.1-2.2-4.2-2.7-7.6-7-9.4-12.2-0.2-0.5 0.1-1.1 0.6-1.3 0.5-0.2 1.1 0.1 1.3 0.6 1.7 4.8 4.8 8.8 8.6 11.2 1.4 0.9 3 1.6 4.5 2 0.5 0.1 0.9 0.7 0.7 1.2-0.1 0.4-0.5 0.7-0.9 0.7z" fill="#49332E" /><path d="M414.5 168.1a26.7 11.1 0 1 0 53.4 0 26.7 11.1 0 1 0-53.4 0Z" fill="#E08079" /><path d="M559.3 166.4a26.7 11.1 0 1 0 53.4 0 26.7 11.1 0 1 0-53.4 0Z" fill="#E08079" /><path d="M505.6 191c-5.9 0-9.1-1.2-9.9-3.8-0.6-2.1-0.3-4.1 0.9-5.8 2.8-4 9.8-5.6 13.8-6.2-7.5-5-10.7-8.9-9.7-12.1 1.8-5.9 17.4-5.6 19.2-5.5 0.6 0 1 0.5 1 1 0 0.6-0.5 1-1 1-6.1-0.2-16.2 0.7-17.2 4.1-0.4 1.4 0.5 4.7 11.2 11.4 0.4 0.2 0.5 0.7 0.4 1.1-0.1 0.4-0.5 0.7-0.9 0.8-0.1 0-11.8 0.9-15.1 5.7-0.8 1.2-1 2.6-0.6 4.1 1.1 3.9 16.5 2.3 27-0.1 0.5-0.1 1.1 0.2 1.2 0.8 0.1 0.5-0.2 1.1-0.8 1.2-0.1 0-6.7 1.5-13.5 2.2-2.3 0-4.3 0.1-6 0.1z" fill="#49332E" /></svg>