<?xml version="1.0" encoding="UTF-8"?>
<!DOCTYPE svg PUBLIC "-//W3C//DTD SVG 1.1//EN" "http://www.w3.org/Graphics/SVG/1.1/DTD/svg11.dtd">
<svg xmlns="http://www.w3.org/2000/svg" version="1.1" width="3840px" height="2160px" style="shape-rendering:geometricPrecision; text-rendering:geometricPrecision; image-rendering:optimizeQuality; fill-rule:evenodd; clip-rule:evenodd" xmlns:xlink="http://www.w3.org/1999/xlink">
<g><path style="opacity:0.992" fill="#294347" d="M 1841.5,29.5 C 1931.17,29.5 2020.83,29.5 2110.5,29.5C 2110.5,178.167 2110.5,326.833 2110.5,475.5C 2184.83,475.5 2259.17,475.5 2333.5,475.5C 2333.5,551.833 2333.5,628.167 2333.5,704.5C 2374.54,704.488 2415.37,704.488 2456,704.5C 2521.61,702.057 2584.44,687.557 2644.5,661C 2655.31,656.095 2665.65,650.428 2675.5,644C 2645.3,601.414 2628.13,553.914 2624,501.5C 2618.76,446.534 2625.76,393.201 2645,341.5C 2651.79,325.239 2660.13,309.906 2670,295.5C 2680.65,282.686 2691.48,270.02 2702.5,257.5C 2734.26,280.746 2763.42,307.079 2790,336.5C 2824.33,375.234 2848.99,419.567 2864,469.5C 2867.13,481.339 2869.3,493.339 2870.5,505.5C 2934.96,487.838 2999.62,487.004 3064.5,503C 3099.04,513.107 3131.04,528.274 3160.5,548.5C 3119.23,645.489 3046.9,704.656 2943.5,726C 2902.42,734.015 2861.09,737.182 2819.5,735.5C 2799.23,785.043 2776.56,833.377 2751.5,880.5C 2800.59,885.303 2849.26,881.47 2897.5,869C 2927.61,860.611 2954.95,846.944 2979.5,828C 2987.33,821.5 2994.5,814.333 3001,806.5C 2997.23,822.877 3000.23,837.877 3010,851.5C 3024.77,866.81 3042.27,877.977 3062.5,885C 3092.08,894.894 3122.08,903.228 3152.5,910C 3012.5,910.333 2872.5,910.667 2732.5,911C 2601.26,1125.87 2417.26,1276.87 2180.5,1364C 2062.36,1406.1 1940.69,1431.43 1815.5,1440C 1740.4,1446.24 1665.4,1445.9 1590.5,1439C 1484.57,1428.8 1384.9,1398.46 1291.5,1348C 1175.18,1282.52 1088.01,1189.69 1030,1069.5C 1006.88,1018.71 991.05,965.705 982.5,910.5C 878.166,910.667 773.833,910.5 669.5,910C 700.308,903.381 730.641,895.048 760.5,885C 780.217,878.066 797.384,867.233 812,852.5C 822.031,839.042 825.364,824.042 822,807.5C 851.204,838.699 886.704,859.532 928.5,870C 944.97,874.261 961.637,877.427 978.5,879.5C 972.776,821.115 973.443,762.782 980.5,704.5C 1044.17,704.5 1107.83,704.5 1171.5,704.5C 1171.5,628.167 1171.5,551.833 1171.5,475.5C 1245.83,475.5 1320.17,475.5 1394.5,475.5C 1394.5,401.167 1394.5,326.833 1394.5,252.5C 1543.5,252.5 1692.5,252.5 1841.5,252.5C 1841.5,178.167 1841.5,103.833 1841.5,29.5 Z"/></g>
<g><path style="opacity:1" fill="#00bade" d="M 2072.5,67.5 C 2072.5,131.833 2072.5,196.167 2072.5,260.5C 2008.17,260.5 1943.83,260.5 1879.5,260.5C 1879.5,196.167 1879.5,131.833 1879.5,67.5C 1943.83,67.5 2008.17,67.5 2072.5,67.5 Z"/></g>
<g><path style="opacity:1" fill="#294347" d="M 1895.5,83.5 C 1900.5,83.5 1905.5,83.5 1910.5,83.5C 1910.5,137.167 1910.5,190.833 1910.5,244.5C 1905.5,244.5 1900.5,244.5 1895.5,244.5C 1895.5,190.833 1895.5,137.167 1895.5,83.5 Z"/></g>
<g><path style="opacity:1" fill="#294347" d="M 1924.5,83.5 C 1929.5,83.5 1934.5,83.5 1939.5,83.5C 1939.5,137.167 1939.5,190.833 1939.5,244.5C 1934.83,244.5 1930.17,244.5 1925.5,244.5C 1924.5,190.905 1924.17,137.238 1924.5,83.5 Z"/></g>
<g><path style="opacity:1" fill="#294347" d="M 1968.5,83.5 C 1968.83,137.238 1968.5,190.905 1967.5,244.5C 1962.83,244.5 1958.17,244.5 1953.5,244.5C 1953.5,190.833 1953.5,137.167 1953.5,83.5C 1958.5,83.5 1963.5,83.5 1968.5,83.5 Z"/></g>
<g><path style="opacity:1" fill="#294348" d="M 1982.5,83.5 C 1987.83,83.5 1993.17,83.5 1998.5,83.5C 1998.5,137.167 1998.5,190.833 1998.5,244.5C 1993.17,244.5 1987.83,244.5 1982.5,244.5C 1982.5,190.833 1982.5,137.167 1982.5,83.5 Z"/></g>
<g><path style="opacity:1" fill="#016b7c" d="M 2027.5,83.5 C 2022.5,83.5 2017.5,83.5 2012.5,83.5C 2012.17,137.238 2012.5,190.905 2013.5,244.5C 2011.5,190.844 2010.84,136.844 2011.5,82.5C 2017.03,82.1786 2022.36,82.5119 2027.5,83.5 Z"/></g>
<g><path style="opacity:1" fill="#294347" d="M 2027.5,83.5 C 2027.5,137.167 2027.5,190.833 2027.5,244.5C 2022.83,244.5 2018.17,244.5 2013.5,244.5C 2012.5,190.905 2012.17,137.238 2012.5,83.5C 2017.5,83.5 2022.5,83.5 2027.5,83.5 Z"/></g>
<g><path style="opacity:1" fill="#294347" d="M 2041.5,83.5 C 2046.5,83.5 2051.5,83.5 2056.5,83.5C 2056.5,137.167 2056.5,190.833 2056.5,244.5C 2051.5,244.5 2046.5,244.5 2041.5,244.5C 2041.5,190.833 2041.5,137.167 2041.5,83.5 Z"/></g>
<g><path style="opacity:1" fill="#01758f" d="M 1924.5,83.5 C 1924.17,137.238 1924.5,190.905 1925.5,244.5C 1924.17,218.008 1923.5,191.175 1923.5,164C 1923.5,136.998 1923.83,110.165 1924.5,83.5 Z"/></g>
<g><path style="opacity:1" fill="#01758f" d="M 1968.5,83.5 C 1969.17,110.165 1969.5,136.998 1969.5,164C 1969.5,191.175 1968.83,218.008 1967.5,244.5C 1968.5,190.905 1968.83,137.238 1968.5,83.5 Z"/></g>
<g><path style="opacity:1" fill="#0082a5" d="M 2072.5,67.5 C 2008.17,67.5 1943.83,67.5 1879.5,67.5C 1879.5,131.833 1879.5,196.167 1879.5,260.5C 1878.5,196.002 1878.17,131.335 1878.5,66.5C 1943.34,66.1675 2008,66.5009 2072.5,67.5 Z"/></g>
<g><path style="opacity:1" fill="#00a1c6" d="M 1432.5,290.5 C 1496.83,290.5 1561.17,290.5 1625.5,290.5C 1625.5,354.833 1625.5,419.167 1625.5,483.5C 1561.17,483.5 1496.83,483.5 1432.5,483.5C 1432.5,419.167 1432.5,354.833 1432.5,290.5 Z"/></g>
<g><path style="opacity:1" fill="#00bade" d="M 1655.5,290.5 C 1720.17,290.5 1784.83,290.5 1849.5,290.5C 1849.5,354.833 1849.5,419.167 1849.5,483.5C 1784.83,483.5 1720.17,483.5 1655.5,483.5C 1655.5,419.167 1655.5,354.833 1655.5,290.5 Z"/></g>
<g><path style="opacity:1" fill="#00a1c6" d="M 1879.5,290.5 C 1943.83,290.5 2008.17,290.5 2072.5,290.5C 2072.5,354.833 2072.5,419.167 2072.5,483.5C 2008.17,483.5 1943.83,483.5 1879.5,483.5C 1879.5,419.167 1879.5,354.833 1879.5,290.5 Z"/></g>
<g><path style="opacity:1" fill="#294347" d="M 1448.5,306.5 C 1453.5,306.5 1458.5,306.5 1463.5,306.5C 1463.5,360.167 1463.5,413.833 1463.5,467.5C 1458.5,467.5 1453.5,467.5 1448.5,467.5C 1448.5,413.833 1448.5,360.167 1448.5,306.5 Z"/></g>
<g><path style="opacity:1" fill="#294347" d="M 1506.5,306.5 C 1511.83,306.5 1517.17,306.5 1522.5,306.5C 1522.5,360.167 1522.5,413.833 1522.5,467.5C 1517.24,467.805 1512.07,467.471 1507,466.5C 1506.5,413.168 1506.33,359.834 1506.5,306.5 Z"/></g>
<g><path style="opacity:1" fill="#294549" d="M 1535.5,306.5 C 1540.83,306.5 1546.17,306.5 1551.5,306.5C 1551.5,360.167 1551.5,413.833 1551.5,467.5C 1546.17,467.5 1540.83,467.5 1535.5,467.5C 1535.5,413.833 1535.5,360.167 1535.5,306.5 Z"/></g>
<g><path style="opacity:1" fill="#294549" d="M 1565.5,306.5 C 1570.83,306.5 1576.17,306.5 1581.5,306.5C 1581.5,360.167 1581.5,413.833 1581.5,467.5C 1576.17,467.5 1570.83,467.5 1565.5,467.5C 1565.5,413.833 1565.5,360.167 1565.5,306.5 Z"/></g>
<g><path style="opacity:1" fill="#294347" d="M 1594.5,306.5 C 1599.5,306.5 1604.5,306.5 1609.5,306.5C 1609.5,360.167 1609.5,413.833 1609.5,467.5C 1604.57,467.803 1599.74,467.469 1595,466.5C 1594.5,413.168 1594.33,359.834 1594.5,306.5 Z"/></g>
<g><path style="opacity:1" fill="#29484d" d="M 1671.5,306.5 C 1676.83,306.5 1682.17,306.5 1687.5,306.5C 1687.5,360.167 1687.5,413.833 1687.5,467.5C 1682.17,467.5 1676.83,467.5 1671.5,467.5C 1671.5,413.833 1671.5,360.167 1671.5,306.5 Z"/></g>
<g><path style="opacity:1" fill="#294347" d="M 1700.5,306.5 C 1705.83,306.5 1711.17,306.5 1716.5,306.5C 1716.5,360.167 1716.5,413.833 1716.5,467.5C 1711.17,467.5 1705.83,467.5 1700.5,467.5C 1700.5,413.833 1700.5,360.167 1700.5,306.5 Z"/></g>
<g><path style="opacity:1" fill="#29454b" d="M 1729.5,306.5 C 1734.83,306.5 1740.17,306.5 1745.5,306.5C 1745.5,360.167 1745.5,413.833 1745.5,467.5C 1740.17,467.5 1734.83,467.5 1729.5,467.5C 1729.5,413.833 1729.5,360.167 1729.5,306.5 Z"/></g>
<g><path style="opacity:1" fill="#29454b" d="M 1759.5,306.5 C 1764.83,306.5 1770.17,306.5 1775.5,306.5C 1775.5,360.167 1775.5,413.833 1775.5,467.5C 1770.17,467.5 1764.83,467.5 1759.5,467.5C 1759.5,413.833 1759.5,360.167 1759.5,306.5 Z"/></g>
<g><path style="opacity:1" fill="#2a4346" d="M 1788.5,306.5 C 1793.83,306.5 1799.17,306.5 1804.5,306.5C 1804.5,360.167 1804.5,413.833 1804.5,467.5C 1799.17,467.5 1793.83,467.5 1788.5,467.5C 1788.5,413.833 1788.5,360.167 1788.5,306.5 Z"/></g>
<g><path style="opacity:1" fill="#29484d" d="M 1817.5,306.5 C 1822.83,306.5 1828.17,306.5 1833.5,306.5C 1833.5,360.167 1833.5,413.833 1833.5,467.5C 1828.17,467.5 1822.83,467.5 1817.5,467.5C 1817.5,413.833 1817.5,360.167 1817.5,306.5 Z"/></g>
<g><path style="opacity:1" fill="#2a4346" d="M 1895.5,306.5 C 1900.5,306.5 1905.5,306.5 1910.5,306.5C 1910.5,360.167 1910.5,413.833 1910.5,467.5C 1905.5,467.5 1900.5,467.5 1895.5,467.5C 1895.5,413.833 1895.5,360.167 1895.5,306.5 Z"/></g>
<g><path style="opacity:1" fill="#294549" d="M 1923.5,306.5 C 1928.83,306.5 1934.17,306.5 1939.5,306.5C 1939.5,360.167 1939.5,413.833 1939.5,467.5C 1934.17,467.5 1928.83,467.5 1923.5,467.5C 1923.5,413.833 1923.5,360.167 1923.5,306.5 Z"/></g>
<g><path style="opacity:1" fill="#294549" d="M 1953.5,306.5 C 1958.83,306.5 1964.17,306.5 1969.5,306.5C 1969.5,360.167 1969.5,413.833 1969.5,467.5C 1964.17,467.5 1958.83,467.5 1953.5,467.5C 1953.5,413.833 1953.5,360.167 1953.5,306.5 Z"/></g>
<g><path style="opacity:1" fill="#294347" d="M 1982.5,306.5 C 1987.83,306.5 1993.17,306.5 1998.5,306.5C 1998.5,360.167 1998.5,413.833 1998.5,467.5C 1993.17,467.5 1987.83,467.5 1982.5,467.5C 1982.5,413.833 1982.5,360.167 1982.5,306.5 Z"/></g>
<g><path style="opacity:1" fill="#294549" d="M 2011.5,306.5 C 2016.83,306.5 2022.17,306.5 2027.5,306.5C 2027.5,360.167 2027.5,413.833 2027.5,467.5C 2022.17,467.5 2016.83,467.5 2011.5,467.5C 2011.5,413.833 2011.5,360.167 2011.5,306.5 Z"/></g>
<g><path style="opacity:1" fill="#2a4346" d="M 2041.5,306.5 C 2046.5,306.5 2051.5,306.5 2056.5,306.5C 2056.5,360.167 2056.5,413.833 2056.5,467.5C 2051.5,467.5 2046.5,467.5 2041.5,467.5C 2041.5,413.833 2041.5,360.167 2041.5,306.5 Z"/></g>
<g><path style="opacity:1" fill="#00b2db" d="M 2840.5,557.5 C 2840.94,557.435 2841.27,557.601 2841.5,558C 2749.89,674.434 2647.23,779.6 2533.5,873.5C 2501.45,881.817 2468.79,886.65 2435.5,888C 2364.61,891.815 2294.61,885.815 2225.5,870C 2197.02,863.741 2170.36,853.408 2145.5,839C 2136.21,833.044 2129.04,825.211 2124,815.5C 2114.4,826.432 2103.57,835.932 2091.5,844C 2061.64,861.801 2029.64,874.135 1995.5,881C 1956.47,888.061 1917.14,890.394 1877.5,888C 1827.63,885.147 1780.97,871.814 1737.5,848C 1723.2,839.207 1710.2,828.707 1698.5,816.5C 1691.56,827.813 1682.23,836.646 1670.5,843C 1644.36,856.046 1617.03,865.712 1588.5,872C 1509.17,888.435 1429.17,892.769 1348.5,885C 1315.9,881.456 1284.56,873.456 1254.5,861C 1239.66,854 1227,844.166 1216.5,831.5C 1200.8,843.851 1183.47,853.351 1164.5,860C 1155.09,862.802 1145.76,865.802 1136.5,869C 1127.21,871.159 1117.88,872.992 1108.5,874.5C 1105.5,854.061 1102.83,833.895 1100.5,814C 1100.83,813 1101.17,812 1101.5,811C 1098.99,788.025 1098.32,765.191 1099.5,742.5C 1099.5,742.167 1099.5,741.833 1099.5,741.5C 1554.17,741.667 2008.83,741.5 2463.5,741C 2538.4,737.86 2609.4,719.86 2676.5,687C 2696.67,676.656 2715.33,664.156 2732.5,649.5C 2704.53,625.599 2685.03,595.933 2674,560.5C 2652.46,489.25 2655.12,418.916 2682,349.5C 2688.3,334.712 2696.8,321.379 2707.5,309.5C 2757.89,349.019 2795.72,398.019 2821,456.5C 2833.54,490.176 2837.88,524.843 2834,560.5C 2835.87,558.781 2838.04,557.781 2840.5,557.5 Z"/></g>
<g><path style="opacity:1" fill="#0183a1" d="M 1492.5,467.5 C 1492.5,413.833 1492.5,360.167 1492.5,306.5C 1487.5,306.5 1482.5,306.5 1477.5,306.5C 1477.5,360.167 1477.5,413.833 1477.5,467.5C 1476.5,413.669 1476.17,359.669 1476.5,305.5C 1482.17,305.5 1487.83,305.5 1493.5,305.5C 1493.83,359.669 1493.5,413.669 1492.5,467.5 Z"/></g>
<g><path style="opacity:1" fill="#2a4346" d="M 1492.5,467.5 C 1487.5,467.5 1482.5,467.5 1477.5,467.5C 1477.5,413.833 1477.5,360.167 1477.5,306.5C 1482.5,306.5 1487.5,306.5 1492.5,306.5C 1492.5,360.167 1492.5,413.833 1492.5,467.5 Z"/></g>
<g><path style="opacity:1" fill="#00a2c7" d="M 1209.5,513.5 C 1273.83,513.5 1338.17,513.5 1402.5,513.5C 1403,578.309 1402.5,642.976 1401,707.5C 1336.42,706.71 1272.92,706.71 1210.5,707.5C 1209.5,642.837 1209.17,578.17 1209.5,513.5 Z"/></g>
<g><path style="opacity:1" fill="#00bade" d="M 1625.5,513.5 C 1625.5,577.833 1625.5,642.167 1625.5,706.5C 1561.17,706.5 1496.83,706.5 1432.5,706.5C 1432.5,642.167 1432.5,577.833 1432.5,513.5C 1496.83,513.5 1561.17,513.5 1625.5,513.5 Z"/></g>
<g><path style="opacity:1" fill="#0081a7" d="M 1656.5,513.5 C 1656.5,577.833 1656.5,642.167 1656.5,706.5C 1657.79,706.263 1658.79,706.596 1659.5,707.5C 1658.17,707.5 1656.83,707.5 1655.5,707.5C 1655.17,642.665 1655.5,577.998 1656.5,513.5 Z"/></g>
<g><path style="opacity:1" fill="#00a2c7" d="M 1656.5,513.5 C 1720.83,513.5 1785.17,513.5 1849.5,513.5C 1849.83,578.17 1849.5,642.837 1848.5,707.5C 1796.04,707.254 1744.04,707.254 1692.5,707.5C 1690.44,706.784 1688.28,706.117 1686,705.5C 1684.7,706.085 1683.53,706.751 1682.5,707.5C 1675.02,706.734 1667.35,706.734 1659.5,707.5C 1658.79,706.596 1657.79,706.263 1656.5,706.5C 1656.5,642.167 1656.5,577.833 1656.5,513.5 Z"/></g>
<g><path style="opacity:1" fill="#00bade" d="M 1879.5,513.5 C 1943.83,513.5 2008.17,513.5 2072.5,513.5C 2072.5,577.833 2072.5,642.167 2072.5,706.5C 2072.5,642.167 2072.5,577.833 2072.5,513.5C 2008.17,513.5 1943.83,513.5 1879.5,513.5 Z"/></g>
<g><path style="opacity:1" fill="#00a2c7" d="M 2295.5,513.5 C 2295.83,578.238 2295.5,642.905 2294.5,707.5C 2230.98,706.2 2166.98,706.2 2102.5,707.5C 2102.5,642.833 2102.5,578.167 2102.5,513.5C 2166.83,513.5 2231.17,513.5 2295.5,513.5 Z"/></g>
<g><path style="opacity:1" fill="#016978" d="M 2295.5,513.5 C 2296.17,545.665 2296.5,577.998 2296.5,610.5C 2296.5,643.174 2295.83,675.507 2294.5,707.5C 2295.5,642.905 2295.83,578.238 2295.5,513.5 Z"/></g>
<g><path style="opacity:1" fill="#294347" d="M 1226.5,529.5 C 1231.17,529.5 1235.83,529.5 1240.5,529.5C 1240.5,583.167 1240.5,636.833 1240.5,690.5C 1235.5,690.5 1230.5,690.5 1225.5,690.5C 1225.17,636.762 1225.5,583.095 1226.5,529.5 Z"/></g>
<g><path style="opacity:1" fill="#016978" d="M 1255.5,529.5 C 1254.5,583.095 1254.17,636.762 1254.5,690.5C 1254.17,690.5 1253.83,690.5 1253.5,690.5C 1252.84,636.49 1253.5,582.823 1255.5,529.5 Z"/></g>
<g><path style="opacity:1" fill="#294347" d="M 1255.5,529.5 C 1259.83,529.5 1264.17,529.5 1268.5,529.5C 1269.5,583.095 1269.83,636.762 1269.5,690.5C 1264.5,690.5 1259.5,690.5 1254.5,690.5C 1254.17,636.762 1254.5,583.095 1255.5,529.5 Z"/></g>
<g><path style="opacity:1" fill="#0082a8" d="M 1268.5,529.5 C 1269.83,556.158 1270.5,583.158 1270.5,610.5C 1270.17,637.5 1269.83,664.5 1269.5,691.5C 1264.92,691.635 1260.42,691.968 1256,692.5C 1255.01,691.934 1254.17,691.267 1253.5,690.5C 1253.83,690.5 1254.17,690.5 1254.5,690.5C 1259.5,690.5 1264.5,690.5 1269.5,690.5C 1269.83,636.762 1269.5,583.095 1268.5,529.5 Z"/></g>
<g><path style="opacity:1" fill="#294347" d="M 1284.5,529.5 C 1288.83,529.5 1293.17,529.5 1297.5,529.5C 1298.5,583.095 1298.83,636.762 1298.5,690.5C 1293.5,690.5 1288.5,690.5 1283.5,690.5C 1283.17,636.762 1283.5,583.095 1284.5,529.5 Z"/></g>
<g><path style="opacity:1" fill="#016978" d="M 1297.5,529.5 C 1299.5,582.823 1300.16,636.49 1299.5,690.5C 1299.17,690.5 1298.83,690.5 1298.5,690.5C 1298.83,636.762 1298.5,583.095 1297.5,529.5 Z"/></g>
<g><path style="opacity:1" fill="#294448" d="M 1312.5,529.5 C 1317.83,529.5 1323.17,529.5 1328.5,529.5C 1328.5,583.167 1328.5,636.833 1328.5,690.5C 1323.17,690.5 1317.83,690.5 1312.5,690.5C 1312.5,636.833 1312.5,583.167 1312.5,529.5 Z"/></g>
<g><path style="opacity:1" fill="#016978" d="M 1343.5,529.5 C 1342.5,583.095 1342.17,636.762 1342.5,690.5C 1342.17,690.5 1341.83,690.5 1341.5,690.5C 1340.84,636.49 1341.5,582.823 1343.5,529.5 Z"/></g>
<g><path style="opacity:1" fill="#294347" d="M 1343.5,529.5 C 1347.83,529.5 1352.17,529.5 1356.5,529.5C 1357.5,583.095 1357.83,636.762 1357.5,690.5C 1352.5,690.5 1347.5,690.5 1342.5,690.5C 1342.17,636.762 1342.5,583.095 1343.5,529.5 Z"/></g>
<g><path style="opacity:1" fill="#0082a8" d="M 1356.5,529.5 C 1357.83,556.158 1358.5,583.158 1358.5,610.5C 1358.17,637.5 1357.83,664.5 1357.5,691.5C 1352.92,691.635 1348.42,691.968 1344,692.5C 1343.01,691.934 1342.17,691.267 1341.5,690.5C 1341.83,690.5 1342.17,690.5 1342.5,690.5C 1347.5,690.5 1352.5,690.5 1357.5,690.5C 1357.83,636.762 1357.5,583.095 1356.5,529.5 Z"/></g>
<g><path style="opacity:1" fill="#294347" d="M 1372.5,529.5 C 1377.17,529.5 1381.83,529.5 1386.5,529.5C 1386.5,583.167 1386.5,636.833 1386.5,690.5C 1381.5,690.5 1376.5,690.5 1371.5,690.5C 1371.17,636.762 1371.5,583.095 1372.5,529.5 Z"/></g>
<g><path style="opacity:1" fill="#294348" d="M 1448.5,529.5 C 1453.5,529.5 1458.5,529.5 1463.5,529.5C 1463.5,583.167 1463.5,636.833 1463.5,690.5C 1458.5,690.5 1453.5,690.5 1448.5,690.5C 1448.5,636.833 1448.5,583.167 1448.5,529.5 Z"/></g>
<g><path style="opacity:1" fill="#294347" d="M 1491.5,529.5 C 1492.5,583.095 1492.83,636.762 1492.5,690.5C 1487.5,690.5 1482.5,690.5 1477.5,690.5C 1477.5,636.833 1477.5,583.167 1477.5,529.5C 1482.17,529.5 1486.83,529.5 1491.5,529.5 Z"/></g>
<g><path style="opacity:1" fill="#294348" d="M 1506.5,529.5 C 1511.83,529.5 1517.17,529.5 1522.5,529.5C 1522.5,583.167 1522.5,636.833 1522.5,690.5C 1517.17,690.5 1511.83,690.5 1506.5,690.5C 1506.5,636.833 1506.5,583.167 1506.5,529.5 Z"/></g>
<g><path style="opacity:1" fill="#01758f" d="M 1537.5,529.5 C 1536.5,583.095 1536.17,636.762 1536.5,690.5C 1535.83,663.835 1535.5,637.002 1535.5,610C 1535.5,582.825 1536.17,555.992 1537.5,529.5 Z"/></g>
<g><path style="opacity:1" fill="#294347" d="M 1537.5,529.5 C 1541.83,529.5 1546.17,529.5 1550.5,529.5C 1551.5,583.095 1551.83,636.762 1551.5,690.5C 1546.5,690.5 1541.5,690.5 1536.5,690.5C 1536.17,636.762 1536.5,583.095 1537.5,529.5 Z"/></g>
<g><path style="opacity:1" fill="#0091b6" d="M 1550.5,529.5 C 1551.83,555.992 1552.5,582.825 1552.5,610C 1552.5,637.002 1552.17,663.835 1551.5,690.5C 1551.83,636.762 1551.5,583.095 1550.5,529.5 Z"/></g>
<g><path style="opacity:1" fill="#294347" d="M 1579.5,529.5 C 1580.5,583.095 1580.83,636.762 1580.5,690.5C 1575.5,690.5 1570.5,690.5 1565.5,690.5C 1565.5,636.833 1565.5,583.167 1565.5,529.5C 1570.17,529.5 1574.83,529.5 1579.5,529.5 Z"/></g>
<g><path style="opacity:1" fill="#294348" d="M 1594.5,529.5 C 1599.5,529.5 1604.5,529.5 1609.5,529.5C 1609.5,583.167 1609.5,636.833 1609.5,690.5C 1604.5,690.5 1599.5,690.5 1594.5,690.5C 1594.5,636.833 1594.5,583.167 1594.5,529.5 Z"/></g>
<g><path style="opacity:1" fill="#016978" d="M 1673.5,529.5 C 1672.5,583.095 1672.17,636.762 1672.5,690.5C 1671.83,663.835 1671.5,637.002 1671.5,610C 1671.5,582.825 1672.17,555.992 1673.5,529.5 Z"/></g>
<g><path style="opacity:1" fill="#29454a" d="M 1673.5,529.5 C 1678.17,529.5 1682.83,529.5 1687.5,529.5C 1687.5,583.167 1687.5,636.833 1687.5,690.5C 1682.5,690.5 1677.5,690.5 1672.5,690.5C 1672.17,636.762 1672.5,583.095 1673.5,529.5 Z"/></g>
<g><path style="opacity:1" fill="#294347" d="M 1700.5,529.5 C 1705.83,529.5 1711.17,529.5 1716.5,529.5C 1716.5,583.167 1716.5,636.833 1716.5,690.5C 1711.17,690.5 1705.83,690.5 1700.5,690.5C 1700.5,636.833 1700.5,583.167 1700.5,529.5 Z"/></g>
<g><path style="opacity:1" fill="#016978" d="M 1731.5,529.5 C 1730.5,583.095 1730.17,636.762 1730.5,690.5C 1730.17,690.5 1729.83,690.5 1729.5,690.5C 1728.84,636.49 1729.5,582.823 1731.5,529.5 Z"/></g>
<g><path style="opacity:1" fill="#294347" d="M 1731.5,529.5 C 1735.83,529.5 1740.17,529.5 1744.5,529.5C 1745.5,583.095 1745.83,636.762 1745.5,690.5C 1740.5,690.5 1735.5,690.5 1730.5,690.5C 1730.17,636.762 1730.5,583.095 1731.5,529.5 Z"/></g>
<g><path style="opacity:1" fill="#0082a8" d="M 1744.5,529.5 C 1745.83,556.158 1746.5,583.158 1746.5,610.5C 1746.17,637.5 1745.83,664.5 1745.5,691.5C 1740.92,691.635 1736.42,691.968 1732,692.5C 1731.01,691.934 1730.17,691.267 1729.5,690.5C 1729.83,690.5 1730.17,690.5 1730.5,690.5C 1735.5,690.5 1740.5,690.5 1745.5,690.5C 1745.83,636.762 1745.5,583.095 1744.5,529.5 Z"/></g>
<g><path style="opacity:1" fill="#0082a8" d="M 1760.5,529.5 C 1759.5,583.095 1759.17,636.762 1759.5,690.5C 1764.5,690.5 1769.5,690.5 1774.5,690.5C 1774.83,690.5 1775.17,690.5 1775.5,690.5C 1774.83,691.267 1773.99,691.934 1773,692.5C 1768.58,691.968 1764.08,691.635 1759.5,691.5C 1759.17,664.5 1758.83,637.5 1758.5,610.5C 1758.5,583.158 1759.17,556.158 1760.5,529.5 Z"/></g>
<g><path style="opacity:1" fill="#294347" d="M 1760.5,529.5 C 1764.83,529.5 1769.17,529.5 1773.5,529.5C 1774.5,583.095 1774.83,636.762 1774.5,690.5C 1769.5,690.5 1764.5,690.5 1759.5,690.5C 1759.17,636.762 1759.5,583.095 1760.5,529.5 Z"/></g>
<g><path style="opacity:1" fill="#016978" d="M 1773.5,529.5 C 1775.5,582.823 1776.16,636.49 1775.5,690.5C 1775.17,690.5 1774.83,690.5 1774.5,690.5C 1774.83,636.762 1774.5,583.095 1773.5,529.5 Z"/></g>
<g><path style="opacity:1" fill="#294347" d="M 1788.5,529.5 C 1793.83,529.5 1799.17,529.5 1804.5,529.5C 1804.5,583.167 1804.5,636.833 1804.5,690.5C 1799.17,690.5 1793.83,690.5 1788.5,690.5C 1788.5,636.833 1788.5,583.167 1788.5,529.5 Z"/></g>
<g><path style="opacity:1" fill="#016978" d="M 1819.5,529.5 C 1818.5,583.095 1818.17,636.762 1818.5,690.5C 1817.83,663.835 1817.5,637.002 1817.5,610C 1817.5,582.825 1818.17,555.992 1819.5,529.5 Z"/></g>
<g><path style="opacity:1" fill="#29454a" d="M 1819.5,529.5 C 1824.17,529.5 1828.83,529.5 1833.5,529.5C 1833.5,583.167 1833.5,636.833 1833.5,690.5C 1828.5,690.5 1823.5,690.5 1818.5,690.5C 1818.17,636.762 1818.5,583.095 1819.5,529.5 Z"/></g>
<g><path style="opacity:1" fill="#294347" d="M 1895.5,529.5 C 1900.5,529.5 1905.5,529.5 1910.5,529.5C 1910.5,583.167 1910.5,636.833 1910.5,690.5C 1905.5,690.5 1900.5,690.5 1895.5,690.5C 1895.5,636.833 1895.5,583.167 1895.5,529.5 Z"/></g>
<g><path style="opacity:1" fill="#01758f" d="M 1925.5,529.5 C 1924.5,583.095 1924.17,636.762 1924.5,690.5C 1923.83,663.835 1923.5,637.002 1923.5,610C 1923.5,582.825 1924.17,555.992 1925.5,529.5 Z"/></g>
<g><path style="opacity:1" fill="#294347" d="M 1925.5,529.5 C 1930.17,529.5 1934.83,529.5 1939.5,529.5C 1939.5,583.167 1939.5,636.833 1939.5,690.5C 1934.5,690.5 1929.5,690.5 1924.5,690.5C 1924.17,636.762 1924.5,583.095 1925.5,529.5 Z"/></g>
<g><path style="opacity:1" fill="#294347" d="M 1967.5,529.5 C 1968.5,583.095 1968.83,636.762 1968.5,690.5C 1963.5,690.5 1958.5,690.5 1953.5,690.5C 1953.5,636.833 1953.5,583.167 1953.5,529.5C 1958.17,529.5 1962.83,529.5 1967.5,529.5 Z"/></g>
<g><path style="opacity:1" fill="#01758f" d="M 1967.5,529.5 C 1968.83,555.992 1969.5,582.825 1969.5,610C 1969.5,637.002 1969.17,663.835 1968.5,690.5C 1968.83,636.762 1968.5,583.095 1967.5,529.5 Z"/></g>
<g><path style="opacity:1" fill="#294348" d="M 1982.5,529.5 C 1987.83,529.5 1993.17,529.5 1998.5,529.5C 1998.5,583.167 1998.5,636.833 1998.5,690.5C 1993.17,690.5 1987.83,690.5 1982.5,690.5C 1982.5,636.833 1982.5,583.167 1982.5,529.5 Z"/></g>
<g><path style="opacity:1" fill="#294347" d="M 2013.5,529.5 C 2018.17,529.5 2022.83,529.5 2027.5,529.5C 2027.5,583.167 2027.5,636.833 2027.5,690.5C 2022.5,690.5 2017.5,690.5 2012.5,690.5C 2012.17,636.762 2012.5,583.095 2013.5,529.5 Z"/></g>
<g><path style="opacity:1" fill="#294347" d="M 2041.5,529.5 C 2046.5,529.5 2051.5,529.5 2056.5,529.5C 2056.5,583.167 2056.5,636.833 2056.5,690.5C 2051.5,690.5 2046.5,690.5 2041.5,690.5C 2041.5,636.833 2041.5,583.167 2041.5,529.5 Z"/></g>
<g><path style="opacity:1" fill="#294347" d="M 2132.5,529.5 C 2133.5,583.095 2133.83,636.762 2133.5,690.5C 2128.5,690.5 2123.5,690.5 2118.5,690.5C 2118.5,636.833 2118.5,583.167 2118.5,529.5C 2123.17,529.5 2127.83,529.5 2132.5,529.5 Z"/></g>
<g><path style="opacity:1" fill="#0081a7" d="M 2132.5,529.5 C 2133.83,555.992 2134.5,582.825 2134.5,610C 2134.5,637.002 2134.17,663.835 2133.5,690.5C 2133.83,636.762 2133.5,583.095 2132.5,529.5 Z"/></g>
<g><path style="opacity:1" fill="#0082a8" d="M 2148.5,529.5 C 2147.5,583.095 2147.17,636.762 2147.5,690.5C 2152.5,690.5 2157.5,690.5 2162.5,690.5C 2162.83,690.5 2163.17,690.5 2163.5,690.5C 2162.83,691.267 2161.99,691.934 2161,692.5C 2156.58,691.968 2152.08,691.635 2147.5,691.5C 2147.17,664.5 2146.83,637.5 2146.5,610.5C 2146.5,583.158 2147.17,556.158 2148.5,529.5 Z"/></g>
<g><path style="opacity:1" fill="#294347" d="M 2148.5,529.5 C 2152.83,529.5 2157.17,529.5 2161.5,529.5C 2162.5,583.095 2162.83,636.762 2162.5,690.5C 2157.5,690.5 2152.5,690.5 2147.5,690.5C 2147.17,636.762 2147.5,583.095 2148.5,529.5 Z"/></g>
<g><path style="opacity:1" fill="#016978" d="M 2161.5,529.5 C 2163.5,582.823 2164.16,636.49 2163.5,690.5C 2163.17,690.5 2162.83,690.5 2162.5,690.5C 2162.83,636.762 2162.5,583.095 2161.5,529.5 Z"/></g>
<g><path style="opacity:1" fill="#294347" d="M 2176.5,529.5 C 2181.83,529.5 2187.17,529.5 2192.5,529.5C 2192.5,583.167 2192.5,636.833 2192.5,690.5C 2187.17,690.5 2181.83,690.5 2176.5,690.5C 2176.5,636.833 2176.5,583.167 2176.5,529.5 Z"/></g>
<g><path style="opacity:1" fill="#016978" d="M 2207.5,529.5 C 2206.5,583.095 2206.17,636.762 2206.5,690.5C 2206.17,690.5 2205.83,690.5 2205.5,690.5C 2204.84,636.49 2205.5,582.823 2207.5,529.5 Z"/></g>
<g><path style="opacity:1" fill="#294347" d="M 2207.5,529.5 C 2211.83,529.5 2216.17,529.5 2220.5,529.5C 2221.5,583.095 2221.83,636.762 2221.5,690.5C 2216.5,690.5 2211.5,690.5 2206.5,690.5C 2206.17,636.762 2206.5,583.095 2207.5,529.5 Z"/></g>
<g><path style="opacity:1" fill="#0082a7" d="M 2236.5,529.5 C 2235.5,583.095 2235.17,636.762 2235.5,690.5C 2240.5,690.5 2245.5,690.5 2250.5,690.5C 2250.5,689.167 2250.5,687.833 2250.5,686.5C 2251.95,688.838 2251.45,690.838 2249,692.5C 2244.58,691.968 2240.08,691.635 2235.5,691.5C 2235.17,664.5 2234.83,637.5 2234.5,610.5C 2234.5,583.158 2235.17,556.158 2236.5,529.5 Z"/></g>
<g><path style="opacity:1" fill="#294449" d="M 2236.5,529.5 C 2241.5,529.5 2246.5,529.5 2251.5,529.5C 2250.63,581.894 2250.29,634.227 2250.5,686.5C 2250.5,687.833 2250.5,689.167 2250.5,690.5C 2245.5,690.5 2240.5,690.5 2235.5,690.5C 2235.17,636.762 2235.5,583.095 2236.5,529.5 Z"/></g>
<g><path style="opacity:1" fill="#294347" d="M 2279.5,529.5 C 2279.5,583.167 2279.5,636.833 2279.5,690.5C 2274.5,690.5 2269.5,690.5 2264.5,690.5C 2264.5,636.833 2264.5,583.167 2264.5,529.5C 2269.5,529.5 2274.5,529.5 2279.5,529.5 Z"/></g>
<g><path style="opacity:1" fill="#00a3c8" d="M 2533.5,873.5 C 2647.23,779.6 2749.89,674.434 2841.5,558C 2841.27,557.601 2840.94,557.435 2840.5,557.5C 2907.05,527.866 2976.05,521.033 3047.5,537C 3068.94,542.113 3089.27,550.113 3108.5,561C 3109.36,561.689 3110.02,562.522 3110.5,563.5C 3084.91,612.253 3046.91,647.753 2996.5,670C 2955.63,687.04 2912.96,696.373 2868.5,698C 2844.09,698.306 2819.76,697.64 2795.5,696C 2774.14,750.229 2749.64,803.062 2722,854.5C 2718,861.167 2714,867.833 2710,874.5C 2678.8,868.767 2649.3,858.267 2621.5,843C 2616.06,839.193 2610.89,835.027 2606,830.5C 2599.09,840.042 2590.59,847.875 2580.5,854C 2565.46,862.19 2549.8,868.69 2533.5,873.5 Z"/></g>
<g><path style="opacity:1" fill="#016978" d="M 1491.5,529.5 C 1492.83,555.992 1493.5,582.825 1493.5,610C 1493.5,637.002 1493.17,663.835 1492.5,690.5C 1492.83,636.762 1492.5,583.095 1491.5,529.5 Z"/></g>
<g><path style="opacity:1" fill="#016978" d="M 1579.5,529.5 C 1580.83,555.992 1581.5,582.825 1581.5,610C 1581.5,637.002 1581.17,663.835 1580.5,690.5C 1580.83,636.762 1580.5,583.095 1579.5,529.5 Z"/></g>
<g><path style="opacity:1" fill="#016978" d="M 2013.5,529.5 C 2012.5,583.095 2012.17,636.762 2012.5,690.5C 2011.83,663.835 2011.5,637.002 2011.5,610C 2011.5,582.825 2012.17,555.992 2013.5,529.5 Z"/></g>
<g><path style="opacity:1" fill="#0090b5" d="M 2220.5,529.5 C 2222.5,583.156 2223.16,637.156 2222.5,691.5C 2217.05,691.602 2211.88,691.935 2207,692.5C 2206.28,691.956 2205.78,691.289 2205.5,690.5C 2205.83,690.5 2206.17,690.5 2206.5,690.5C 2211.5,690.5 2216.5,690.5 2221.5,690.5C 2221.83,636.762 2221.5,583.095 2220.5,529.5 Z"/></g>
<g><path style="opacity:1" fill="#0082a7" d="M 2279.5,529.5 C 2280.5,583.331 2280.83,637.331 2280.5,691.5C 2274.97,691.821 2269.64,691.488 2264.5,690.5C 2269.5,690.5 2274.5,690.5 2279.5,690.5C 2279.5,636.833 2279.5,583.167 2279.5,529.5 Z"/></g>
<g><path style="opacity:1" fill="#008fb4" d="M 1226.5,529.5 C 1225.5,583.095 1225.17,636.762 1225.5,690.5C 1230.5,690.5 1235.5,690.5 1240.5,690.5C 1240.22,691.289 1239.72,691.956 1239,692.5C 1234.58,691.968 1230.08,691.635 1225.5,691.5C 1225.17,664.5 1224.83,637.5 1224.5,610.5C 1224.5,583.158 1225.17,556.158 1226.5,529.5 Z"/></g>
<g><path style="opacity:1" fill="#008eb3" d="M 1284.5,529.5 C 1283.5,583.095 1283.17,636.762 1283.5,690.5C 1288.5,690.5 1293.5,690.5 1298.5,690.5C 1298.83,690.5 1299.17,690.5 1299.5,690.5C 1298.83,691.267 1297.99,691.934 1297,692.5C 1292.58,691.968 1288.08,691.635 1283.5,691.5C 1283.17,664.5 1282.83,637.5 1282.5,610.5C 1282.5,583.158 1283.17,556.158 1284.5,529.5 Z"/></g>
<g><path style="opacity:1" fill="#008eb4" d="M 1372.5,529.5 C 1371.5,583.095 1371.17,636.762 1371.5,690.5C 1376.5,690.5 1381.5,690.5 1386.5,690.5C 1386.22,691.289 1385.72,691.956 1385,692.5C 1380.58,691.968 1376.08,691.635 1371.5,691.5C 1371.17,664.5 1370.83,637.5 1370.5,610.5C 1370.5,583.158 1371.17,556.158 1372.5,529.5 Z"/></g>
<g><path style="opacity:1" fill="#0081a7" d="M 1625.5,513.5 C 1626.5,577.998 1626.83,642.665 1626.5,707.5C 1561.66,707.832 1497,707.499 1432.5,706.5C 1496.83,706.5 1561.17,706.5 1625.5,706.5C 1625.5,642.167 1625.5,577.833 1625.5,513.5 Z"/></g>
<g><path style="opacity:1" fill="#017084" d="M 1692.5,707.5 C 1689.17,707.5 1685.83,707.5 1682.5,707.5C 1683.53,706.751 1684.7,706.085 1686,705.5C 1688.28,706.117 1690.44,706.784 1692.5,707.5 Z"/></g>
<g><path style="opacity:1" fill="#0080a5" d="M 1879.5,513.5 C 1879.5,577.833 1879.5,642.167 1879.5,706.5C 1943.83,706.5 2008.17,706.5 2072.5,706.5C 2008,707.499 1943.34,707.832 1878.5,707.5C 1878.17,642.665 1878.5,577.998 1879.5,513.5 Z"/></g>
<g><path style="opacity:1" fill="#0085ab" d="M 1099.5,741.5 C 1099.5,741.833 1099.5,742.167 1099.5,742.5C 1071.5,742.5 1043.5,742.5 1015.5,742.5C 1015.74,743.791 1015.4,744.791 1014.5,745.5C 1014.5,744.167 1014.5,742.833 1014.5,741.5C 1042.83,741.5 1071.17,741.5 1099.5,741.5 Z"/></g>
<g><path style="opacity:1" fill="#00a2c8" d="M 1099.5,742.5 C 1098.32,765.191 1098.99,788.025 1101.5,811C 1101.17,812 1100.83,813 1100.5,814C 1102.83,833.895 1105.5,854.061 1108.5,874.5C 1078.29,880.742 1047.62,883.409 1016.5,882.5C 1010.93,836.876 1010.26,791.21 1014.5,745.5C 1015.4,744.791 1015.74,743.791 1015.5,742.5C 1043.5,742.5 1071.5,742.5 1099.5,742.5 Z"/></g>
<g><path style="opacity:1" fill="#0080a5" d="M 2487.5,910.5 C 2485.5,910.5 2483.5,910.5 2481.5,910.5C 2027.17,910.333 1572.83,910.5 1118.5,911C 1143.99,1014.14 1199.99,1096.48 1286.5,1158C 1288.13,1158.49 1289.8,1158.66 1291.5,1158.5C 1236.22,1160.09 1180.55,1158.93 1124.5,1155C 1069.15,1082.11 1034.82,1000.28 1021.5,909.5C 1503.44,909.227 1992.1,909.561 2487.5,910.5 Z"/></g>
<g><path style="opacity:1" fill="#0091b6" d="M 2481.5,910.5 C 2482.26,911.268 2483.26,911.768 2484.5,912C 2355.89,1012.01 2215.89,1093.68 2064.5,1157C 1935.88,1210.22 1807.05,1242.05 1678,1252.5C 1675.82,1252.57 1673.82,1252.24 1672,1251.5C 1667,1252.17 1662,1252.83 1657,1253.5C 1635.39,1253.49 1613.73,1253.49 1592,1253.5C 1581.52,1252.23 1571.52,1251.23 1562,1250.5C 1561.54,1251.09 1561.37,1251.76 1561.5,1252.5C 1541.44,1225.07 1524.44,1195.73 1510.5,1164.5C 1520.17,1161.33 1529.84,1157.83 1539.5,1154C 1548.83,1145 1548.83,1136 1539.5,1127C 1536.41,1125.14 1533.07,1123.97 1529.5,1123.5C 1472.19,1141.55 1413.53,1152.38 1353.5,1156C 1332.86,1157.62 1312.2,1158.45 1291.5,1158.5C 1289.8,1158.66 1288.13,1158.49 1286.5,1158C 1199.99,1096.48 1143.99,1014.14 1118.5,911C 1572.83,910.5 2027.17,910.333 2481.5,910.5 Z"/></g>
<g><path style="opacity:1" fill="#0081a7" d="M 1736.5,1406.5 C 1742.32,1405.67 1748.32,1405.17 1754.5,1405C 1692.84,1376.4 1638.34,1337.57 1591,1288.5C 1580.92,1276.65 1571.09,1264.65 1561.5,1252.5C 1561.37,1251.76 1561.54,1251.09 1562,1250.5C 1571.52,1251.23 1581.52,1252.23 1592,1253.5C 1613.73,1253.49 1635.39,1253.49 1657,1253.5C 1662,1252.83 1667,1252.17 1672,1251.5C 1673.82,1252.24 1675.82,1252.57 1678,1252.5C 1807.05,1242.05 1935.88,1210.22 2064.5,1157C 2215.89,1093.68 2355.89,1012.01 2484.5,912C 2483.26,911.768 2482.26,911.268 2481.5,910.5C 2483.5,910.5 2485.5,910.5 2487.5,910.5C 2554.15,910.209 2620.81,909.875 2687.5,909.5C 2688.58,910.365 2688.75,911.365 2688,912.5C 2559.05,1113.06 2381.89,1253.23 2156.5,1333C 2020.41,1379.63 1880.41,1404.13 1736.5,1406.5 Z"/></g>
<g><path style="opacity:1" fill="#b5dddb" d="M 1609.5,1020.5 C 1639.36,1020.67 1658.52,1035 1667,1063.5C 1670.25,1097.54 1655.42,1118.71 1622.5,1127C 1589.94,1128.82 1569.77,1113.99 1562,1082.5C 1560.28,1048.23 1576.12,1027.56 1609.5,1020.5 Z"/></g>
<g><path style="opacity:1" fill="#2b4448" d="M 1604.5,1036.5 C 1610.51,1036.33 1616.51,1036.5 1622.5,1037C 1624.04,1037.29 1625.38,1037.96 1626.5,1039C 1617.24,1047.62 1617.24,1056.29 1626.5,1065C 1635.68,1069.59 1643.18,1067.76 1649,1059.5C 1653.72,1071.88 1652.72,1083.88 1646,1095.5C 1629.7,1114.76 1610.86,1117.59 1589.5,1104C 1574.75,1089.52 1571.92,1073.02 1581,1054.5C 1586.71,1045.61 1594.55,1039.61 1604.5,1036.5 Z"/></g>
<g><path style="opacity:1" fill="#b2dad9" d="M 1510.5,1164.5 C 1524.44,1195.73 1541.44,1225.07 1561.5,1252.5C 1571.09,1264.65 1580.92,1276.65 1591,1288.5C 1638.34,1337.57 1692.84,1376.4 1754.5,1405C 1748.32,1405.17 1742.32,1405.67 1736.5,1406.5C 1715.17,1406.5 1693.83,1406.5 1672.5,1406.5C 1671.12,1405.77 1669.62,1405.1 1668,1404.5C 1661.47,1405.34 1654.63,1405.68 1647.5,1405.5C 1550.73,1402.18 1457.73,1382.35 1368.5,1346C 1307.96,1319.08 1252.63,1284.08 1202.5,1241C 1183.85,1225.01 1165.85,1208.35 1148.5,1191C 1243.49,1196.99 1338.16,1193.65 1432.5,1181C 1458.74,1176.59 1484.74,1171.09 1510.5,1164.5 Z"/></g>
<g><path style="opacity:1" fill="#65adbb" d="M 1672.5,1406.5 C 1663.98,1406.83 1655.65,1406.49 1647.5,1405.5C 1654.63,1405.68 1661.47,1405.34 1668,1404.5C 1669.62,1405.1 1671.12,1405.77 1672.5,1406.5 Z"/></g>
<g><path style="opacity:0.991" fill="#2a4346" d="M 1076.5,1530.5 C 1093.3,1527.92 1106.8,1533.26 1117,1546.5C 1119.26,1550.95 1120.93,1555.62 1122,1560.5C 1122.67,1681.5 1122.67,1802.5 1122,1923.5C 1117.27,1980.46 1093.77,2027.96 1051.5,2066C 986.438,2120.62 912.438,2137.29 829.5,2116C 773.4,2098.89 730.567,2065.06 701,2014.5C 674.803,1968.51 665.136,1919.18 672,1866.5C 680.368,1798.23 713.201,1745.39 770.5,1708C 826.106,1673.29 886.106,1662.95 950.5,1677C 986.594,1686.13 1018.43,1702.96 1046,1727.5C 1046.33,1671.83 1046.67,1616.17 1047,1560.5C 1050.36,1543.97 1060.19,1533.97 1076.5,1530.5 Z M 882.5,1748.5 C 946.673,1746.67 995.506,1773 1029,1827.5C 1060.33,1898.2 1047.83,1960.04 991.5,2013C 951.801,2044.74 907.134,2054.41 857.5,2042C 817.583,2029.73 786.75,2005.9 765,1970.5C 732.476,1897.79 745.309,1834.29 803.5,1780C 826.76,1761.7 853.093,1751.2 882.5,1748.5 Z"/></g>
<g><path style="opacity:0.987" fill="#2a4346" d="M 2129.5,1532.5 C 2136.51,1532.33 2143.51,1532.5 2150.5,1533C 2164.64,1536.47 2173.47,1545.31 2177,1559.5C 2178.32,1640.8 2178.98,1722.14 2179,1803.5C 2215.86,1766.31 2253.03,1729.47 2290.5,1693C 2297.22,1687.28 2304.22,1681.95 2311.5,1677C 2329.34,1671.5 2344.84,1675.33 2358,1688.5C 2364.11,1698.32 2366.11,1708.98 2364,1720.5C 2360.93,1728.57 2356.59,1735.91 2351,1742.5C 2299.29,1794.38 2248.12,1846.71 2197.5,1899.5C 2243.85,1946.01 2290.01,1992.68 2336,2039.5C 2344.37,2048.2 2352.37,2057.2 2360,2066.5C 2369.11,2089.11 2363.61,2107.28 2343.5,2121C 2328.09,2126.29 2314.09,2123.96 2301.5,2114C 2260.36,2074.53 2219.53,2034.7 2179,1994.5C 2178.67,2026.17 2178.33,2057.83 2178,2089.5C 2173.07,2115.06 2157.57,2125.89 2131.5,2122C 2119.15,2119.64 2110.32,2112.81 2105,2101.5C 2103.53,2097.28 2102.53,2092.94 2102,2088.5C 2101.33,1914.17 2101.33,1739.83 2102,1565.5C 2103.84,1548.17 2113.01,1537.17 2129.5,1532.5 Z"/></g>
<g><path style="opacity:0.99" fill="#2a4346" d="M 2620.5,1668.5 C 2677.51,1668.45 2728.84,1685.28 2774.5,1719C 2800.43,1739.26 2819.93,1764.42 2833,1794.5C 2835.16,1807.53 2832.16,1819.2 2824,1829.5C 2820.2,1834.3 2816.03,1838.8 2811.5,1843C 2797.5,1854.33 2783.5,1865.67 2769.5,1877C 2707.83,1930.67 2646.17,1984.33 2584.5,2038C 2598.01,2042.45 2611.84,2044.95 2626,2045.5C 2636.36,2044.92 2647.19,2044.09 2658.5,2043C 2662.53,2042.52 2666.53,2041.85 2670.5,2041C 2685.19,2034.55 2700.19,2028.88 2715.5,2024C 2736.68,2017.82 2752.18,2024.66 2762,2044.5C 2769.58,2068.84 2761.75,2086.34 2738.5,2097C 2682.31,2127.9 2623.81,2133.07 2563,2112.5C 2514.26,2097.16 2475.59,2068.49 2447,2026.5C 2385.47,1930.68 2389.81,1838.02 2460,1748.5C 2490.63,1716.09 2527.13,1692.59 2569.5,1678C 2586.32,1673.09 2603.32,1669.92 2620.5,1668.5 Z M 2621.5,1746.5 C 2660.27,1745.37 2695.27,1756.2 2726.5,1779C 2732.98,1784.32 2738.98,1790.15 2744.5,1796.5C 2669.78,1862.22 2594.45,1927.22 2518.5,1991.5C 2490.96,1959.69 2479.79,1922.69 2485,1880.5C 2490.05,1829.87 2514.55,1792.04 2558.5,1767C 2578.27,1755.98 2599.27,1749.15 2621.5,1746.5 Z"/></g>
<g><path style="opacity:0.989" fill="#2a4346" d="M 1863.5,1670.5 C 1916.3,1664.95 1964.63,1676.78 2008.5,1706C 2017.92,1719.7 2020.09,1734.54 2015,1750.5C 2005.27,1766.21 1991.1,1772.71 1972.5,1770C 1956.51,1764.84 1940.84,1758.84 1925.5,1752C 1844.05,1734.81 1785.55,1763.98 1750,1839.5C 1734.74,1878.47 1734.74,1917.47 1750,1956.5C 1767.73,1992.9 1795.23,2019.06 1832.5,2035C 1879.9,2052.35 1925.56,2048.69 1969.5,2024C 2008.97,2021.81 2024.14,2039.97 2015,2078.5C 2010.22,2088.28 2003.05,2095.78 1993.5,2101C 1972.74,2111.69 1950.74,2118.36 1927.5,2121C 1881.95,2128.62 1837.62,2124.29 1794.5,2108C 1744.81,2085.64 1708.31,2049.81 1685,2000.5C 1660.8,1947.49 1655.13,1892.49 1668,1835.5C 1682.46,1781.39 1712.96,1738.89 1759.5,1708C 1791.07,1686.71 1825.74,1674.21 1863.5,1670.5 Z"/></g>
<g><path style="opacity:0.99" fill="#2a4346" d="M 1376.5,1671.5 C 1490.12,1669.2 1567.28,1720.86 1608,1826.5C 1620.86,1871.88 1621.86,1917.54 1611,1963.5C 1598.1,2008.16 1573.6,2045 1537.5,2074C 1487.06,2113.62 1429.73,2129.95 1365.5,2123C 1305.94,2117.64 1257.11,2092.14 1219,2046.5C 1173.61,1990.3 1156.95,1926.3 1169,1854.5C 1179.66,1795.65 1209.16,1748.82 1257.5,1714C 1292.97,1688.01 1332.64,1673.84 1376.5,1671.5 Z M 1378.5,1748.5 C 1441.14,1746.71 1489.31,1772.05 1523,1824.5C 1543.01,1861.81 1547.01,1900.81 1535,1941.5C 1520.75,1979.86 1496.25,2009.7 1461.5,2031C 1391.56,2061.28 1330.4,2048.78 1278,1993.5C 1244.69,1952.64 1235.03,1906.64 1249,1855.5C 1261.77,1817.08 1285.27,1787.25 1319.5,1766C 1338.14,1756.26 1357.8,1750.43 1378.5,1748.5 Z"/></g>
<g><path style="opacity:0.987" fill="#2a4346" d="M 3112.5,1674.5 C 3118.96,1674.44 3125.63,1674.6 3132.5,1675C 3158.42,1679.63 3169.59,1695.13 3166,1721.5C 3163.2,1733.64 3156.03,1742.14 3144.5,1747C 3138.06,1749.56 3131.39,1751.22 3124.5,1752C 3099.34,1751.12 3076.01,1757.12 3054.5,1770C 3010.96,1795.9 2986.12,1834.07 2980,1884.5C 2979.97,1954.86 2979.31,2025.19 2978,2095.5C 2974.91,2110.26 2966.08,2119.42 2951.5,2123C 2925.43,2128.07 2909.27,2117.9 2903,2092.5C 2902.33,2020.83 2902.33,1949.17 2903,1877.5C 2907.35,1820.64 2930.51,1773.14 2972.5,1735C 3012.04,1698.43 3058.7,1678.26 3112.5,1674.5 Z"/></g>
</svg>
