<?xml version="1.0" encoding="UTF-8"?>
<!DOCTYPE svg PUBLIC "-//W3C//DTD SVG 1.1//EN" "http://www.w3.org/Graphics/SVG/1.1/DTD/svg11.dtd">
<svg xmlns="http://www.w3.org/2000/svg" version="1.1" width="228px" height="62px" style="shape-rendering:geometricPrecision; text-rendering:geometricPrecision; image-rendering:optimizeQuality; fill-rule:evenodd; clip-rule:evenodd" xmlns:xlink="http://www.w3.org/1999/xlink">
<g><path style="opacity:1" fill="#fdfdfd" d="M -0.5,-0.5 C 75.5,-0.5 151.5,-0.5 227.5,-0.5C 227.5,20.1667 227.5,40.8333 227.5,61.5C 151.5,61.5 75.5,61.5 -0.5,61.5C -0.5,40.8333 -0.5,20.1667 -0.5,-0.5 Z"/></g>
<g><path style="opacity:1" fill="#185652" d="M 25.5,13.5 C 26.6266,14.1217 27.6266,14.955 28.5,16C 33.5329,16.171 38.5329,16.671 43.5,17.5C 42.8333,18.8333 42.1667,20.1667 41.5,21.5C 36.1977,22.6628 30.8643,22.8295 25.5,22C 24.4258,21.2613 23.7591,20.2613 23.5,19C 24.3195,17.1997 24.9862,15.3664 25.5,13.5 Z"/></g>
<g><path style="opacity:1" fill="#4a8f92" d="M 49.5,16.5 C 53.8333,16.5 58.1667,16.5 62.5,16.5C 62.3336,25.5062 62.5002,34.5062 63,43.5C 65.5063,45.8232 68.3396,46.1565 71.5,44.5C 73.4879,45.2888 73.8213,46.4555 72.5,48C 67.9284,50.3748 63.7618,49.8748 60,46.5C 58.5863,37.5822 58.0863,28.5822 58.5,19.5C 55.5,19.5 52.5,19.5 49.5,19.5C 49.5,18.5 49.5,17.5 49.5,16.5 Z"/></g>
<g><path style="opacity:1" fill="#37898c" d="M 21.5,21.5 C 22.9953,21.4148 23.9953,22.0815 24.5,23.5C 20.5788,30.669 20.9121,31.0023 25.5,24.5C 30.5,23.1667 35.5,23.1667 40.5,24.5C 39.2939,27.0794 37.9606,29.5794 36.5,32C 33.3771,32.2065 30.3771,32.8732 27.5,34C 20.9467,38.5651 15.1134,43.7318 10,49.5C 9.33333,48.5 9.33333,47.5 10,46.5C 14.3926,38.3842 18.2259,30.0508 21.5,21.5 Z"/></g>
<g><path style="opacity:1" fill="#499093" d="M 82.5,26.5 C 93.2688,24.5221 97.9355,28.8554 96.5,39.5C 96.1667,42.5 95.8333,45.5 95.5,48.5C 94.8333,47.8333 94.1667,47.1667 93.5,46.5C 89.4537,49.6195 85.1203,50.1195 80.5,48C 76.5,44.3333 76.5,40.6667 80.5,37C 84.6996,35.6326 89.0329,35.1326 93.5,35.5C 93.7035,33.6096 93.0368,32.1096 91.5,31C 87.7745,30.2401 84.1078,30.4068 80.5,31.5C 79.4173,30.635 79.2506,29.635 80,28.5C 80.9947,27.9341 81.828,27.2674 82.5,26.5 Z"/></g>
<g><path style="opacity:1" fill="#4d9194" d="M 111.5,26.5 C 115.516,25.8999 119.016,26.8999 122,29.5C 123.416,35.7145 123.916,42.0478 123.5,48.5C 122.167,48.5 120.833,48.5 119.5,48.5C 119.666,42.8236 119.499,37.1569 119,31.5C 115.667,30.1667 112.333,30.1667 109,31.5C 108.501,37.1569 108.334,42.8236 108.5,48.5C 107.167,48.5 105.833,48.5 104.5,48.5C 104.5,41.5 104.5,34.5 104.5,27.5C 107.215,29.0757 109.548,28.7424 111.5,26.5 Z"/></g>
<g><path style="opacity:1" fill="#438d90" d="M 135.5,26.5 C 139.459,26.0713 142.959,27.0713 146,29.5C 146.71,28.0267 147.876,27.3601 149.5,27.5C 149.666,35.84 149.5,44.1733 149,52.5C 146.929,56.9534 143.429,58.9534 138.5,58.5C 136.035,58.5223 133.702,58.0223 131.5,57C 130.526,53.6486 131.526,52.982 134.5,55C 142.229,56.9228 145.729,54.0895 145,46.5C 138.581,50.1637 133.581,48.8304 130,42.5C 128.016,35.6603 129.85,30.3269 135.5,26.5 Z"/></g>
<g><path style="opacity:1" fill="#366764" d="M 157.5,27.5 C 158.833,27.5 160.167,27.5 161.5,27.5C 161.5,34.5 161.5,41.5 161.5,48.5C 160.167,48.5 158.833,48.5 157.5,48.5C 157.5,41.5 157.5,34.5 157.5,27.5 Z"/></g>
<g><path style="opacity:1" fill="#1b5a56" d="M 168.5,27.5 C 169.5,27.5 170.5,27.5 171.5,27.5C 171.334,32.8437 171.501,38.1771 172,43.5C 175.598,46.0893 179.264,46.0893 183,43.5C 183.499,38.1771 183.666,32.8437 183.5,27.5C 184.5,27.5 185.5,27.5 186.5,27.5C 186.83,34.5316 186.497,41.5316 185.5,48.5C 184.833,47.8333 184.167,47.1667 183.5,46.5C 177.78,51.0503 172.947,50.3836 169,44.5C 168.501,38.8431 168.334,33.1764 168.5,27.5 Z"/></g>
<g><path style="opacity:1" fill="#1c5a56" d="M 198.5,26.5 C 200.936,26.317 203.103,26.9837 205,28.5C 208.075,25.9406 211.075,25.9406 214,28.5C 214.5,35.1583 214.666,41.825 214.5,48.5C 213.5,48.5 212.5,48.5 211.5,48.5C 211.666,42.4908 211.499,36.4908 211,30.5C 209.542,29.2532 208.042,29.2532 206.5,30.5C 205.504,36.4632 205.171,42.4632 205.5,48.5C 204.5,48.5 203.5,48.5 202.5,48.5C 202.666,42.4908 202.499,36.4908 202,30.5C 200.542,29.2532 199.042,29.2532 197.5,30.5C 196.504,36.4632 196.171,42.4632 196.5,48.5C 195.5,48.5 194.5,48.5 193.5,48.5C 193.17,41.4684 193.503,34.4684 194.5,27.5C 196.031,28.4212 197.365,28.0878 198.5,26.5 Z"/></g>
<g><path style="opacity:1" fill="#fbfbfb" d="M 135.5,30.5 C 138.579,30.2601 141.579,30.5934 144.5,31.5C 145.798,35.7154 145.798,39.8821 144.5,44C 137.573,47.2397 133.573,45.073 132.5,37.5C 132.695,34.7819 133.695,32.4486 135.5,30.5 Z"/></g>
<g><path style="opacity:1" fill="#fcfcfc" d="M 81.5,39.5 C 85.5,39.5 89.5,39.5 93.5,39.5C 93.5319,44.0118 91.1986,46.0118 86.5,45.5C 82.0916,45.9225 80.4249,43.9225 81.5,39.5 Z"/></g>
</svg>
