<?xml version="1.0" encoding="UTF-8"?>
<svg version="1.1" xmlns="http://www.w3.org/2000/svg" width="1043" height="216">
<path d="M0 0 C1.70333875 0.94170936 3.40671185 1.88335901 5.11132812 2.82275391 C6.31338919 3.48585809 7.51454754 4.15060107 8.71484375 4.81689453 C15.28479827 8.46070572 21.92576518 11.9678847 28.56881714 15.47607422 C38.55942717 20.75481499 48.52385099 26.07780156 58.4375 31.5 C59.3138208 31.97671143 60.1901416 32.45342285 61.09301758 32.94458008 C65.02135886 35.08453106 68.93032719 37.24802655 72.8046875 39.484375 C73.48781006 39.87036865 74.17093262 40.2563623 74.87475586 40.65405273 C76.6516147 41.65900666 78.4181603 42.68213883 80.18359375 43.70703125 C85.04696794 45.5821388 88.18719857 44.90203269 92.91625977 42.81713867 C95.96042565 41.31613939 98.94982439 39.73547758 101.9375 38.125 C103.04810791 37.53678467 104.15871582 36.94856934 105.30297852 36.3425293 C113.04070668 32.23115423 120.73555543 28.0399854 128.41455078 23.82006836 C138.57894961 18.24548845 148.83452659 12.84361777 159.08569336 7.4309082 C159.77603165 7.06620926 160.46636993 6.70151031 161.17762756 6.32575989 C162.54970034 5.60181308 163.92252744 4.87929401 165.29612732 4.1582489 C168.71938425 2.35807045 172.12268992 0.53075158 175.50048828 -1.35351562 C176.16838882 -1.72192566 176.83628937 -2.09033569 177.52442932 -2.46990967 C178.77777998 -3.16275258 180.02655225 -3.86397835 181.26939392 -4.57550049 C186.48244827 -7.44053138 191.05200951 -8.38853375 196.9375 -7.5625 C201.42120246 -5.60597529 203.94758607 -3.32597427 206.375 0.9375 C207.20509077 4.79422955 207.13551084 8.54022065 207.05615234 12.47241211 C207.05746658 14.18569702 207.05746658 14.18569702 207.05880737 15.93359375 C207.05463984 19.6947152 207.00802192 23.4540353 206.9609375 27.21484375 C206.94974253 29.82799811 206.94120377 32.44116508 206.93521118 35.05433655 C206.91660464 41.22033163 206.86742598 47.38568408 206.80711424 53.55139691 C206.73991718 60.57430915 206.70702721 67.597253 206.67694163 74.62040699 C206.61432189 89.05981583 206.50434282 103.49853011 206.375 117.9375 C190.205 117.9375 174.035 117.9375 157.375 117.9375 C157.045 99.4575 156.715 80.9775 156.375 61.9375 C151.4353116 60.77997659 151.4353116 60.77997659 147.46533203 62.53295898 C146.73331573 62.90762802 146.00129944 63.28229706 145.24710083 63.6683197 C144.46688568 64.08586014 143.68667053 64.50340057 142.8828125 64.93359375 C142.05981659 65.35995621 141.23682068 65.78631866 140.3888855 66.2256012 C137.75218354 67.59564061 135.12621271 68.98497831 132.5 70.375 C130.77149768 71.27666533 129.04233661 72.17706902 127.3125 73.07617188 C120.86039349 76.4377781 114.4249105 79.82976903 108.01855469 83.27783203 C107.34525116 83.6396608 106.67194763 84.00148956 105.97824097 84.37428284 C104.19449856 85.3348651 102.41330045 86.30016788 100.63232422 87.26586914 C93.38605303 90.98459338 87.61327515 93.33918238 79.375 91.9375 C76.85778196 90.8564211 74.49941299 89.74235338 72.0859375 88.46875 C71.39471298 88.11338669 70.70348846 87.75802338 69.99131775 87.39189148 C67.78022035 86.25096181 65.57714848 85.09559586 63.375 83.9375 C61.92868037 83.18260121 60.48231021 82.42779921 59.03588867 81.6730957 C55.39577289 79.76754805 51.76417533 77.84635934 48.13598633 75.91821289 C45.91536368 74.73823739 43.69315131 73.56129861 41.47070312 72.38476562 C40.02343345 71.61719513 38.57616774 70.84961717 37.12890625 70.08203125 C36.4387442 69.7173172 35.74858215 69.35260315 35.0375061 68.97683716 C30.66157402 66.6550132 26.36474492 64.2335282 22.15209961 61.6237793 C19.87178716 60.74316956 18.67678568 61.27595021 16.375 61.9375 C16.36469254 62.62432358 16.35438507 63.31114716 16.34376526 64.01878357 C16.23594405 71.13965857 16.12132717 78.26040074 16.00268555 85.38110352 C15.9592582 88.04188265 15.9175891 90.70269107 15.87768555 93.36352539 C15.82017128 97.17863815 15.75642332 100.99360242 15.69140625 104.80859375 C15.66633751 106.60543861 15.66633751 106.60543861 15.64076233 108.43858337 C15.62081711 109.5396492 15.60087189 110.64071503 15.58032227 111.77514648 C15.56477798 112.74999496 15.5492337 113.72484344 15.53321838 114.72923279 C15.375 116.9375 15.375 116.9375 14.375 117.9375 C12.87081261 118.03061889 11.36228644 118.05496028 9.85522461 118.05102539 C8.41384377 118.05091209 8.41384377 118.05091209 6.94334412 118.05079651 C5.898564 118.04563522 4.85378387 118.04047394 3.77734375 118.03515625 C2.71334854 118.0337413 1.64935333 118.03232635 0.55311584 118.03086853 C-2.86045083 118.02525064 -6.273953 118.01269511 -9.6875 118 C-11.99544176 117.99498731 -14.30338455 117.990424 -16.61132812 117.98632812 C-22.28257426 117.9752754 -27.95378253 117.95851987 -33.625 117.9375 C-33.69510068 102.7689873 -33.74799336 87.60048208 -33.78043652 72.43184376 C-33.79590127 65.38867081 -33.8169832 58.34559855 -33.85131836 51.30249023 C-33.88442874 44.50737744 -33.90184623 37.71236939 -33.90963173 30.91718102 C-33.91518109 28.322795 -33.9260174 25.7284148 -33.94219017 23.13407326 C-33.96392031 19.504376 -33.9669687 15.87511301 -33.96557617 12.24536133 C-33.976362 11.1693013 -33.98714783 10.09324127 -33.9982605 8.98457336 C-33.96016851 -0.17201609 -33.96016851 -0.17201609 -30.625 -4.0625 C-20.1303966 -11.59708705 -10.00433373 -5.67058005 0 0 Z " fill="#C72B48" transform="translate(189.625,53.0625)"/>
<path d="M0 0 C1.70721706 0.82332494 3.41507022 1.64533209 5.12353516 2.46606445 C7.70045211 3.70424786 10.27694494 4.94323348 12.85140991 6.18650818 C20.03471919 9.65549018 27.25611612 13.03411651 34.5 16.375 C43.74668529 20.65122051 52.97869279 24.95719061 62.19989014 29.28799438 C64.22714327 30.23927457 66.25524386 31.18872082 68.28369141 32.13745117 C69.61361742 32.7595801 70.94353284 33.38173167 72.2734375 34.00390625 C72.92667999 34.30948959 73.57992249 34.61507294 74.25296021 34.92991638 C78.14667327 36.75370428 82.0325778 38.59299999 85.91268921 40.44554138 C87.74574536 41.31919827 89.58109847 42.1878019 91.41748047 43.05444336 C93.66832099 44.11756101 95.91499965 45.18955012 98.15673828 46.27172852 C99.1517334 46.73893311 100.14672852 47.2061377 101.171875 47.6875 C102.03651367 48.1 102.90115234 48.5125 103.79199219 48.9375 C106.43650621 49.78764097 107.52505289 49.45432992 110.125 48.6875 C110.13530746 47.96309219 110.14561493 47.23868439 110.15623474 46.49232483 C110.25404768 39.67898098 110.35653859 32.865722 110.46433926 26.05252934 C110.51959955 22.54945645 110.57302434 19.04637527 110.62231445 15.54321289 C110.67900668 11.51959856 110.74357401 7.49614469 110.80859375 3.47265625 C110.82530624 2.20913834 110.84201874 0.94562042 110.85923767 -0.35618591 C110.87918289 -1.517314 110.89912811 -2.67844208 110.91967773 -3.87475586 C110.93522202 -4.90289902 110.9507663 -5.93104218 110.96678162 -6.99034119 C111.125 -9.3125 111.125 -9.3125 112.125 -10.3125 C113.6598297 -10.40569449 115.19892082 -10.429958 116.73657227 -10.42602539 C117.71751358 -10.42594986 118.6984549 -10.42587433 119.7091217 -10.42579651 C120.7757756 -10.42063522 121.8424295 -10.41547394 122.94140625 -10.41015625 C124.57069313 -10.40803383 124.57069313 -10.40803383 126.2328949 -10.40586853 C129.71779075 -10.40025048 133.20262342 -10.38769492 136.6875 -10.375 C139.04361887 -10.36998733 141.39973874 -10.36542402 143.75585938 -10.36132812 C149.54559464 -10.35027519 155.33529281 -10.33351951 161.125 -10.3125 C161.21850501 4.83871118 161.28900938 19.98990904 161.33224869 35.14134407 C161.35286052 42.17668436 161.3809544 49.21184521 161.42675781 56.24707031 C161.47093469 63.03571143 161.49413415 69.82416594 161.50450897 76.61294174 C161.51190311 79.20372325 161.52634194 81.79449449 161.54792023 84.38519669 C161.57693169 88.0123937 161.58095677 91.63881902 161.57910156 95.26611328 C161.59348267 96.33857803 161.60786377 97.41104279 161.62268066 98.51600647 C161.58927234 104.54740195 161.22730066 108.13842954 157.125 112.6875 C151.53277489 116.08669565 147.29412172 115.90448835 141.125 114.6875 C138.47353486 113.80777821 136.02591584 112.64952216 133.53125 111.3984375 C132.83506561 111.0634877 132.13888123 110.7285379 131.42160034 110.38343811 C129.92820884 109.66329255 128.43769379 108.93715608 126.94989014 108.20553589 C123.76036225 106.63739949 120.55682404 105.09893799 117.35360718 103.55900574 C115.70077308 102.76435394 114.04861584 101.96829283 112.39712524 101.17085266 C104.48924849 97.35875961 96.50519664 93.7269992 88.5 90.125 C77.88399151 85.33775816 67.32161881 80.44996421 56.79672241 75.46557617 C45.80156451 70.26055559 34.79202306 65.09332803 23.6875 60.125 C22.65109375 59.65352539 21.6146875 59.18205078 20.546875 58.69628906 C19.13341797 58.07125488 19.13341797 58.07125488 17.69140625 57.43359375 C16.46852905 56.88723267 16.46852905 56.88723267 15.22094727 56.32983398 C12.96769842 55.41753108 12.96769842 55.41753108 10.125 56.6875 C10.11469254 57.41190781 10.10438507 58.13631561 10.09376526 58.88267517 C9.99595232 65.69601902 9.89346141 72.509278 9.78566074 79.32247066 C9.73040045 82.82554355 9.67697566 86.32862473 9.62768555 89.83178711 C9.57099332 93.85540144 9.50642599 97.87885531 9.44140625 101.90234375 C9.41633751 103.79762062 9.41633751 103.79762062 9.39076233 105.73118591 C9.37081711 106.892314 9.35087189 108.05344208 9.33032227 109.24975586 C9.31477798 110.27789902 9.2992337 111.30604218 9.28321838 112.36534119 C9.125 114.6875 9.125 114.6875 8.125 115.6875 C6.62081261 115.78061889 5.11228644 115.80496028 3.60522461 115.80102539 C2.16384377 115.80091209 2.16384377 115.80091209 0.69334412 115.80079651 C-0.351436 115.79563522 -1.39621613 115.79047394 -2.47265625 115.78515625 C-3.53665146 115.7837413 -4.60064667 115.78232635 -5.69688416 115.78086853 C-9.11045083 115.77525064 -12.523953 115.76269511 -15.9375 115.75 C-18.24544176 115.74498731 -20.55338455 115.740424 -22.86132812 115.73632812 C-28.53257426 115.7252754 -34.20378253 115.70851987 -39.875 115.6875 C-39.99187858 100.40594354 -40.08001027 85.12440772 -40.13406086 69.8425045 C-40.15982634 62.74657613 -40.19494456 55.65092572 -40.25219727 48.55517578 C-40.30741655 41.70817047 -40.33641715 34.86145422 -40.34938622 28.01424026 C-40.35862926 25.40111367 -40.37667864 22.78800298 -40.40365028 20.17499924 C-40.43991345 16.51654575 -40.44494617 12.85928771 -40.44262695 9.20068359 C-40.46060333 8.1188681 -40.47857971 7.03705261 -40.49710083 5.92245483 C-40.4408039 -2.27734723 -40.4408039 -2.27734723 -37.53874207 -5.93832397 C-26.37652439 -15.88713619 -11.07110772 -5.40820278 0 0 Z " fill="#C72B48" transform="translate(557.875,55.3125)"/>
<path d="M0 0 C11.42054073 7.77523899 17.57946294 19.63751022 24.1171875 31.44140625 C24.51695801 32.15570801 24.91672852 32.87000977 25.32861328 33.60595703 C32.04764698 45.74059722 32.04764698 45.74059722 31.1171875 52.44140625 C30.28574219 53.4159375 29.45429688 54.39046875 28.59765625 55.39453125 C25.75856778 58.2708788 25.75856778 58.2708788 25.91796875 62.17578125 C26.06645324 63.51695285 26.23789702 64.85573963 26.4296875 66.19140625 C27.58095051 77.76997357 25.48345823 86.56001672 19.1171875 96.44140625 C15.24996125 100.89026333 10.98887764 104.8499401 6.50137329 108.66558838 C3.56606316 112.0830596 3.49629254 113.65898879 3.50537109 118.10839844 C3.49970627 118.75791473 3.49404144 119.40743103 3.48820496 120.07662964 C3.47475037 122.21444223 3.49561964 124.35054374 3.515625 126.48828125 C3.5101198 127.98416293 3.50199065 129.48003705 3.49136353 130.97589111 C3.46849554 134.91155205 3.4726853 138.84665739 3.48516846 142.78234863 C3.50347744 149.06631036 3.49330485 155.34994244 3.45930862 161.63382721 C3.4532536 163.81691385 3.46640593 165.99928187 3.48129272 168.18231201 C3.49593225 183.9951234 3.49593225 183.9951234 -1.15786743 190.11932373 C-3.67376025 192.58768991 -5.65813685 193.41548214 -9.1328125 193.81640625 C-16.37639831 191.16042479 -22.29400852 185.34250833 -26.03425598 178.61230469 C-27.73866029 174.25185424 -27.48670217 169.66295097 -27.4921875 165.0390625 C-27.50872375 163.96136093 -27.52526001 162.88365936 -27.54229736 161.77330017 C-27.59066456 158.35011022 -27.61212405 154.92736421 -27.6328125 151.50390625 C-27.66098149 149.17510801 -27.69091021 146.84633035 -27.72265625 144.51757812 C-27.79642049 138.82560112 -27.84812909 133.13374838 -27.8828125 127.44140625 C-35.41794004 130.37240589 -35.41794004 130.37240589 -42.734375 133.80078125 C-43.52328125 134.19394531 -44.3121875 134.58710938 -45.125 134.9921875 C-46.72607692 135.79797539 -48.3224105 136.61325164 -49.9140625 137.4375 C-55.19991729 140.04576605 -58.97641871 141.11550554 -64.8828125 140.44140625 C-69.01949059 137.11407822 -71.65909592 134.091316 -72.3828125 128.75390625 C-71.82780976 107.35161302 -53.65750345 84.22270912 -39.45849609 69.92919922 C-34.61464953 65.35553932 -29.20297249 61.43481029 -23.8828125 57.44140625 C-22.21091116 56.11464272 -20.54217843 54.78381464 -18.8828125 53.44140625 C-19.86950296 49.82354121 -21.4093349 47.77169223 -24.0703125 45.25390625 C-30.77910672 38.82581472 -36.32199366 31.49824974 -37.1953125 22.06640625 C-36.43336113 13.2277704 -32.42449146 7.36506563 -25.8828125 1.44140625 C-17.55258603 -4.04178079 -8.86882775 -4.95204973 0 0 Z " fill="#030202" transform="translate(100.8828125,16.55859375)"/>
<path d="M0 0 C2.73764829 0.01610668 5.47382113 0.0000259 8.21142578 -0.01904297 C23.77474521 -0.03917471 39.22735331 1.33995709 53.98876953 6.57861328 C54.85945068 6.8812207 55.73013184 7.18382812 56.62719727 7.49560547 C74.18152721 13.80502526 91.21114615 24.06063322 99.73486328 41.44189453 C104.99688048 53.65037069 107.07676494 69.35356328 102.26611328 82.14501953 C101.75757813 83.25683594 101.75757813 83.25683594 101.23876953 84.39111328 C100.84818359 85.26638672 100.45759766 86.14166016 100.05517578 87.04345703 C90.84009637 105.65635114 73.73592211 115.85009957 54.67703247 122.36445618 C38.67535317 127.57627203 22.76865049 128.90908311 6.00878906 128.8371582 C3.00532037 128.82866011 0.00377046 128.85752343 -2.99951172 128.88916016 C-32.21961682 128.99646082 -63.24124519 122.65337419 -84.76123047 101.39111328 C-95.8546194 87.98376592 -99.70268715 74.57697704 -98.76123047 57.39111328 C-96.44941371 42.02754362 -88.55515384 30.49089558 -76.62451172 20.75439453 C-54.23407434 4.37229255 -27.09780623 -0.18875057 0 0 Z M-66.76123047 41.39111328 C-73.12843413 49.77525724 -75.87671492 58.89139459 -74.76123047 69.39111328 C-72.58417819 80.97156785 -65.75394268 90.48987693 -56.17529297 97.20361328 C-39.1182521 107.81281833 -19.23037679 110.95361672 0.54101562 110.78222656 C2.73907443 110.76611105 4.93529593 110.78221592 7.13330078 110.80126953 C20.34336638 110.82182509 33.66628294 109.30310529 46.11376953 104.64111328 C47.16262329 104.25705322 47.16262329 104.25705322 48.23266602 103.86523438 C62.02522602 98.59352442 71.76167059 90.47917971 78.10986328 77.12548828 C81.52861629 68.84477166 81.22415848 60.26877504 78.36376953 51.82861328 C72.40301289 37.94785409 61.064626 30.47721863 47.64111328 24.89501953 C13.11565723 12.4510851 -40.2110539 12.56255028 -66.76123047 41.39111328 Z " fill="#C72C48" transform="translate(904.76123046875,43.60888671875)"/>
<path d="M0 0 C15.84 0 31.68 0 48 0 C48 41.58 48 83.16 48 126 C31.83 126 15.66 126 -1 126 C-1.02254705 109.71929388 -1.04097919 93.43860102 -1.05181217 77.15788364 C-1.05697512 69.59898381 -1.0640178 62.04009435 -1.07543945 54.48120117 C-1.08538632 47.89520334 -1.09185343 41.30921302 -1.09408849 34.72320789 C-1.0953956 31.23386929 -1.09848142 27.74455216 -1.10573006 24.25522041 C-1.11374398 20.36618768 -1.11399114 16.47717622 -1.11352539 12.58813477 C-1.11712067 11.42288773 -1.12071594 10.25764069 -1.12442017 9.05708313 C-1.1230455 8.00393921 -1.12167084 6.95079529 -1.12025452 5.86573792 C-1.12163721 4.48443113 -1.12163721 4.48443113 -1.12304783 3.07521915 C-1 1 -1 1 0 0 Z " fill="#C72C48" transform="translate(433,45)"/>
<path d="M0 0 C10.59585417 5.84175404 15.83312539 18.26980955 21.50634766 28.37890625 C24.09527542 32.92201322 26.90521275 37.32078874 29.70703125 41.734375 C31 44 31 44 31 46 C30.34 46 29.68 46 29 46 C27.625 44.6015625 27.625 44.6015625 26 42.625 C23.13954645 39.25204852 20.15130339 36.10326523 17 33 C14.00685888 30.04302977 11.11621449 27.06682509 8.375 23.875 C5.93237638 21.04639576 3.45230918 18.26963632 0.875 15.5625 C0.25367188 14.90378906 -0.36765625 14.24507812 -1.0078125 13.56640625 C-3.37565946 11.70462854 -5.00566379 11.19144117 -8 11 C-10.1675134 12.81022006 -10.1675134 12.81022006 -10.5 15.23828125 C-9.73932019 19.43984863 -7.0746613 21.38637275 -4 24.1875 C-1.95588935 26.09119314 0.03086776 28.01621648 2 30 C2 30.66 2 31.32 2 32 C2.66 32 3.32 32 4 32 C5.4453125 33.43359375 5.4453125 33.43359375 7.125 35.4375 C9.06816644 37.74577078 11.00683334 40.00711329 13.09765625 42.18359375 C19.81621922 49.22866632 23.12768296 55.60600323 23.5 65.4375 C23.16691355 74.57051554 20.56641929 82.34568714 14.28533936 89.09153748 C11.62864546 91.31011422 9.02547133 92.2460502 5.83691406 93.57055664 C1.66386392 95.9803389 0.25765414 97.10790447 -1.0958252 101.79415894 C-1.64584117 106.73117034 -1.5071274 111.66362625 -1.390625 116.62109375 C-1.39068137 118.44955695 -1.39602901 120.27802697 -1.40643311 122.10646057 C-1.4195851 126.90326118 -1.36115755 131.69658784 -1.28753662 136.49273682 C-1.22507501 141.39287578 -1.2306811 146.29289228 -1.23046875 151.19335938 C-1.22006518 160.79666581 -1.13400211 170.39767824 -1 180 C-2.08518111 179.08552154 -3.16804738 178.16829593 -4.25 177.25 C-4.85328125 176.73953125 -5.4565625 176.2290625 -6.078125 175.703125 C-6.71234375 175.14109375 -7.3465625 174.5790625 -8 174 C-8.72797791 173.40729309 -9.45595581 172.81458618 -10.20599365 172.20391846 C-12.64587879 169.20654451 -12.48337627 167.32229123 -12.45410156 163.48730469 C-12.45468567 162.84298492 -12.45526978 162.19866516 -12.45587158 161.53482056 C-12.45309334 159.41328323 -12.42201774 157.29316564 -12.390625 155.171875 C-12.38316159 153.69786344 -12.37746912 152.22384194 -12.37347412 150.74981689 C-12.3582254 146.87634733 -12.31895107 143.00348084 -12.2746582 139.13024902 C-12.23368852 135.17545733 -12.21545954 131.22056788 -12.1953125 127.265625 C-12.15245528 119.51014218 -12.08421422 111.7551557 -12 104 C-26.90823325 111.72892921 -26.90823325 111.72892921 -41.734375 119.61328125 C-42.59417969 120.07541016 -43.45398438 120.53753906 -44.33984375 121.01367188 C-46.02837784 121.92361934 -47.7129607 122.84091935 -49.39453125 123.76367188 C-50.22855469 124.20904297 -51.06257813 124.65441406 -51.921875 125.11328125 C-52.63956055 125.50298096 -53.35724609 125.89268066 -54.09667969 126.29418945 C-56 127 -56 127 -59 126 C-50.25102834 95.9394307 -35.07327719 71.7416923 -8 55 C-7.09507813 54.42765625 -6.19015625 53.8553125 -5.2578125 53.265625 C-3 52 -3 52 -1 52 C-1 63.22 -1 74.44 -1 86 C4.58926692 82.27382206 8.47907087 79.22186763 11 73 C11.82793656 65.92332122 12.24539228 58.88097776 7.81640625 52.98828125 C4.56411949 49.42825122 1.17428765 46.02435126 -2.2890625 42.671875 C-5.1550586 39.84717568 -7.77614005 36.89943566 -10.375 33.83203125 C-12.07419645 31.91635064 -13.88444793 30.19034163 -15.75 28.4375 C-19.45593257 24.73991413 -21.92357417 21.16621294 -22.0546875 15.734375 C-21.70979224 11.20575025 -21.0224151 7.52615094 -18 4 C-11.84116964 -0.21544073 -7.27673952 -2.19864676 0 0 Z " fill="#C22B47" transform="translate(90,18)"/>
<path d="M0 0 C0.98484375 -0.00128906 1.9696875 -0.00257812 2.984375 -0.00390625 C4.02078125 -0.00003906 5.0571875 0.00382812 6.125 0.0078125 C7.67960938 0.00201172 7.67960938 0.00201172 9.265625 -0.00390625 C10.25046875 -0.00261719 11.2353125 -0.00132813 12.25 0 C13.16007813 0.00112793 14.07015625 0.00225586 15.0078125 0.00341797 C17.125 0.1328125 17.125 0.1328125 18.125 1.1328125 C18.22103022 2.7523759 18.24687855 4.37614333 18.24525452 5.99855042 C18.24662918 7.05169434 18.24800385 8.10483826 18.24942017 9.18989563 C18.24582489 10.35514267 18.24222961 11.52038971 18.23852539 12.72094727 C18.23867142 13.94028961 18.23881744 15.15963196 18.2389679 16.41592407 C18.23838893 19.76908761 18.23335968 23.12219024 18.22639394 26.47534299 C18.22015983 29.97606812 18.21955656 33.47679398 18.21836853 36.9775238 C18.21525538 43.61090906 18.20704222 50.24427791 18.19701904 56.87765592 C18.18585739 64.42771457 18.18034732 71.97777399 18.17532361 79.52783883 C18.16485959 95.06283956 18.14726047 110.59782392 18.125 126.1328125 C14.31251574 126.16168486 10.5000593 126.17956742 6.6875 126.1953125 C5.59888672 126.20369141 4.51027344 126.21207031 3.38867188 126.22070312 C2.35419922 126.22392578 1.31972656 126.22714844 0.25390625 126.23046875 C-0.70443115 126.23570557 -1.66276855 126.24094238 -2.65014648 126.24633789 C-4.875 126.1328125 -4.875 126.1328125 -5.875 125.1328125 C-5.97317208 123.52824059 -6.00131921 121.91933976 -6.00198364 120.31176758 C-6.00480347 119.26848297 -6.00762329 118.22519836 -6.01052856 117.15029907 C-6.00850433 115.99597382 -6.0064801 114.84164856 -6.00439453 113.65234375 C-6.00614685 112.44436127 -6.00789917 111.23637878 -6.00970459 109.99179077 C-6.01336278 106.66955296 -6.01248968 103.34737707 -6.0093255 100.02514267 C-6.00680152 96.55557926 -6.00913955 93.08601858 -6.01071167 89.61645508 C-6.01253325 83.78889488 -6.01012735 77.96134734 -6.00537109 72.13378906 C-5.99992849 65.38719958 -6.00169116 58.64064031 -6.0071975 51.89405155 C-6.01172895 46.11147076 -6.01237902 40.32889909 -6.00975883 34.5463171 C-6.00819623 31.08829694 -6.00800182 27.63029099 -6.01129532 24.17227173 C-6.01470839 20.31926286 -6.00998377 16.46628811 -6.00439453 12.61328125 C-6.00641876 11.45895599 -6.00844299 10.30463074 -6.01052856 9.11532593 C-6.00770874 8.07204132 -6.00488892 7.02875671 -6.00198364 5.95385742 C-6.00160662 5.04165939 -6.00122959 4.12946136 -6.00084114 3.18962097 C-5.75674783 -0.79995812 -3.45295126 0.00427951 0 0 Z " fill="#C62B47" transform="translate(760.875,44.8671875)"/>
<path d="M0 0 C0 6.6 0 13.2 0 20 C-3.6623809 22.01965789 -7.3267242 24.0341424 -10.99853516 26.03637695 C-12.24751226 26.7193656 -13.49491985 27.40523245 -14.74072266 28.09399414 C-16.52885332 29.081947 -18.32232197 30.05950521 -20.1171875 31.03515625 C-21.19597168 31.6269165 -22.27475586 32.21867676 -23.38623047 32.82836914 C-24.24877441 33.21500732 -25.11131836 33.60164551 -26 34 C-26.66 33.67 -27.32 33.34 -28 33 C-22.64967679 22.33988633 -15.96133303 13.82735802 -7.625 5.375 C-7.10083496 4.84140869 -6.57666992 4.30781738 -6.03662109 3.75805664 C-2.24581046 0 -2.24581046 0 0 0 Z " fill="#020000" transform="translate(78,90)"/>
<path d="M0 0 C0.99 0.33 1.98 0.66 3 1 C1.99582031 1.71542969 0.99164063 2.43085937 -0.04296875 3.16796875 C-22.40938667 19.35021235 -37.9176799 38.1857145 -46 65 C-46.66 65 -47.32 65 -48 65 C-48.48943566 59.42392943 -46.89718664 55.75193998 -44.5 50.875 C-44.13688721 50.12508789 -43.77377441 49.37517578 -43.3996582 48.60253906 C-34.29261139 30.21138036 -18.594929 9.60969278 0 0 Z " fill="#0D0C0C" transform="translate(80,72)"/>
<path d="M0 0 C0 3.18111969 -0.59460353 4.75579038 -1.875 7.625 C-2.22304687 8.42164063 -2.57109375 9.21828125 -2.9296875 10.0390625 C-4 12 -4 12 -6 13 C-5.58221009 7.2902045 -3.42453429 4.39042858 0 0 Z " fill="#0D0D0D" transform="translate(71,22)"/>
</svg>
