<?xml version="1.0" encoding="UTF-8"?>
<!DOCTYPE svg PUBLIC "-//W3C//DTD SVG 1.1//EN" "http://www.w3.org/Graphics/SVG/1.1/DTD/svg11.dtd">
<svg xmlns="http://www.w3.org/2000/svg" version="1.1" width="245px" height="116px" style="shape-rendering:geometricPrecision; text-rendering:geometricPrecision; image-rendering:optimizeQuality; fill-rule:evenodd; clip-rule:evenodd" xmlns:xlink="http://www.w3.org/1999/xlink">
<g><path style="opacity:1" fill="#fdfdfd" d="M -0.5,-0.5 C 81.1667,-0.5 162.833,-0.5 244.5,-0.5C 244.5,38.1667 244.5,76.8333 244.5,115.5C 162.833,115.5 81.1667,115.5 -0.5,115.5C -0.5,76.8333 -0.5,38.1667 -0.5,-0.5 Z"/></g>
<g><path style="opacity:1" fill="#767676" d="M 166.5,6.5 C 166.685,4.80422 167.519,3.47088 169,2.5C 169.279,4.41224 168.446,5.74557 166.5,6.5 Z"/></g>
<g><path style="opacity:1" fill="#474747" d="M 166.5,6.5 C 166.262,8.40435 165.262,9.73769 163.5,10.5C 163.738,8.59565 164.738,7.26231 166.5,6.5 Z"/></g>
<g><path style="opacity:1" fill="#171717" d="M 163.5,10.5 C 153.892,25.535 143.892,40.3683 133.5,55C 140.5,64.6667 147.5,74.3333 154.5,84C 152.299,84.8249 150.466,84.3249 149,82.5C 143.411,74.3227 137.578,66.3227 131.5,58.5C 124.786,66.3871 118.62,74.7205 113,83.5C 111.506,84.7472 110.006,84.7472 108.5,83.5C 115.765,74.4046 122.432,64.9046 128.5,55C 122.543,45.5891 116.209,36.4224 109.5,27.5C 110.833,26.1667 112.167,26.1667 113.5,27.5C 119.147,35.8067 125.147,43.8067 131.5,51.5C 141.451,37.2597 152.118,23.593 163.5,10.5 Z"/></g>
<g><path style="opacity:1" fill="#111111" d="M 23.5,32.5 C 23.44,31.9569 23.1067,31.6236 22.5,31.5C 21.5005,49.1541 21.1671,66.8208 21.5,84.5C 20.5,84.5 19.5,84.5 18.5,84.5C 18.5,65.1667 18.5,45.8333 18.5,26.5C 21.3252,26.1616 23.4918,27.1616 25,29.5C 41.2744,54.772 57.9411,79.772 75,104.5C 75.2812,106.905 74.6146,106.905 73,104.5C 56.2432,80.645 39.7432,56.645 23.5,32.5 Z"/></g>
<g><path style="opacity:1" fill="#606060" d="M 105.5,27.5 C 92.8333,27.5 80.1667,27.5 67.5,27.5C 67.5,46.5 67.5,65.5 67.5,84.5C 66.503,65.3405 66.1697,46.0072 66.5,26.5C 79.6774,26.1712 92.6774,26.5045 105.5,27.5 Z"/></g>
<g><path style="opacity:1" fill="#0f0f0f" d="M 105.5,27.5 C 94.2146,29.4784 82.5479,30.1451 70.5,29.5C 70.5,37.5 70.5,45.5 70.5,53.5C 81.5,53.5 92.5,53.5 103.5,53.5C 103.5,54.5 103.5,55.5 103.5,56.5C 92.5,56.5 81.5,56.5 70.5,56.5C 70.5,64.8333 70.5,73.1667 70.5,81.5C 82.1667,81.5 93.8333,81.5 105.5,81.5C 105.5,82.5 105.5,83.5 105.5,84.5C 92.8333,84.5 80.1667,84.5 67.5,84.5C 67.5,65.5 67.5,46.5 67.5,27.5C 80.1667,27.5 92.8333,27.5 105.5,27.5 Z"/></g>
<g><path style="opacity:1" fill="#171717" d="M 177.5,84.5 C 177.5,66.1667 177.5,47.8333 177.5,29.5C 170.5,29.5 163.5,29.5 156.5,29.5C 156.5,28.5 156.5,27.5 156.5,26.5C 171.167,26.5 185.833,26.5 200.5,26.5C 200.5,27.5 200.5,28.5 200.5,29.5C 193.833,29.5 187.167,29.5 180.5,29.5C 180.5,47.8333 180.5,66.1667 180.5,84.5C 179.5,84.5 178.5,84.5 177.5,84.5 Z"/></g>
<g><path style="opacity:1" fill="#595959" d="M 156.5,29.5 C 163.5,29.5 170.5,29.5 177.5,29.5C 177.5,47.8333 177.5,66.1667 177.5,84.5C 176.503,66.6744 176.17,48.6744 176.5,30.5C 169.646,30.824 162.979,30.4907 156.5,29.5 Z"/></g>
<g><path style="opacity:1" fill="#5f5f5f" d="M 23.5,32.5 C 22.8333,49.8333 22.1667,67.1667 21.5,84.5C 21.1671,66.8208 21.5005,49.1541 22.5,31.5C 23.1067,31.6236 23.44,31.9569 23.5,32.5 Z"/></g>
<g><path style="opacity:1" fill="#242424" d="M 216.5,67.5 C 218.936,67.317 221.103,67.9837 223,69.5C 223.688,70.3317 223.521,70.9984 222.5,71.5C 220.359,68.9814 218.359,68.9814 216.5,71.5C 218.566,72.9063 220.732,74.2396 223,75.5C 223.595,76.8989 223.428,78.2322 222.5,79.5C 219.966,80.7766 217.466,80.7766 215,79.5C 214.312,78.6683 214.479,78.0016 215.5,77.5C 217.641,80.0186 219.641,80.0186 221.5,77.5C 219.434,76.0937 217.268,74.7604 215,73.5C 214.252,71.1599 214.752,69.1599 216.5,67.5 Z"/></g>
<g><path style="opacity:1" fill="#151515" d="M 199.5,78.5 C 201.337,78.6395 201.67,79.3061 200.5,80.5C 199.702,80.0431 199.369,79.3764 199.5,78.5 Z"/></g>
<g><path style="opacity:1" fill="#151515" d="M 209.5,68.5 C 210.777,69.6936 211.444,71.3603 211.5,73.5C 212.49,79.168 210.157,81.5014 204.5,80.5C 204.262,76.9007 205.262,76.5673 207.5,79.5C 208.086,79.2907 208.586,78.9574 209,78.5C 209.498,75.1832 209.665,71.8499 209.5,68.5 Z"/></g>
</svg>
