<?xml version="1.0" encoding="UTF-8"?>
<!DOCTYPE svg PUBLIC "-//W3C//DTD SVG 1.1//EN" "http://www.w3.org/Graphics/SVG/1.1/DTD/svg11.dtd">
<svg xmlns="http://www.w3.org/2000/svg" version="1.1" width="694px" height="268px" style="shape-rendering:geometricPrecision; text-rendering:geometricPrecision; image-rendering:optimizeQuality; fill-rule:evenodd; clip-rule:evenodd" xmlns:xlink="http://www.w3.org/1999/xlink">
<g><path style="opacity:1" fill="#fefefe" d="M -0.5,-0.5 C 230.833,-0.5 462.167,-0.5 693.5,-0.5C 693.5,88.8333 693.5,178.167 693.5,267.5C 462.167,267.5 230.833,267.5 -0.5,267.5C -0.5,178.167 -0.5,88.8333 -0.5,-0.5 Z"/></g>
<g><path style="opacity:1" fill="#c7c7c7" d="M 223.5,62.5 C 182.499,62.3333 141.499,62.5 100.5,63C 97.1484,63.8379 93.8151,64.6712 90.5,65.5C 90.4701,64.5028 90.9701,63.8361 92,63.5C 94.1351,62.8729 96.3018,62.3729 98.5,62C 140.335,61.1687 182.002,61.3353 223.5,62.5 Z"/></g>
<g><path style="opacity:1" fill="#9c9c9c" d="M 223.5,62.5 C 226.739,63.8225 230.072,65.1558 233.5,66.5C 235.639,69.4741 237.972,72.3074 240.5,75C 241.939,77.7047 242.939,80.538 243.5,83.5C 244.494,125.761 244.827,168.094 244.5,210.5C 242.384,213.073 241.05,216.073 240.5,219.5C 237.014,223.289 233.014,226.455 228.5,229C 182.429,229.828 136.429,229.661 90.5,228.5C 85.1368,224.785 81.4701,219.785 79.5,213.5C 78.3493,169.862 78.1826,126.196 79,82.5C 79.813,80.5643 80.313,78.5643 80.5,76.5C 81.5346,70.6681 84.8679,67.0014 90.5,65.5C 93.8151,64.6712 97.1484,63.8379 100.5,63C 141.499,62.5 182.499,62.3333 223.5,62.5 Z"/></g>
<g><path style="opacity:1" fill="#cbcbcb" d="M 224.5,70.5 C 181.507,69.1778 138.507,69.1778 95.5,70.5C 95.6107,69.8826 95.944,69.3826 96.5,69C 138.167,68.3333 179.833,68.3333 221.5,69C 222.737,69.2321 223.737,69.7321 224.5,70.5 Z"/></g>
<g><path style="opacity:1" fill="#eeeeee" d="M 224.5,70.5 C 229.444,72.3451 233.11,75.6784 235.5,80.5C 236.78,101.317 236.78,121.984 235.5,142.5C 234.197,140.858 232.864,139.191 231.5,137.5C 231.389,136.883 231.056,136.383 230.5,136C 210.996,135.171 191.662,135.338 172.5,136.5C 170.215,137.957 168.382,139.957 167,142.5C 166.501,146.152 166.335,149.818 166.5,153.5C 159.5,153.5 152.5,153.5 145.5,153.5C 145.5,145.833 145.5,138.167 145.5,130.5C 157.186,130.832 168.852,130.499 180.5,129.5C 181.193,128.482 181.859,127.482 182.5,126.5C 183.117,126.389 183.617,126.056 184,125.5C 184.667,110.167 184.667,94.8333 184,79.5C 182.649,77.981 181.149,76.6477 179.5,75.5C 152.173,74.3335 124.839,74.1668 97.5,75C 95.1898,76.6374 93.6898,78.804 93,81.5C 92.3333,95.1667 92.3333,108.833 93,122.5C 93.3333,123.833 93.6667,125.167 94,126.5C 95.6516,127.399 97.1516,128.399 98.5,129.5C 105.313,130.491 112.313,130.825 119.5,130.5C 119.5,144.5 119.5,158.5 119.5,172.5C 111.826,172.334 104.159,172.5 96.5,173C 95.944,173.383 95.6107,173.883 95.5,174.5C 94.1667,175.167 93.1667,176.167 92.5,177.5C 91.8826,177.611 91.3826,177.944 91,178.5C 90.1751,188.675 90.3417,198.675 91.5,208.5C 92.2775,211.112 93.9441,212.945 96.5,214C 114.167,214.667 131.833,214.667 149.5,214C 152,212.833 153.833,211 155,208.5C 155.667,198.833 155.667,189.167 155,179.5C 153.64,176.977 151.807,174.977 149.5,173.5C 142.352,172.508 135.019,172.175 127.5,172.5C 127.5,158.5 127.5,144.5 127.5,130.5C 130.833,130.5 134.167,130.5 137.5,130.5C 137.173,140.348 137.506,150.014 138.5,159.5C 138.611,160.117 138.944,160.617 139.5,161C 148.827,161.5 158.161,161.666 167.5,161.5C 167.334,165.514 167.501,169.514 168,173.5C 168.792,175.587 169.959,177.421 171.5,179C 190.833,179.667 210.167,179.667 229.5,179C 231.062,177.366 232.729,175.866 234.5,174.5C 235.117,174.389 235.617,174.056 236,173.5C 236.5,185.829 236.667,198.162 236.5,210.5C 235.648,213.223 234.481,215.89 233,218.5C 230.176,219.818 227.676,221.485 225.5,223.5C 182.876,224.489 140.209,224.822 97.5,224.5C 90.6194,220.78 86.1194,215.113 84,207.5C 83.3333,167.167 83.3333,126.833 84,86.5C 84.8894,79.1022 88.7228,73.7689 95.5,70.5C 138.507,69.1778 181.507,69.1778 224.5,70.5 Z"/></g>
<g><path style="opacity:1" fill="#9c9c9c" d="M 182.5,126.5 C 180.804,126.685 179.471,127.519 178.5,129C 167.172,129.5 155.838,129.667 144.5,129.5C 144.5,137.833 144.5,146.167 144.5,154.5C 152.019,154.825 159.352,154.492 166.5,153.5C 166.335,149.818 166.501,146.152 167,142.5C 168.382,139.957 170.215,137.957 172.5,136.5C 192.213,136.191 211.879,136.524 231.5,137.5C 232.864,139.191 234.197,140.858 235.5,142.5C 235.787,153.218 235.454,163.885 234.5,174.5C 232.729,175.866 231.062,177.366 229.5,179C 210.167,179.667 190.833,179.667 171.5,179C 169.959,177.421 168.792,175.587 168,173.5C 167.501,169.514 167.334,165.514 167.5,161.5C 158.161,161.666 148.827,161.5 139.5,161C 138.944,160.617 138.611,160.117 138.5,159.5C 138.5,149.5 138.5,139.5 138.5,129.5C 134.5,129.5 130.5,129.5 126.5,129.5C 126.5,144.167 126.5,158.833 126.5,173.5C 134.167,173.5 141.833,173.5 149.5,173.5C 151.807,174.977 153.64,176.977 155,179.5C 155.667,189.167 155.667,198.833 155,208.5C 153.833,211 152,212.833 149.5,214C 131.833,214.667 114.167,214.667 96.5,214C 93.9441,212.945 92.2775,211.112 91.5,208.5C 91.2145,198.115 91.5478,187.782 92.5,177.5C 93.1667,176.167 94.1667,175.167 95.5,174.5C 103.779,173.56 112.112,173.227 120.5,173.5C 120.5,158.833 120.5,144.167 120.5,129.5C 113.167,129.5 105.833,129.5 98.5,129.5C 97.1516,128.399 95.6516,127.399 94,126.5C 93.6667,125.167 93.3333,123.833 93,122.5C 92.3333,108.833 92.3333,95.1667 93,81.5C 93.6898,78.804 95.1898,76.6374 97.5,75C 124.839,74.1668 152.173,74.3335 179.5,75.5C 181.149,76.6477 182.649,77.981 184,79.5C 184.667,94.8333 184.667,110.167 184,125.5C 183.617,126.056 183.117,126.389 182.5,126.5 Z"/></g>
<g><path style="opacity:1" fill="#acacac" d="M 80.5,76.5 C 80.313,78.5643 79.813,80.5643 79,82.5C 78.1826,126.196 78.3493,169.862 79.5,213.5C 79.1667,213.5 78.8333,213.5 78.5,213.5C 77.5057,170.239 77.1724,126.906 77.5,83.5C 77.643,80.6148 78.643,78.2815 80.5,76.5 Z"/></g>
<g><path style="opacity:1" fill="#e7e7e7" d="M 77.5,83.5 C 77.1724,126.906 77.5057,170.239 78.5,213.5C 77.0689,213.119 76.2355,212.119 76,210.5C 75.8333,189.333 75.6667,168.167 75.5,147C 75.5003,125.489 76.167,104.323 77.5,83.5 Z"/></g>
<g><path style="opacity:1" fill="#bbbbbb" d="M 243.5,83.5 C 244.833,104.323 245.5,125.489 245.5,147C 245.5,168.336 245.167,189.503 244.5,210.5C 244.827,168.094 244.494,125.761 243.5,83.5 Z"/></g>
<g><path style="opacity:1" fill="#010101" d="M 315.5,85.5 C 315.5,102.167 315.5,118.833 315.5,135.5C 313.833,135.5 312.167,135.5 310.5,135.5C 310.5,118.833 310.5,102.167 310.5,85.5C 312.167,85.5 313.833,85.5 315.5,85.5 Z"/></g>
<g><path style="opacity:1" fill="#606060" d="M 315.5,85.5 C 316.497,102.325 316.83,119.325 316.5,136.5C 314.265,136.795 312.265,136.461 310.5,135.5C 312.167,135.5 313.833,135.5 315.5,135.5C 315.5,118.833 315.5,102.167 315.5,85.5 Z"/></g>
<g><path style="opacity:1" fill="#808080" d="M 295.5,89.5 C 287.315,87.7167 278.982,87.0501 270.5,87.5C 270.5,103.5 270.5,119.5 270.5,135.5C 269.504,119.342 269.17,103.009 269.5,86.5C 277.174,86.3336 284.841,86.5003 292.5,87C 294.119,87.2355 295.119,88.0689 295.5,89.5 Z"/></g>
<g><path style="opacity:1" fill="#585858" d="M 458.5,91.5 C 463.975,90.5111 469.642,90.1778 475.5,90.5C 475.5,89.5 475.5,88.5 475.5,87.5C 462.167,87.5 448.833,87.5 435.5,87.5C 435.5,88.5 435.5,89.5 435.5,90.5C 441.358,90.1778 447.025,90.5111 452.5,91.5C 446.5,91.5 440.5,91.5 434.5,91.5C 434.5,89.8333 434.5,88.1667 434.5,86.5C 448.5,86.5 462.5,86.5 476.5,86.5C 476.5,88.1667 476.5,89.8333 476.5,91.5C 470.5,91.5 464.5,91.5 458.5,91.5 Z"/></g>
<g><path style="opacity:1" fill="#080808" d="M 295.5,89.5 C 296.167,89.5 296.5,89.8333 296.5,90.5C 299.924,95.2344 301.258,100.568 300.5,106.5C 299.449,108.929 298.116,111.262 296.5,113.5C 290.127,116.122 283.461,117.122 276.5,116.5C 275.51,122.645 275.177,128.978 275.5,135.5C 273.833,135.5 272.167,135.5 270.5,135.5C 270.5,119.5 270.5,103.5 270.5,87.5C 278.982,87.0501 287.315,87.7167 295.5,89.5 Z"/></g>
<g><path style="opacity:1" fill="#0e0e0e" d="M 458.5,91.5 C 458.5,106.167 458.5,120.833 458.5,135.5C 456.5,135.5 454.5,135.5 452.5,135.5C 452.5,120.833 452.5,106.167 452.5,91.5C 447.025,90.5111 441.358,90.1778 435.5,90.5C 435.5,89.5 435.5,88.5 435.5,87.5C 448.833,87.5 462.167,87.5 475.5,87.5C 475.5,88.5 475.5,89.5 475.5,90.5C 469.642,90.1778 463.975,90.5111 458.5,91.5 Z"/></g>
<g><path style="opacity:1" fill="#101010" d="M 414.5,88.5 C 416.167,88.5 417.833,88.5 419.5,88.5C 419.187,92.0419 419.521,95.3752 420.5,98.5C 423.962,99.4816 427.629,99.815 431.5,99.5C 431.5,100.5 431.5,101.5 431.5,102.5C 427.629,102.185 423.962,102.518 420.5,103.5C 420.334,112.173 420.5,120.84 421,129.5C 424.149,131.362 427.649,132.029 431.5,131.5C 431.5,132.833 431.5,134.167 431.5,135.5C 427.069,135.769 422.735,135.436 418.5,134.5C 417.167,133.833 416.167,132.833 415.5,131.5C 414.551,121.886 414.218,112.219 414.5,102.5C 413.167,102.5 411.833,102.5 410.5,102.5C 410.5,101.5 410.5,100.5 410.5,99.5C 411.791,99.7373 412.791,99.404 413.5,98.5C 414.479,95.3752 414.813,92.0419 414.5,88.5 Z"/></g>
<g><path style="opacity:1" fill="#898989" d="M 414.5,88.5 C 416.265,87.5386 418.265,87.2053 420.5,87.5C 420.5,91.1667 420.5,94.8333 420.5,98.5C 419.521,95.3752 419.187,92.0419 419.5,88.5C 417.833,88.5 416.167,88.5 414.5,88.5 Z"/></g>
<g><path style="opacity:1" fill="#050505" d="M 555.5,98.5 C 558.962,99.4816 562.629,99.815 566.5,99.5C 566.5,100.5 566.5,101.5 566.5,102.5C 562.5,102.5 558.5,102.5 554.5,102.5C 554.173,111.682 554.507,120.682 555.5,129.5C 558.831,131.298 562.498,131.964 566.5,131.5C 566.5,132.833 566.5,134.167 566.5,135.5C 562.486,135.666 558.486,135.499 554.5,135C 552.676,134.34 551.343,133.173 550.5,131.5C 549.551,121.886 549.218,112.219 549.5,102.5C 548.167,102.5 546.833,102.5 545.5,102.5C 545.5,101.5 545.5,100.5 545.5,99.5C 546.791,99.7373 547.791,99.404 548.5,98.5C 549.479,95.3752 549.813,92.0419 549.5,88.5C 551.167,88.5 552.833,88.5 554.5,88.5C 554.187,92.0419 554.521,95.3752 555.5,98.5 Z"/></g>
<g><path style="opacity:1" fill="#595959" d="M 276.5,91.5 C 280.646,90.353 284.98,90.1864 289.5,91C 290.056,91.3826 290.389,91.8826 290.5,92.5C 289.391,92.4431 288.391,92.1098 287.5,91.5C 283.833,91.5 280.167,91.5 276.5,91.5 Z"/></g>
<g><path style="opacity:1" fill="#676767" d="M 276.5,91.5 C 276.5,98.1667 276.5,104.833 276.5,111.5C 280.833,111.5 285.167,111.5 289.5,111.5C 285.03,112.486 280.363,112.819 275.5,112.5C 275.175,105.313 275.509,98.3134 276.5,91.5 Z"/></g>
<g><path style="opacity:1" fill="#fdfdfd" d="M 276.5,91.5 C 280.167,91.5 283.833,91.5 287.5,91.5C 293.889,94.9769 295.889,100.31 293.5,107.5C 292.661,109.384 291.328,110.717 289.5,111.5C 285.167,111.5 280.833,111.5 276.5,111.5C 276.5,104.833 276.5,98.1667 276.5,91.5 Z"/></g>
<g><path style="opacity:1" fill="#bbbbbb" d="M 287.5,91.5 C 288.391,92.1098 289.391,92.4431 290.5,92.5C 292.752,92.9156 294.252,94.249 295,96.5C 295.667,99.5 295.667,102.5 295,105.5C 294.722,106.416 294.222,107.082 293.5,107.5C 295.889,100.31 293.889,94.9769 287.5,91.5 Z"/></g>
<g><path style="opacity:1" fill="#ababab" d="M 348.5,97.5 C 342.773,97.2598 337.106,97.5931 331.5,98.5C 331.611,97.8826 331.944,97.3826 332.5,97C 338.016,96.1826 343.35,96.3493 348.5,97.5 Z"/></g>
<g><path style="opacity:1" fill="#acacac" d="M 394.5,97.5 C 390.434,97.307 386.434,97.6403 382.5,98.5C 382.611,97.8826 382.944,97.3826 383.5,97C 387.358,96.1901 391.024,96.3567 394.5,97.5 Z"/></g>
<g><path style="opacity:1" fill="#adadad" d="M 491.5,98.5 C 486.833,97.1667 482.167,97.1667 477.5,98.5C 477.611,97.8826 477.944,97.3826 478.5,97C 480.667,96.8333 482.833,96.6667 485,96.5C 487.61,96.5332 489.777,97.1999 491.5,98.5 Z"/></g>
<g><path style="opacity:1" fill="#0f0f0f" d="M 348.5,97.5 C 349.209,98.404 350.209,98.7373 351.5,98.5C 351.973,99.9063 352.973,100.573 354.5,100.5C 354.833,101.167 355.167,101.833 355.5,102.5C 356.511,104.372 357.345,106.372 358,108.5C 358.5,117.494 358.666,126.494 358.5,135.5C 356.833,135.5 355.167,135.5 353.5,135.5C 353.785,133.712 353.452,132.045 352.5,130.5C 351.702,130.957 351.369,131.624 351.5,132.5C 349.938,132.733 348.605,133.4 347.5,134.5C 343.167,135.833 338.833,135.833 334.5,134.5C 331.833,133.833 330.167,132.167 329.5,129.5C 328.167,125.833 328.167,122.167 329.5,118.5C 331.54,116.823 333.54,115.156 335.5,113.5C 336.167,113.5 336.5,113.167 336.5,112.5C 342.167,112.5 347.833,112.5 353.5,112.5C 353.662,110.473 353.495,108.473 353,106.5C 352.617,105.944 352.117,105.611 351.5,105.5C 351.027,104.094 350.027,103.427 348.5,103.5C 348.389,102.883 348.056,102.383 347.5,102C 342.143,101.043 336.976,101.543 332,103.5C 331.506,101.866 331.34,100.199 331.5,98.5C 337.106,97.5931 342.773,97.2598 348.5,97.5 Z"/></g>
<g><path style="opacity:1" fill="#919191" d="M 351.5,98.5 C 353.027,98.427 354.027,99.0937 354.5,100.5C 352.973,100.573 351.973,99.9063 351.5,98.5 Z"/></g>
<g><path style="opacity:1" fill="#080808" d="M 394.5,97.5 C 394.5,98.1667 394.833,98.5 395.5,98.5C 395.973,99.9063 396.973,100.573 398.5,100.5C 399.401,101.29 400.068,102.29 400.5,103.5C 401.454,114.115 401.787,124.782 401.5,135.5C 399.833,135.5 398.167,135.5 396.5,135.5C 396.666,125.828 396.5,116.161 396,106.5C 395.617,105.944 395.117,105.611 394.5,105.5C 394.167,104.833 393.833,104.167 393.5,103.5C 391.71,102.003 389.544,101.336 387,101.5C 385.5,101.667 384,101.833 382.5,102C 381.944,102.383 381.611,102.883 381.5,103.5C 379.738,104.262 378.738,105.596 378.5,107.5C 376.528,116.44 375.861,125.773 376.5,135.5C 374.833,135.5 373.167,135.5 371.5,135.5C 371.5,123.5 371.5,111.5 371.5,99.5C 373.167,99.5 374.833,99.5 376.5,99.5C 376.238,100.978 376.571,102.311 377.5,103.5C 379.521,102.145 381.188,100.479 382.5,98.5C 386.434,97.6403 390.434,97.307 394.5,97.5 Z"/></g>
<g><path style="opacity:1" fill="#808080" d="M 395.5,98.5 C 397.027,98.427 398.027,99.0937 398.5,100.5C 396.973,100.573 395.973,99.9063 395.5,98.5 Z"/></g>
<g><path style="opacity:1" fill="#111111" d="M 491.5,98.5 C 494.431,100.091 497.098,102.091 499.5,104.5C 499.41,107.152 500.076,109.485 501.5,111.5C 501.5,113.5 501.5,115.5 501.5,117.5C 492.167,117.5 482.833,117.5 473.5,117.5C 473.5,118.833 473.5,120.167 473.5,121.5C 473.66,123.153 474.326,124.486 475.5,125.5C 476.283,127.328 477.616,128.661 479.5,129.5C 479.611,130.117 479.944,130.617 480.5,131C 482.833,131.167 485.167,131.333 487.5,131.5C 491.141,131.685 494.474,131.019 497.5,129.5C 497.833,129.5 498.167,129.5 498.5,129.5C 499.434,130.568 499.768,131.901 499.5,133.5C 496.848,133.41 494.515,134.076 492.5,135.5C 488.102,135.706 483.768,135.373 479.5,134.5C 478.448,134.649 477.448,134.483 476.5,134C 474.63,131.96 472.63,130.127 470.5,128.5C 470.073,125.99 469.407,123.657 468.5,121.5C 468.437,116.797 468.771,112.13 469.5,107.5C 469.833,106.833 470.167,106.167 470.5,105.5C 472.833,103.833 474.833,101.833 476.5,99.5C 476.5,98.8333 476.833,98.5 477.5,98.5C 482.167,97.1667 486.833,97.1667 491.5,98.5 Z"/></g>
<g><path style="opacity:1" fill="#515151" d="M 513.5,99.5 C 511.219,99.0773 509.552,99.744 508.5,101.5C 507.522,101.189 506.855,100.522 506.5,99.5C 508.973,98.2031 511.307,98.2031 513.5,99.5 Z"/></g>
<g><path style="opacity:1" fill="#535353" d="M 532.5,99.5 C 534.693,98.2031 537.027,98.2031 539.5,99.5C 539.376,100.107 539.043,100.44 538.5,100.5C 536.735,99.5386 534.735,99.2053 532.5,99.5 Z"/></g>
<g><path style="opacity:1" fill="#8f8f8f" d="M 331.5,98.5 C 331.34,100.199 331.506,101.866 332,103.5C 336.976,101.543 342.143,101.043 347.5,102C 348.056,102.383 348.389,102.883 348.5,103.5C 342.403,102.066 336.403,102.4 330.5,104.5C 330.205,102.265 330.539,100.265 331.5,98.5 Z"/></g>
<g><path style="opacity:1" fill="#131313" d="M 513.5,99.5 C 516.185,102.19 518.518,105.19 520.5,108.5C 520.418,110.252 521.251,111.252 523,111.5C 524.749,111.252 525.582,110.252 525.5,108.5C 527.537,105.147 529.87,102.147 532.5,99.5C 534.735,99.2053 536.735,99.5386 538.5,100.5C 538.5,101.167 538.167,101.5 537.5,101.5C 536.326,102.514 535.66,103.847 535.5,105.5C 533.478,106.507 532.145,108.174 531.5,110.5C 530.017,112.094 528.517,113.76 527,115.5C 526.227,117.352 526.727,118.686 528.5,119.5C 530.833,122.833 533.167,126.167 535.5,129.5C 535.427,131.027 536.094,132.027 537.5,132.5C 538.267,133.172 538.934,134.005 539.5,135C 537.19,135.497 534.857,135.663 532.5,135.5C 531.189,132.865 529.522,130.531 527.5,128.5C 527.573,126.973 526.906,125.973 525.5,125.5C 523.468,121.708 521.468,121.708 519.5,125.5C 519.5,125.833 519.5,126.167 519.5,126.5C 516.41,128.268 514.41,130.935 513.5,134.5C 510.728,135.767 508.061,135.767 505.5,134.5C 506.5,134.167 507.167,133.5 507.5,132.5C 508.974,131.564 509.974,130.23 510.5,128.5C 512.878,126.122 514.878,123.455 516.5,120.5C 516.833,119.833 517.167,119.167 517.5,118.5C 520.022,116.998 520.022,115.665 517.5,114.5C 514.734,109.955 511.734,105.622 508.5,101.5C 509.552,99.744 511.219,99.0773 513.5,99.5 Z"/></g>
<g><path style="opacity:1" fill="#575757" d="M 296.5,90.5 C 298.453,91.6258 299.953,93.2925 301,95.5C 301.81,99.3575 301.643,103.024 300.5,106.5C 301.258,100.568 299.924,95.2344 296.5,90.5 Z"/></g>
<g><path style="opacity:1" fill="#979797" d="M 393.5,103.5 C 389.484,102.257 385.484,102.257 381.5,103.5C 381.611,102.883 381.944,102.383 382.5,102C 384,101.833 385.5,101.667 387,101.5C 389.544,101.336 391.71,102.003 393.5,103.5 Z"/></g>
<g><path style="opacity:1" fill="#a5a5a5" d="M 480.5,102.5 C 483.304,101.362 486.304,101.195 489.5,102C 490.056,102.383 490.389,102.883 490.5,103.5C 487.214,102.793 483.881,102.46 480.5,102.5 Z"/></g>
<g><path style="opacity:1" fill="#666666" d="M 382.5,98.5 C 381.188,100.479 379.521,102.145 377.5,103.5C 376.571,102.311 376.238,100.978 376.5,99.5C 374.833,99.5 373.167,99.5 371.5,99.5C 371.5,111.5 371.5,123.5 371.5,135.5C 370.505,123.345 370.171,111.011 370.5,98.5C 372.833,98.5 375.167,98.5 377.5,98.5C 377.351,99.552 377.517,100.552 378,101.5C 379.129,99.8588 380.629,98.8588 382.5,98.5 Z"/></g>
<g><path style="opacity:1" fill="#686868" d="M 420.5,98.5 C 424.5,98.5 428.5,98.5 432.5,98.5C 432.5,100.167 432.5,101.833 432.5,103.5C 428.5,103.5 424.5,103.5 420.5,103.5C 423.962,102.518 427.629,102.185 431.5,102.5C 431.5,101.5 431.5,100.5 431.5,99.5C 427.629,99.815 423.962,99.4816 420.5,98.5 Z"/></g>
<g><path style="opacity:1" fill="#515151" d="M 476.5,99.5 C 474.833,101.833 472.833,103.833 470.5,105.5C 471.5,102.5 473.5,100.5 476.5,99.5 Z"/></g>
<g><path style="opacity:1" fill="#fcfcfc" d="M 480.5,102.5 C 483.881,102.46 487.214,102.793 490.5,103.5C 491.5,104.167 492.5,104.833 493.5,105.5C 493.674,107.861 494.007,110.194 494.5,112.5C 487.745,113.123 481.412,112.456 475.5,110.5C 475.351,109.448 475.517,108.448 476,107.5C 477.707,105.963 479.207,104.296 480.5,102.5 Z"/></g>
<g><path style="opacity:1" fill="#6f6f6f" d="M 555.5,98.5 C 559.5,98.5 563.5,98.5 567.5,98.5C 567.5,100.167 567.5,101.833 567.5,103.5C 563.5,103.5 559.5,103.5 555.5,103.5C 555.5,112.167 555.5,120.833 555.5,129.5C 554.507,120.682 554.173,111.682 554.5,102.5C 558.5,102.5 562.5,102.5 566.5,102.5C 566.5,101.5 566.5,100.5 566.5,99.5C 562.629,99.815 558.962,99.4816 555.5,98.5 Z"/></g>
<g><path style="opacity:1" fill="#888888" d="M 413.5,98.5 C 412.791,99.404 411.791,99.7373 410.5,99.5C 410.5,100.5 410.5,101.5 410.5,102.5C 411.833,102.5 413.167,102.5 414.5,102.5C 414.218,112.219 414.551,121.886 415.5,131.5C 414.883,131.389 414.383,131.056 414,130.5C 413.5,121.506 413.334,112.506 413.5,103.5C 412.167,103.5 410.833,103.5 409.5,103.5C 409.5,101.833 409.5,100.167 409.5,98.5C 410.833,98.5 412.167,98.5 413.5,98.5 Z"/></g>
<g><path style="opacity:1" fill="#989898" d="M 480.5,102.5 C 479.207,104.296 477.707,105.963 476,107.5C 475.517,108.448 475.351,109.448 475.5,110.5C 474.596,111.209 474.263,112.209 474.5,113.5C 473.076,108.174 475.076,104.507 480.5,102.5 Z"/></g>
<g><path style="opacity:1" fill="#818181" d="M 548.5,98.5 C 547.791,99.404 546.791,99.7373 545.5,99.5C 545.5,100.5 545.5,101.5 545.5,102.5C 546.833,102.5 548.167,102.5 549.5,102.5C 549.218,112.219 549.551,121.886 550.5,131.5C 549.883,131.389 549.383,131.056 549,130.5C 548.5,121.506 548.334,112.506 548.5,103.5C 547.167,103.5 545.833,103.5 544.5,103.5C 544.5,101.833 544.5,100.167 544.5,98.5C 545.833,98.5 547.167,98.5 548.5,98.5 Z"/></g>
<g><path style="opacity:1" fill="#999999" d="M 537.5,101.5 C 537.771,103.38 537.104,104.713 535.5,105.5C 535.66,103.847 536.326,102.514 537.5,101.5 Z"/></g>
<g><path style="opacity:1" fill="#767676" d="M 499.5,104.5 C 500.924,106.515 501.59,108.848 501.5,111.5C 500.076,109.485 499.41,107.152 499.5,104.5 Z"/></g>
<g><path style="opacity:1" fill="#b7b7b7" d="M 535.5,105.5 C 535.21,108.127 533.876,109.794 531.5,110.5C 532.145,108.174 533.478,106.507 535.5,105.5 Z"/></g>
<g><path style="opacity:1" fill="#595959" d="M 520.5,108.5 C 521.458,108.953 522.292,109.619 523,110.5C 523.708,109.619 524.542,108.953 525.5,108.5C 525.582,110.252 524.749,111.252 523,111.5C 521.251,111.252 520.418,110.252 520.5,108.5 Z"/></g>
<g><path style="opacity:1" fill="#4a4a4a" d="M 469.5,107.5 C 468.771,112.13 468.437,116.797 468.5,121.5C 467.264,117.299 467.264,112.965 468.5,108.5C 468.5,107.833 468.833,107.5 469.5,107.5 Z"/></g>
<g><path style="opacity:1" fill="#8a8a8a" d="M 351.5,105.5 C 352.117,105.611 352.617,105.944 353,106.5C 353.495,108.473 353.662,110.473 353.5,112.5C 347.833,112.5 342.167,112.5 336.5,112.5C 341.64,111.512 346.974,111.179 352.5,111.5C 352.483,109.435 352.15,107.435 351.5,105.5 Z"/></g>
<g><path style="opacity:1" fill="#a9a9a9" d="M 394.5,105.5 C 395.117,105.611 395.617,105.944 396,106.5C 396.5,116.161 396.666,125.828 396.5,135.5C 395.786,125.63 395.12,115.63 394.5,105.5 Z"/></g>
<g><path style="opacity:1" fill="#6b6b6b" d="M 400.5,103.5 C 401.117,103.611 401.617,103.944 402,104.5C 402.5,115.161 402.667,125.828 402.5,136.5C 400.265,136.795 398.265,136.461 396.5,135.5C 398.167,135.5 399.833,135.5 401.5,135.5C 401.787,124.782 401.454,114.115 400.5,103.5 Z"/></g>
<g><path style="opacity:1" fill="#d1d1d1" d="M 493.5,105.5 C 495.223,107.78 495.889,110.447 495.5,113.5C 488.5,113.5 481.5,113.5 474.5,113.5C 474.263,112.209 474.596,111.209 475.5,110.5C 481.412,112.456 487.745,113.123 494.5,112.5C 494.007,110.194 493.674,107.861 493.5,105.5 Z"/></g>
<g><path style="opacity:1" fill="#676767" d="M 355.5,102.5 C 357.173,103.343 358.34,104.676 359,106.5C 359.5,116.494 359.666,126.494 359.5,136.5C 357.265,136.795 355.265,136.461 353.5,135.5C 355.167,135.5 356.833,135.5 358.5,135.5C 358.666,126.494 358.5,117.494 358,108.5C 357.345,106.372 356.511,104.372 355.5,102.5 Z"/></g>
<g><path style="opacity:1" fill="#777777" d="M 378.5,107.5 C 377.884,116.963 377.217,126.297 376.5,135.5C 375.861,125.773 376.528,116.44 378.5,107.5 Z"/></g>
<g><path style="opacity:1" fill="#b3b3b3" d="M 531.5,110.5 C 531.267,113.349 529.934,115.516 527.5,117C 528.252,117.671 528.586,118.504 528.5,119.5C 526.727,118.686 526.227,117.352 527,115.5C 528.517,113.76 530.017,112.094 531.5,110.5 Z"/></g>
<g><path style="opacity:1" fill="#909090" d="M 517.5,114.5 C 520.022,115.665 520.022,116.998 517.5,118.5C 517.5,117.167 517.5,115.833 517.5,114.5 Z"/></g>
<g><path style="opacity:1" fill="#cccccc" d="M 296.5,113.5 C 295.426,114.885 294.093,116.051 292.5,117C 287.177,117.499 281.844,117.666 276.5,117.5C 276.5,117.167 276.5,116.833 276.5,116.5C 283.461,117.122 290.127,116.122 296.5,113.5 Z"/></g>
<g><path style="opacity:1" fill="#6c6c6c" d="M 335.5,113.5 C 333.54,115.156 331.54,116.823 329.5,118.5C 330.268,115.438 332.268,113.772 335.5,113.5 Z"/></g>
<g><path style="opacity:1" fill="#b5b5b5" d="M 351.5,125.5 C 351.575,122.794 351.908,120.127 352.5,117.5C 346.714,117.312 341.047,117.978 335.5,119.5C 336.058,118.21 337.058,117.377 338.5,117C 343.489,116.501 348.489,116.334 353.5,116.5C 353.932,119.877 353.265,122.877 351.5,125.5 Z"/></g>
<g><path style="opacity:1" fill="#6c6c6c" d="M 276.5,116.5 C 276.5,116.833 276.5,117.167 276.5,117.5C 276.5,123.833 276.5,130.167 276.5,136.5C 274.265,136.795 272.265,136.461 270.5,135.5C 272.167,135.5 273.833,135.5 275.5,135.5C 275.177,128.978 275.51,122.645 276.5,116.5 Z"/></g>
<g><path style="opacity:1" fill="#f9f9f9" d="M 351.5,125.5 C 350.5,127.167 349.167,128.5 347.5,129.5C 343.816,130.728 340.15,130.728 336.5,129.5C 335.094,129.027 334.427,128.027 334.5,126.5C 334.448,124.097 334.781,121.764 335.5,119.5C 341.047,117.978 346.714,117.312 352.5,117.5C 351.908,120.127 351.575,122.794 351.5,125.5 Z"/></g>
<g><path style="opacity:1" fill="#c4c4c4" d="M 468.5,108.5 C 467.264,112.965 467.264,117.299 468.5,121.5C 469.407,123.657 470.073,125.99 470.5,128.5C 468.59,127.025 467.424,125.025 467,122.5C 466.333,118.167 466.333,113.833 467,109.5C 467.383,108.944 467.883,108.611 468.5,108.5 Z"/></g>
<g><path style="opacity:1" fill="#c9c6e3" d="M 175.5,82.5 C 150.5,82.5 125.5,82.5 100.5,82.5C 100.178,95.4131 100.511,108.246 101.5,121C 126.498,121.5 151.498,121.667 176.5,121.5C 176.5,108.5 176.5,95.5 176.5,82.5C 177.83,88.6307 178.497,95.1307 178.5,102C 178.333,108.5 178.167,115 178,121.5C 177.329,122.252 176.496,122.586 175.5,122.5C 150.833,122.5 126.167,122.5 101.5,122.5C 99.5181,109.208 98.8514,95.5409 99.5,81.5C 125.005,81.1689 150.339,81.5023 175.5,82.5 Z"/></g>
<g><path style="opacity:1" fill="#dad5fd" d="M 175.5,82.5 C 175.833,82.5 176.167,82.5 176.5,82.5C 176.5,95.5 176.5,108.5 176.5,121.5C 151.498,121.667 126.498,121.5 101.5,121C 100.511,108.246 100.178,95.4131 100.5,82.5C 125.5,82.5 150.5,82.5 175.5,82.5 Z"/></g>
<g><path style="opacity:1" fill="#a6a4ae" d="M 101.5,122.5 C 126.167,122.5 150.833,122.5 175.5,122.5C 163.686,123.832 151.519,124.499 139,124.5C 126.833,124.333 114.667,124.167 102.5,124C 101.944,123.617 101.611,123.117 101.5,122.5 Z"/></g>
<g><path style="opacity:1" fill="#999999" d="M 329.5,118.5 C 328.167,122.167 328.167,125.833 329.5,129.5C 328.883,129.389 328.383,129.056 328,128.5C 327.333,125.5 327.333,122.5 328,119.5C 328.383,118.944 328.883,118.611 329.5,118.5 Z"/></g>
<g><path style="opacity:1" fill="#717171" d="M 335.5,119.5 C 334.781,121.764 334.448,124.097 334.5,126.5C 333.853,125.726 333.52,124.726 333.5,123.5C 333.34,121.645 334.007,120.312 335.5,119.5 Z"/></g>
<g><path style="opacity:1" fill="#898989" d="M 473.5,121.5 C 475.104,122.287 475.771,123.62 475.5,125.5C 474.326,124.486 473.66,123.153 473.5,121.5 Z"/></g>
<g><path style="opacity:1" fill="#707070" d="M 516.5,120.5 C 514.878,123.455 512.878,126.122 510.5,128.5C 511.353,124.98 513.353,122.313 516.5,120.5 Z"/></g>
<g><path style="opacity:1" fill="#b7b7b7" d="M 525.5,125.5 C 523.5,124.167 521.5,124.167 519.5,125.5C 521.468,121.708 523.468,121.708 525.5,125.5 Z"/></g>
<g><path style="opacity:1" fill="#909090" d="M 525.5,125.5 C 526.906,125.973 527.573,126.973 527.5,128.5C 526.094,128.027 525.427,127.027 525.5,125.5 Z"/></g>
<g><path style="opacity:1" fill="#cfcfcf" d="M 182.5,126.5 C 181.859,127.482 181.193,128.482 180.5,129.5C 168.852,130.499 157.186,130.832 145.5,130.5C 145.5,138.167 145.5,145.833 145.5,153.5C 152.5,153.5 159.5,153.5 166.5,153.5C 159.352,154.492 152.019,154.825 144.5,154.5C 144.5,146.167 144.5,137.833 144.5,129.5C 155.838,129.667 167.172,129.5 178.5,129C 179.471,127.519 180.804,126.685 182.5,126.5 Z"/></g>
<g><path style="opacity:1" fill="#d1d1d1" d="M 98.5,129.5 C 105.833,129.5 113.167,129.5 120.5,129.5C 120.5,144.167 120.5,158.833 120.5,173.5C 112.112,173.227 103.779,173.56 95.5,174.5C 95.6107,173.883 95.944,173.383 96.5,173C 104.159,172.5 111.826,172.334 119.5,172.5C 119.5,158.5 119.5,144.5 119.5,130.5C 112.313,130.825 105.313,130.491 98.5,129.5 Z"/></g>
<g><path style="opacity:1" fill="#cdcdcd" d="M 138.5,159.5 C 137.506,150.014 137.173,140.348 137.5,130.5C 134.167,130.5 130.833,130.5 127.5,130.5C 127.5,144.5 127.5,158.5 127.5,172.5C 135.019,172.175 142.352,172.508 149.5,173.5C 141.833,173.5 134.167,173.5 126.5,173.5C 126.5,158.833 126.5,144.167 126.5,129.5C 130.5,129.5 134.5,129.5 138.5,129.5C 138.5,139.5 138.5,149.5 138.5,159.5 Z"/></g>
<g><path style="opacity:1" fill="#a2a2a2" d="M 336.5,129.5 C 340.15,130.728 343.816,130.728 347.5,129.5C 345.883,130.972 343.883,131.639 341.5,131.5C 340.167,131.333 338.833,131.167 337.5,131C 336.944,130.617 336.611,130.117 336.5,129.5 Z"/></g>
<g><path style="opacity:1" fill="#909090" d="M 479.5,129.5 C 485.479,130.726 491.479,130.726 497.5,129.5C 494.474,131.019 491.141,131.685 487.5,131.5C 485.167,131.333 482.833,131.167 480.5,131C 479.944,130.617 479.611,130.117 479.5,129.5 Z"/></g>
<g><path style="opacity:1" fill="#636363" d="M 510.5,128.5 C 509.974,130.23 508.974,131.564 507.5,132.5C 507.554,130.368 508.554,129.035 510.5,128.5 Z"/></g>
<g><path style="opacity:1" fill="#919191" d="M 519.5,126.5 C 517.853,129.473 515.853,132.14 513.5,134.5C 514.41,130.935 516.41,128.268 519.5,126.5 Z"/></g>
<g><path style="opacity:1" fill="#616161" d="M 535.5,129.5 C 536.5,129.833 537.167,130.5 537.5,131.5C 537.5,131.833 537.5,132.167 537.5,132.5C 536.094,132.027 535.427,131.027 535.5,129.5 Z"/></g>
<g><path style="opacity:1" fill="#9a9a9a" d="M 353.5,135.5 C 352.833,134.5 352.167,133.5 351.5,132.5C 351.369,131.624 351.702,130.957 352.5,130.5C 353.452,132.045 353.785,133.712 353.5,135.5 Z"/></g>
<g><path style="opacity:1" fill="#525252" d="M 498.5,129.5 C 498.56,128.957 498.893,128.624 499.5,128.5C 500.466,130.396 500.799,132.396 500.5,134.5C 498.139,134.674 495.806,135.007 493.5,135.5C 493.167,135.5 492.833,135.5 492.5,135.5C 494.515,134.076 496.848,133.41 499.5,133.5C 499.768,131.901 499.434,130.568 498.5,129.5 Z"/></g>
<g><path style="opacity:1" fill="#cdcdcd" d="M 172.5,136.5 C 191.662,135.338 210.996,135.171 230.5,136C 231.056,136.383 231.389,136.883 231.5,137.5C 211.879,136.524 192.213,136.191 172.5,136.5 Z"/></g>
<g><path style="opacity:1" fill="#aeaeae" d="M 334.5,134.5 C 338.833,135.833 343.167,135.833 347.5,134.5C 345.952,135.794 343.952,136.461 341.5,136.5C 339.5,136.333 337.5,136.167 335.5,136C 334.944,135.617 334.611,135.117 334.5,134.5 Z"/></g>
<g><path style="opacity:1" fill="#a7a7a7" d="M 418.5,134.5 C 422.735,135.436 427.069,135.769 431.5,135.5C 429.527,136.163 427.361,136.496 425,136.5C 422.39,136.467 420.223,135.8 418.5,134.5 Z"/></g>
<g><path style="opacity:1" fill="#a5a5a5" d="M 479.5,134.5 C 483.768,135.373 488.102,135.706 492.5,135.5C 492.833,135.5 493.167,135.5 493.5,135.5C 489.354,136.647 485.02,136.814 480.5,136C 479.944,135.617 479.611,135.117 479.5,134.5 Z"/></g>
<g><path style="opacity:1" fill="#ababab" d="M 505.5,134.5 C 508.061,135.767 510.728,135.767 513.5,134.5C 512.486,135.765 510.986,136.431 509,136.5C 507.5,136.167 506,135.833 504.5,135.5C 504.624,134.893 504.957,134.56 505.5,134.5 Z"/></g>
<g><path style="opacity:1" fill="#b1b1b1" d="M 537.5,132.5 C 537.5,132.167 537.5,131.833 537.5,131.5C 539.741,132.3 540.741,133.966 540.5,136.5C 537.615,136.806 534.948,136.473 532.5,135.5C 534.857,135.663 537.19,135.497 539.5,135C 538.934,134.005 538.267,133.172 537.5,132.5 Z"/></g>
<g><path style="opacity:1" fill="#d9d5fd" d="M 175.5,144.5 C 192.5,144.5 209.5,144.5 226.5,144.5C 226.5,153.167 226.5,161.833 226.5,170.5C 209.5,170.5 192.5,170.5 175.5,170.5C 175.5,162.167 175.5,153.833 175.5,145.5C 175.5,145.167 175.5,144.833 175.5,144.5 Z"/></g>
<g><path style="opacity:1" fill="#cdc9e9" d="M 175.5,144.5 C 192.662,143.338 209.995,143.171 227.5,144C 228.833,153.333 228.833,162.667 227.5,172C 210.167,172.667 192.833,172.667 175.5,172C 174.172,163.068 174.172,154.235 175.5,145.5C 175.5,153.833 175.5,162.167 175.5,170.5C 192.5,170.5 209.5,170.5 226.5,170.5C 226.5,161.833 226.5,153.167 226.5,144.5C 209.5,144.5 192.5,144.5 175.5,144.5 Z"/></g>
<g><path style="opacity:1" fill="#dedede" d="M 235.5,80.5 C 236.167,80.5 236.5,80.8333 236.5,81.5C 237.489,123.124 237.822,164.791 237.5,206.5C 237.768,208.099 237.434,209.432 236.5,210.5C 236.667,198.162 236.5,185.829 236,173.5C 235.617,174.056 235.117,174.389 234.5,174.5C 235.454,163.885 235.787,153.218 235.5,142.5C 236.78,121.984 236.78,101.317 235.5,80.5 Z"/></g>
<g><path style="opacity:1" fill="#838383" d="M 270.5,173.5 C 276.31,172.51 282.31,172.177 288.5,172.5C 288.737,173.791 288.404,174.791 287.5,175.5C 282.265,173.55 276.598,172.883 270.5,173.5 Z"/></g>
<g><path style="opacity:1" fill="#b4b4b4" d="M 236.5,81.5 C 237.117,81.6107 237.617,81.944 238,82.5C 238.831,124.002 238.665,165.335 237.5,206.5C 237.822,164.791 237.489,123.124 236.5,81.5 Z"/></g>
<g><path style="opacity:1" fill="#050505" d="M 270.5,173.5 C 276.598,172.883 282.265,173.55 287.5,175.5C 285.167,175.5 282.833,175.5 280.5,175.5C 280.5,181.833 280.5,188.167 280.5,194.5C 278.853,188.735 277.853,182.735 277.5,176.5C 274.841,176.083 272.508,175.083 270.5,173.5 Z"/></g>
<g><path style="opacity:1" fill="#808080" d="M 291.5,173.5 C 291.17,180.532 291.503,187.532 292.5,194.5C 293.167,190.687 293.834,187.021 294.5,183.5C 294.5,187.5 294.5,191.5 294.5,195.5C 293.167,195.5 291.833,195.5 290.5,195.5C 290.175,187.981 290.508,180.648 291.5,173.5 Z"/></g>
<g><path style="opacity:1" fill="#030303" d="M 291.5,173.5 C 293.083,175.508 294.083,177.841 294.5,180.5C 294.5,181.5 294.5,182.5 294.5,183.5C 293.834,187.021 293.167,190.687 292.5,194.5C 291.503,187.532 291.17,180.532 291.5,173.5 Z"/></g>
<g><path style="opacity:1" fill="#777777" d="M 434.5,173.5 C 432.656,175.279 431.99,177.612 432.5,180.5C 431.527,178.052 431.194,175.385 431.5,172.5C 432.791,172.263 433.791,172.596 434.5,173.5 Z"/></g>
<g><path style="opacity:1" fill="#090909" d="M 434.5,173.5 C 435.01,176.388 434.344,178.721 432.5,180.5C 431.99,177.612 432.656,175.279 434.5,173.5 Z"/></g>
<g><path style="opacity:1" fill="#010101" d="M 477.5,173.5 C 477.5,180.5 477.5,187.5 477.5,194.5C 476.078,194.25 475.078,193.417 474.5,192C 475.817,189.063 475.817,186.23 474.5,183.5C 474.69,179.705 475.69,176.372 477.5,173.5 Z"/></g>
<g><path style="opacity:1" fill="#0c0c0c" d="M 516.5,173.5 C 519.167,174.167 519.167,174.833 516.5,175.5C 516.5,174.833 516.5,174.167 516.5,173.5 Z"/></g>
<g><path style="opacity:1" fill="#676767" d="M 516.5,173.5 C 517.209,172.596 518.209,172.263 519.5,172.5C 519.5,173.833 519.5,175.167 519.5,176.5C 518.209,176.737 517.209,176.404 516.5,175.5C 519.167,174.833 519.167,174.167 516.5,173.5 Z"/></g>
<g><path style="opacity:1" fill="#787878" d="M 620.5,173.5 C 621.209,172.596 622.209,172.263 623.5,172.5C 623.5,180.167 623.5,187.833 623.5,195.5C 622.167,195.5 620.833,195.5 619.5,195.5C 619.175,187.981 619.508,180.648 620.5,173.5 Z"/></g>
<g><path style="opacity:1" fill="#000000" d="M 620.5,173.5 C 621.821,176.598 622.488,180.098 622.5,184C 622.167,187.5 621.833,191 621.5,194.5C 620.503,187.532 620.17,180.532 620.5,173.5 Z"/></g>
<g><path style="opacity:1" fill="#0a0a0a" d="M 422.5,174.5 C 422.5,176.167 422.5,177.833 422.5,179.5C 430.5,180.167 430.5,180.833 422.5,181.5C 422.187,185.042 422.521,188.375 423.5,191.5C 424.919,192.451 426.585,192.784 428.5,192.5C 428.209,193.649 427.376,194.316 426,194.5C 424.467,194.227 422.967,193.894 421.5,193.5C 421.167,193.5 420.833,193.5 420.5,193.5C 421.013,188.915 420.346,184.582 418.5,180.5C 418.863,179.817 419.196,179.15 419.5,178.5C 420.022,176.781 421.022,175.448 422.5,174.5 Z"/></g>
<g><path style="opacity:1" fill="#151515" d="M 575.5,174.5 C 575.5,176.167 575.5,177.833 575.5,179.5C 577.5,179.5 579.5,179.5 581.5,179.5C 581.5,180.167 581.5,180.833 581.5,181.5C 579.5,181.5 577.5,181.5 575.5,181.5C 575.5,185.167 575.5,188.833 575.5,192.5C 577.5,192.5 579.5,192.5 581.5,192.5C 581.5,193.5 581.5,194.5 581.5,195.5C 578.058,196.172 575.391,195.172 573.5,192.5C 574.08,188.351 573.414,184.684 571.5,181.5C 572.219,179.236 572.552,176.903 572.5,174.5C 573.5,174.5 574.5,174.5 575.5,174.5 Z"/></g>
<g><path style="opacity:1" fill="#484848" d="M 277.5,176.5 C 277.853,182.735 278.853,188.735 280.5,194.5C 280.5,194.833 280.5,195.167 280.5,195.5C 279.5,195.5 278.5,195.5 277.5,195.5C 277.5,189.167 277.5,182.833 277.5,176.5 Z"/></g>
<g><path style="opacity:1" fill="#b2b2b2" d="M 287.5,175.5 C 285.735,176.461 283.735,176.795 281.5,176.5C 281.823,183.022 281.49,189.355 280.5,195.5C 280.5,195.167 280.5,194.833 280.5,194.5C 280.5,188.167 280.5,181.833 280.5,175.5C 282.833,175.5 285.167,175.5 287.5,175.5 Z"/></g>
<g><path style="opacity:1" fill="#8f8f8f" d="M 301.5,179.5 C 299.379,179.325 297.379,179.659 295.5,180.5C 295.97,179.307 296.97,178.64 298.5,178.5C 299.726,178.52 300.726,178.853 301.5,179.5 Z"/></g>
<g><path style="opacity:1" fill="#8d8d8d" d="M 319.5,179.5 C 317.05,179.298 314.717,179.631 312.5,180.5C 312.167,180.5 311.833,180.5 311.5,180.5C 312.492,178.974 313.992,178.307 316,178.5C 317.385,178.514 318.551,178.848 319.5,179.5 Z"/></g>
<g><path style="opacity:1" fill="#898989" d="M 347.5,180.5 C 344.5,179.167 341.5,179.167 338.5,180.5C 338.611,179.883 338.944,179.383 339.5,179C 340.833,178.833 342.167,178.667 343.5,178.5C 345.333,178.585 346.666,179.252 347.5,180.5 Z"/></g>
<g><path style="opacity:1" fill="#949494" d="M 363.5,179.5 C 365.035,178.212 366.701,178.212 368.5,179.5C 368.043,180.298 367.376,180.631 366.5,180.5C 365.791,179.596 364.791,179.263 363.5,179.5 Z"/></g>
<g><path style="opacity:1" fill="#7e7e7e" d="M 381.5,179.5 C 379.435,179.517 377.435,179.85 375.5,180.5C 376.134,179.053 377.301,178.387 379,178.5C 380.07,178.528 380.903,178.861 381.5,179.5 Z"/></g>
<g><path style="opacity:1" fill="#888888" d="M 450.5,180.5 C 447.167,179.167 443.833,179.167 440.5,180.5C 440.611,179.883 440.944,179.383 441.5,179C 444.167,178.333 446.833,178.333 449.5,179C 450.056,179.383 450.389,179.883 450.5,180.5 Z"/></g>
<g><path style="opacity:1" fill="#838383" d="M 492.5,179.5 C 490.097,179.448 487.764,179.781 485.5,180.5C 486.312,179.007 487.645,178.34 489.5,178.5C 490.726,178.52 491.726,178.853 492.5,179.5 Z"/></g>
<g><path style="opacity:1" fill="#878787" d="M 509.5,179.5 C 506.763,179.401 504.096,179.735 501.5,180.5C 502.492,178.974 503.992,178.307 506,178.5C 507.385,178.514 508.551,178.848 509.5,179.5 Z"/></g>
<g><path style="opacity:1" fill="#919191" d="M 532.5,179.5 C 530.379,179.325 528.379,179.659 526.5,180.5C 526.97,179.307 527.97,178.64 529.5,178.5C 530.726,178.52 531.726,178.853 532.5,179.5 Z"/></g>
<g><path style="opacity:1" fill="#858585" d="M 575.5,174.5 C 576.434,175.568 576.768,176.901 576.5,178.5C 578.415,178.216 580.081,178.549 581.5,179.5C 579.5,179.5 577.5,179.5 575.5,179.5C 575.5,177.833 575.5,176.167 575.5,174.5 Z"/></g>
<g><path style="opacity:1" fill="#848484" d="M 593.5,179.5 C 589.888,178.924 586.888,179.924 584.5,182.5C 584.511,180.983 585.177,179.816 586.5,179C 589.039,178.204 591.372,178.371 593.5,179.5 Z"/></g>
<g><path style="opacity:1" fill="#7f7f7f" d="M 612.5,180.5 C 604.514,178.812 600.847,182.145 601.5,190.5C 599.183,181.975 602.517,178.141 611.5,179C 612.056,179.383 612.389,179.883 612.5,180.5 Z"/></g>
<g><path style="opacity:1" fill="#2a2a2a" d="M 356.5,180.5 C 359.077,184.43 361.411,184.097 363.5,179.5C 364.791,179.263 365.791,179.596 366.5,180.5C 364.765,182.235 363.432,184.235 362.5,186.5C 363.339,189.674 365.005,192.341 367.5,194.5C 365.533,195.684 363.866,195.351 362.5,193.5C 361.265,188.849 359.598,188.516 357.5,192.5C 356.575,195.131 354.909,195.798 352.5,194.5C 354.049,191.897 355.715,189.397 357.5,187C 357.006,184.495 355.672,182.661 353.5,181.5C 353.804,179.204 354.804,178.871 356.5,180.5 Z"/></g>
<g><path style="opacity:1" fill="#8a8a8a" d="M 373.5,179.5 C 372.179,182.598 371.512,186.098 371.5,190C 371.833,193.5 372.167,197 372.5,200.5C 373.466,198.604 373.799,196.604 373.5,194.5C 373.833,194.5 374.167,194.5 374.5,194.5C 374.5,196.833 374.5,199.167 374.5,201.5C 373.167,201.5 371.833,201.5 370.5,201.5C 370.5,193.833 370.5,186.167 370.5,178.5C 371.791,178.263 372.791,178.596 373.5,179.5 Z"/></g>
<g><path style="opacity:1" fill="#010101" d="M 373.5,179.5 C 373.833,180.833 374.167,182.167 374.5,183.5C 373.753,187.151 373.419,190.818 373.5,194.5C 373.799,196.604 373.466,198.604 372.5,200.5C 372.167,197 371.833,193.5 371.5,190C 371.512,186.098 372.179,182.598 373.5,179.5 Z"/></g>
<g><path style="opacity:1" fill="#919191" d="M 399.5,179.5 C 396.763,179.401 394.096,179.735 391.5,180.5C 392.492,178.974 393.992,178.307 396,178.5C 397.385,178.514 398.551,178.848 399.5,179.5 Z"/></g>
<g><path style="opacity:1" fill="#8a8a8a" d="M 411.5,180.5 C 410.85,180.196 410.183,179.863 409.5,179.5C 408.167,184.5 408.167,189.5 409.5,194.5C 410.167,190.687 410.834,187.021 411.5,183.5C 411.5,187.5 411.5,191.5 411.5,195.5C 410.167,195.5 408.833,195.5 407.5,195.5C 407.5,189.833 407.5,184.167 407.5,178.5C 409.483,178.157 410.817,178.824 411.5,180.5 Z"/></g>
<g><path style="opacity:1" fill="#101010" d="M 411.5,180.5 C 411.833,180.5 412.167,180.5 412.5,180.5C 413.858,179.374 415.192,179.374 416.5,180.5C 414.816,181.15 413.483,182.15 412.5,183.5C 412.167,183.5 411.833,183.5 411.5,183.5C 410.834,187.021 410.167,190.687 409.5,194.5C 408.167,189.5 408.167,184.5 409.5,179.5C 410.183,179.863 410.85,180.196 411.5,180.5 Z"/></g>
<g><path style="opacity:1" fill="#0c0c0c" d="M 518.5,179.5 C 519.108,184.944 518.442,189.944 516.5,194.5C 515.892,189.056 516.558,184.056 518.5,179.5 Z"/></g>
<g><path style="opacity:1" fill="#414141" d="M 518.5,179.5 C 519.488,184.64 519.821,189.974 519.5,195.5C 518.209,195.737 517.209,195.404 516.5,194.5C 518.442,189.944 519.108,184.944 518.5,179.5 Z"/></g>
<g><path style="opacity:1" fill="#bababa" d="M 535.5,179.5 C 536.568,178.566 537.901,178.232 539.5,178.5C 540.126,185.584 539.459,192.25 537.5,198.5C 538.418,192.225 538.751,185.892 538.5,179.5C 537.5,179.5 536.5,179.5 535.5,179.5 Z"/></g>
<g><path style="opacity:1" fill="#464646" d="M 547.5,179.5 C 546.191,181.571 545.525,184.071 545.5,187C 545.525,189.929 546.191,192.429 547.5,194.5C 546.791,195.404 545.791,195.737 544.5,195.5C 544.5,189.833 544.5,184.167 544.5,178.5C 545.791,178.263 546.791,178.596 547.5,179.5 Z"/></g>
<g><path style="opacity:1" fill="#bebebe" d="M 92.5,177.5 C 91.5478,187.782 91.2145,198.115 91.5,208.5C 90.3417,198.675 90.1751,188.675 91,178.5C 91.3826,177.944 91.8826,177.611 92.5,177.5 Z"/></g>
<g><path style="opacity:1" fill="#191919" d="M 347.5,180.5 C 348.167,180.833 348.833,181.167 349.5,181.5C 349.5,183.5 349.5,185.5 349.5,187.5C 345.833,187.5 342.167,187.5 338.5,187.5C 338.263,188.791 338.596,189.791 339.5,190.5C 339.611,191.117 339.944,191.617 340.5,192C 343.695,192.181 346.695,192.681 349.5,193.5C 346.236,194.324 342.902,194.658 339.5,194.5C 335.829,191.707 334.662,188.04 336,183.5C 336.377,182.058 337.21,181.058 338.5,180.5C 341.5,179.167 344.5,179.167 347.5,180.5 Z"/></g>
<g><path style="opacity:1" fill="#969696" d="M 356.5,180.5 C 354.804,178.871 353.804,179.204 353.5,181.5C 350.768,180.033 350.935,179.033 354,178.5C 355.376,178.684 356.209,179.351 356.5,180.5 Z"/></g>
<g><path style="opacity:1" fill="#606060" d="M 547.5,180.5 C 548.167,180.5 548.833,180.5 549.5,180.5C 550.833,181.167 552.167,181.833 553.5,182.5C 551.708,182.366 550.042,182.699 548.5,183.5C 548.443,182.391 548.11,181.391 547.5,180.5 Z"/></g>
<g><path style="opacity:1" fill="#171717" d="M 593.5,179.5 C 593.5,179.833 593.5,180.167 593.5,180.5C 591.156,180.94 589.156,181.94 587.5,183.5C 586.224,186.03 586.224,188.697 587.5,191.5C 590.569,193.03 592.902,192.363 594.5,189.5C 595.309,187.708 595.809,185.708 596,183.5C 596.383,184.056 596.883,184.389 597.5,184.5C 597.599,187.237 597.265,189.904 596.5,192.5C 593.418,194.181 590.085,194.848 586.5,194.5C 583.539,190.792 582.873,186.792 584.5,182.5C 586.888,179.924 589.888,178.924 593.5,179.5 Z"/></g>
<g><path style="opacity:1" fill="#676767" d="M 294.5,180.5 C 294.833,180.5 295.167,180.5 295.5,180.5C 297.751,181.015 299.751,182.015 301.5,183.5C 299.126,182.314 296.792,182.314 294.5,183.5C 294.5,182.5 294.5,181.5 294.5,180.5 Z"/></g>
<g><path style="opacity:1" fill="#5f5f5f" d="M 373.5,179.5 C 374.167,179.833 374.833,180.167 375.5,180.5C 377.844,180.94 379.844,181.94 381.5,183.5C 379.167,182.167 376.833,182.167 374.5,183.5C 374.167,182.167 373.833,180.833 373.5,179.5 Z"/></g>
<g><path style="opacity:1" fill="#333333" d="M 399.5,179.5 C 401.836,180.296 403.169,181.962 403.5,184.5C 402.883,184.389 402.383,184.056 402,183.5C 398.851,185.362 395.351,186.029 391.5,185.5C 391.737,184.209 391.404,183.209 390.5,182.5C 390.5,182.167 390.5,181.833 390.5,181.5C 390.5,180.833 390.833,180.5 391.5,180.5C 394.096,179.735 396.763,179.401 399.5,179.5 Z"/></g>
<g><path style="opacity:1" fill="#777777" d="M 393.5,182.5 C 394.274,181.853 395.274,181.52 396.5,181.5C 398.355,181.34 399.688,182.007 400.5,183.5C 398.236,182.781 395.903,182.448 393.5,182.5 Z"/></g>
<g><path style="opacity:1" fill="#a4a4a4" d="M 419.5,178.5 C 419.196,179.15 418.863,179.817 418.5,180.5C 420.346,184.582 421.013,188.915 420.5,193.5C 419.518,190.038 419.185,186.371 419.5,182.5C 417.097,182.448 414.764,182.781 412.5,183.5C 413.483,182.15 414.816,181.15 416.5,180.5C 415.192,179.374 413.858,179.374 412.5,180.5C 414.279,178.656 416.612,177.99 419.5,178.5 Z"/></g>
<g><path style="opacity:1" fill="#848484" d="M 422.5,174.5 C 423.434,175.568 423.768,176.901 423.5,178.5C 425.5,178.5 427.5,178.5 429.5,178.5C 429.5,179.833 429.5,181.167 429.5,182.5C 427.5,182.5 425.5,182.5 423.5,182.5C 423.5,185.5 423.5,188.5 423.5,191.5C 422.521,188.375 422.187,185.042 422.5,181.5C 430.5,180.833 430.5,180.167 422.5,179.5C 422.5,177.833 422.5,176.167 422.5,174.5 Z"/></g>
<g><path style="opacity:1" fill="#747474" d="M 449.5,182.5 C 447.05,182.298 444.717,182.631 442.5,183.5C 443.152,182.275 444.319,181.608 446,181.5C 447.385,181.514 448.551,181.848 449.5,182.5 Z"/></g>
<g><path style="opacity:1" fill="#595959" d="M 477.5,173.5 C 475.69,176.372 474.69,179.705 474.5,183.5C 472.283,182.631 469.95,182.298 467.5,182.5C 469.5,181.833 471.5,181.167 473.5,180.5C 474.473,178.052 474.806,175.385 474.5,172.5C 475.791,172.263 476.791,172.596 477.5,173.5 Z"/></g>
<g><path style="opacity:1" fill="#555555" d="M 492.5,179.5 C 494.062,179.733 495.395,180.4 496.5,181.5C 496.5,182.167 496.5,182.833 496.5,183.5C 494.797,182.34 494.131,183.007 494.5,185.5C 491.287,185.81 488.287,185.477 485.5,184.5C 488.187,184.664 490.854,184.497 493.5,184C 491.406,182.648 489.073,182.148 486.5,182.5C 488.631,181.686 490.964,181.186 493.5,181C 492.944,180.617 492.611,180.117 492.5,179.5 Z"/></g>
<g><path style="opacity:1" fill="#121212" d="M 319.5,179.5 C 322.892,180.967 324.225,183.634 323.5,187.5C 319.5,187.5 315.5,187.5 311.5,187.5C 311.229,189.38 311.896,190.713 313.5,191.5C 316.698,192.7 320.031,192.7 323.5,191.5C 323.5,192.167 323.5,192.833 323.5,193.5C 319.881,194.244 316.215,194.577 312.5,194.5C 311.488,193.128 310.488,191.795 309.5,190.5C 309.125,187.603 309.625,184.937 311,182.5C 311.483,183.448 311.649,184.448 311.5,185.5C 314.713,185.81 317.713,185.477 320.5,184.5C 320.5,184.167 320.5,183.833 320.5,183.5C 320.389,182.883 320.056,182.383 319.5,182C 316.964,181.814 314.631,181.314 312.5,180.5C 314.717,179.631 317.05,179.298 319.5,179.5 Z"/></g>
<g><path style="opacity:1" fill="#888888" d="M 511.5,180.5 C 512.404,181.209 512.737,182.209 512.5,183.5C 509.545,182.841 506.545,182.508 503.5,182.5C 505.895,181.186 508.395,181.186 511,182.5C 511.464,181.906 511.631,181.239 511.5,180.5 Z"/></g>
<g><path style="opacity:1" fill="#5a5a5a" d="M 571.5,181.5 C 573.414,184.684 574.08,188.351 573.5,192.5C 572.77,188.939 572.103,185.273 571.5,181.5 Z"/></g>
<g><path style="opacity:1" fill="#9e9e9e" d="M 581.5,181.5 C 580.081,182.451 578.415,182.784 576.5,182.5C 576.5,185.5 576.5,188.5 576.5,191.5C 578.415,191.216 580.081,191.549 581.5,192.5C 579.5,192.5 577.5,192.5 575.5,192.5C 575.5,188.833 575.5,185.167 575.5,181.5C 577.5,181.5 579.5,181.5 581.5,181.5 Z"/></g>
<g><path style="opacity:1" fill="#484848" d="M 593.5,180.5 C 595.619,180.468 596.952,181.468 597.5,183.5C 597.5,183.833 597.5,184.167 597.5,184.5C 596.883,184.389 596.383,184.056 596,183.5C 595.809,185.708 595.309,187.708 594.5,189.5C 595.387,183.463 593.054,181.463 587.5,183.5C 589.156,181.94 591.156,180.94 593.5,180.5 Z"/></g>
<g><path style="opacity:1" fill="#121212" d="M 301.5,179.5 C 301.833,180.5 302.5,181.167 303.5,181.5C 304.097,186.294 303.43,190.627 301.5,194.5C 301.5,190.833 301.5,187.167 301.5,183.5C 299.751,182.015 297.751,181.015 295.5,180.5C 297.379,179.659 299.379,179.325 301.5,179.5 Z"/></g>
<g><path style="opacity:1" fill="#ededed" d="M 320.5,183.5 C 320.5,183.833 320.5,184.167 320.5,184.5C 317.813,184.664 315.146,184.497 312.5,184C 315.01,182.255 317.676,182.089 320.5,183.5 Z"/></g>
<g><path style="opacity:1" fill="#efefef" d="M 345.5,182.5 C 346.5,182.833 347.167,183.5 347.5,184.5C 345.143,184.663 342.81,184.497 340.5,184C 341.905,182.731 343.571,182.231 345.5,182.5 Z"/></g>
<g><path style="opacity:1" fill="#e9e9e9" d="M 381.5,183.5 C 382.629,185.628 382.796,187.961 382,190.5C 379.731,193.054 377.398,193.054 375,190.5C 374.503,188.19 374.337,185.857 374.5,183.5C 376.833,182.167 379.167,182.167 381.5,183.5 Z"/></g>
<g><path style="opacity:1" fill="#ededed" d="M 393.5,182.5 C 395.903,182.448 398.236,182.781 400.5,183.5C 398.034,184.634 395.367,184.801 392.5,184C 393.056,183.617 393.389,183.117 393.5,182.5 Z"/></g>
<g><path style="opacity:1" fill="#ececec" d="M 467.5,182.5 C 469.95,182.298 472.283,182.631 474.5,183.5C 476.18,190.659 473.68,192.993 467,190.5C 466.503,188.19 466.337,185.857 466.5,183.5C 467.167,183.5 467.5,183.167 467.5,182.5 Z"/></g>
<g><path style="opacity:1" fill="#171717" d="M 492.5,179.5 C 492.611,180.117 492.944,180.617 493.5,181C 490.964,181.186 488.631,181.686 486.5,182.5C 486.167,183.167 485.833,183.833 485.5,184.5C 488.287,185.477 491.287,185.81 494.5,185.5C 494.131,183.007 494.797,182.34 496.5,183.5C 496.5,184.833 496.5,186.167 496.5,187.5C 492.629,187.185 488.962,187.518 485.5,188.5C 486.167,189.833 487.167,190.833 488.5,191.5C 490.895,192.814 493.395,192.814 496,191.5C 496.483,192.448 496.649,193.448 496.5,194.5C 495.5,194.5 494.5,194.5 493.5,194.5C 490.763,194.599 488.096,194.265 485.5,193.5C 482.697,190.796 481.863,187.463 483,183.5C 483.377,182.058 484.21,181.058 485.5,180.5C 487.764,179.781 490.097,179.448 492.5,179.5 Z"/></g>
<g><path style="opacity:1" fill="#e9e9e9" d="M 486.5,182.5 C 489.073,182.148 491.406,182.648 493.5,184C 490.854,184.497 488.187,184.664 485.5,184.5C 485.833,183.833 486.167,183.167 486.5,182.5 Z"/></g>
<g><path style="opacity:1" fill="#0a0a0a" d="M 557.5,182.5 C 557.824,186.555 557.491,190.555 556.5,194.5C 556.118,190.084 555.118,186.084 553.5,182.5C 552.167,181.833 550.833,181.167 549.5,180.5C 552.618,178.993 555.285,179.66 557.5,182.5 Z"/></g>
<g><path style="opacity:1" fill="#e9e9e9" d="M 594.5,189.5 C 592.902,192.363 590.569,193.03 587.5,191.5C 586.224,188.697 586.224,186.03 587.5,183.5C 593.054,181.463 595.387,183.463 594.5,189.5 Z"/></g>
<g><path style="opacity:1" fill="#e8e8e8" d="M 612.5,184.5 C 612.713,187.451 612.046,190.118 610.5,192.5C 608.712,192.785 607.045,192.452 605.5,191.5C 604.438,188.897 604.272,186.23 605,183.5C 606.062,182.903 607.228,182.57 608.5,182.5C 610.355,182.34 611.688,183.007 612.5,184.5 Z"/></g>
<g><path style="opacity:1" fill="#686868" d="M 311.5,180.5 C 311.833,180.5 312.167,180.5 312.5,180.5C 314.631,181.314 316.964,181.814 319.5,182C 320.056,182.383 320.389,182.883 320.5,183.5C 317.676,182.089 315.01,182.255 312.5,184C 315.146,184.497 317.813,184.664 320.5,184.5C 317.713,185.477 314.713,185.81 311.5,185.5C 311.649,184.448 311.483,183.448 311,182.5C 309.625,184.937 309.125,187.603 309.5,190.5C 308.366,188.034 308.199,185.367 309,182.5C 309.708,181.619 310.542,180.953 311.5,180.5 Z"/></g>
<g><path style="opacity:1" fill="#7b7b7b" d="M 345.5,182.5 C 343.571,182.231 341.905,182.731 340.5,184C 342.81,184.497 345.143,184.663 347.5,184.5C 344.645,185.803 341.645,185.803 338.5,184.5C 340.3,181.546 342.633,180.879 345.5,182.5 Z"/></g>
<g><path style="opacity:1" fill="#0f0f0f" d="M 390.5,182.5 C 391.404,183.209 391.737,184.209 391.5,185.5C 395.351,186.029 398.851,185.362 402,183.5C 402.383,184.056 402.883,184.389 403.5,184.5C 403.5,185.5 403.5,186.5 403.5,187.5C 399.5,187.5 395.5,187.5 391.5,187.5C 391.137,189.911 392.137,191.411 394.5,192C 397.766,192.334 400.766,192.501 403.5,192.5C 400.06,194.223 396.394,194.89 392.5,194.5C 391.488,193.128 390.488,191.795 389.5,190.5C 389.279,187.721 389.612,185.054 390.5,182.5 Z"/></g>
<g><path style="opacity:1" fill="#131313" d="M 473.5,180.5 C 471.5,181.167 469.5,181.833 467.5,182.5C 467.5,183.167 467.167,183.5 466.5,183.5C 466.06,185.844 465.06,187.844 463.5,189.5C 463.179,182.145 466.512,179.145 473.5,180.5 Z"/></g>
<g><path style="opacity:1" fill="#1e1e1e" d="M 612.5,180.5 C 613.458,180.953 614.292,181.619 615,182.5C 615.497,184.81 615.663,187.143 615.5,189.5C 613.972,188.198 612.972,186.531 612.5,184.5C 611.688,183.007 610.355,182.34 608.5,182.5C 607.228,182.57 606.062,182.903 605,183.5C 604.272,186.23 604.438,188.897 605.5,191.5C 607.045,192.452 608.712,192.785 610.5,192.5C 612.105,191.031 612.605,191.365 612,193.5C 609.204,194.679 606.371,194.679 603.5,193.5C 602.833,192.5 602.167,191.5 601.5,190.5C 600.847,182.145 604.514,178.812 612.5,180.5 Z"/></g>
<g><path style="opacity:1" fill="#4b4b4b" d="M 303.5,181.5 C 304.486,185.97 304.819,190.637 304.5,195.5C 303.209,195.737 302.209,195.404 301.5,194.5C 303.43,190.627 304.097,186.294 303.5,181.5 Z"/></g>
<g><path style="opacity:1" fill="#959595" d="M 442.5,184.5 C 444.527,184.338 446.527,184.505 448.5,185C 449.056,185.383 449.389,185.883 449.5,186.5C 446.848,186.59 444.515,185.924 442.5,184.5 Z"/></g>
<g><path style="opacity:1" fill="#9c9c9c" d="M 503.5,184.5 C 505.527,184.338 507.527,184.505 509.5,185C 510.056,185.383 510.389,185.883 510.5,186.5C 507.848,186.59 505.515,185.924 503.5,184.5 Z"/></g>
<g><path style="opacity:1" fill="#7a7a7a" d="M 553.5,182.5 C 555.118,186.084 556.118,190.084 556.5,194.5C 557.491,190.555 557.824,186.555 557.5,182.5C 558.485,186.634 558.818,190.968 558.5,195.5C 557.167,195.5 555.833,195.5 554.5,195.5C 554.769,191.069 554.436,186.735 553.5,182.5 Z"/></g>
<g><path style="opacity:1" fill="#1f1f1f" d="M 509.5,179.5 C 510.492,179.328 511.158,179.662 511.5,180.5C 511.631,181.239 511.464,181.906 511,182.5C 508.395,181.186 505.895,181.186 503.5,182.5C 503.5,183.167 503.5,183.833 503.5,184.5C 505.515,185.924 507.848,186.59 510.5,186.5C 510.833,187.167 511.167,187.833 511.5,188.5C 510.923,193.805 507.923,195.638 502.5,194C 501.044,193.577 500.544,192.744 501,191.5C 503.274,192.811 505.44,192.811 507.5,191.5C 508.338,191.158 508.672,190.492 508.5,189.5C 506.539,187.887 504.206,186.887 501.5,186.5C 500.258,184.611 500.258,182.611 501.5,180.5C 504.096,179.735 506.763,179.401 509.5,179.5 Z"/></g>
<g><path style="opacity:1" fill="#7a7a7a" d="M 525.5,181.5 C 524.701,184.43 524.368,187.43 524.5,190.5C 523.366,188.034 523.199,185.367 524,182.5C 524.383,181.944 524.883,181.611 525.5,181.5 Z"/></g>
<g><path style="opacity:1" fill="#151515" d="M 547.5,179.5 C 547.5,179.833 547.5,180.167 547.5,180.5C 548.11,181.391 548.443,182.391 548.5,183.5C 547.518,186.962 547.185,190.629 547.5,194.5C 546.191,192.429 545.525,189.929 545.5,187C 545.525,184.071 546.191,181.571 547.5,179.5 Z"/></g>
<g><path style="opacity:1" fill="#8a8a8a" d="M 323.5,187.5 C 320.023,188.323 316.356,188.823 312.5,189C 313.252,189.671 313.586,190.504 313.5,191.5C 311.896,190.713 311.229,189.38 311.5,187.5C 315.5,187.5 319.5,187.5 323.5,187.5 Z"/></g>
<g><path style="opacity:1" fill="#888888" d="M 349.5,181.5 C 350.468,183.607 350.802,185.941 350.5,188.5C 346.351,187.92 342.684,188.586 339.5,190.5C 338.596,189.791 338.263,188.791 338.5,187.5C 342.167,187.5 345.833,187.5 349.5,187.5C 349.5,185.5 349.5,183.5 349.5,181.5 Z"/></g>
<g><path style="opacity:1" fill="#878787" d="M 390.5,181.5 C 390.5,181.833 390.5,182.167 390.5,182.5C 389.612,185.054 389.279,187.721 389.5,190.5C 388.366,188.034 388.199,185.367 389,182.5C 389.383,181.944 389.883,181.611 390.5,181.5 Z"/></g>
<g><path style="opacity:1" fill="#8f8f8f" d="M 473.5,180.5 C 466.512,179.145 463.179,182.145 463.5,189.5C 463.5,189.833 463.5,190.167 463.5,190.5C 460.675,183.857 462.841,179.857 470,178.5C 471.681,178.608 472.848,179.275 473.5,180.5 Z"/></g>
<g><path style="opacity:1" fill="#919191" d="M 496.5,181.5 C 497.468,183.607 497.802,185.941 497.5,188.5C 493.5,188.5 489.5,188.5 485.5,188.5C 488.962,187.518 492.629,187.185 496.5,187.5C 496.5,186.167 496.5,184.833 496.5,183.5C 496.5,182.833 496.5,182.167 496.5,181.5 Z"/></g>
<g><path style="opacity:1" fill="#202020" d="M 450.5,180.5 C 450.672,181.492 450.338,182.158 449.5,182.5C 448.551,181.848 447.385,181.514 446,181.5C 444.319,181.608 443.152,182.275 442.5,183.5C 442.5,183.833 442.5,184.167 442.5,184.5C 444.515,185.924 446.848,186.59 449.5,186.5C 452.581,190.178 451.914,192.845 447.5,194.5C 444.763,194.599 442.096,194.265 439.5,193.5C 439.5,193.167 439.5,192.833 439.5,192.5C 442.187,192.664 444.854,192.497 447.5,192C 448.925,190.286 448.592,188.953 446.5,188C 444.414,187.685 442.414,187.185 440.5,186.5C 439.258,184.611 439.258,182.611 440.5,180.5C 443.833,179.167 447.167,179.167 450.5,180.5 Z"/></g>
<g><path style="opacity:1" fill="#8d8d8d" d="M 501.5,186.5 C 504.206,186.887 506.539,187.887 508.5,189.5C 505.615,189.357 503.282,188.357 501.5,186.5 Z"/></g>
<g><path style="opacity:1" fill="#aeaeae" d="M 440.5,186.5 C 442.414,187.185 444.414,187.685 446.5,188C 448.592,188.953 448.925,190.286 447.5,192C 444.854,192.497 442.187,192.664 439.5,192.5C 441.265,191.539 443.265,191.205 445.5,191.5C 445.5,190.5 445.5,189.5 445.5,188.5C 443.219,188.923 441.552,188.256 440.5,186.5 Z"/></g>
<g><path style="opacity:1" fill="#3e3e3e" d="M 466.5,183.5 C 466.337,185.857 466.503,188.19 467,190.5C 473.68,192.993 476.18,190.659 474.5,183.5C 475.817,186.23 475.817,189.063 474.5,192C 475.078,193.417 476.078,194.25 477.5,194.5C 476.048,195.713 474.714,195.38 473.5,193.5C 468.768,196.76 465.435,195.76 463.5,190.5C 463.5,190.167 463.5,189.833 463.5,189.5C 465.06,187.844 466.06,185.844 466.5,183.5 Z"/></g>
<g><path style="opacity:1" fill="#4d4d4d" d="M 612.5,184.5 C 612.972,186.531 613.972,188.198 615.5,189.5C 614.065,195.196 610.398,197.029 604.5,195C 603.944,194.617 603.611,194.117 603.5,193.5C 606.371,194.679 609.204,194.679 612,193.5C 612.605,191.365 612.105,191.031 610.5,192.5C 612.046,190.118 612.713,187.451 612.5,184.5 Z"/></g>
<g><path style="opacity:1" fill="#9e9e9e" d="M 362.5,193.5 C 361.065,191.599 359.398,191.266 357.5,192.5C 359.598,188.516 361.265,188.849 362.5,193.5 Z"/></g>
<g><path style="opacity:1" fill="#9e9e9e" d="M 323.5,191.5 C 320.031,192.7 316.698,192.7 313.5,191.5C 317.054,191.151 320.387,191.151 323.5,191.5 Z"/></g>
<g><path style="opacity:1" fill="#969696" d="M 339.5,190.5 C 343.135,191.579 346.801,191.579 350.5,190.5C 350.737,191.791 350.404,192.791 349.5,193.5C 346.695,192.681 343.695,192.181 340.5,192C 339.944,191.617 339.611,191.117 339.5,190.5 Z"/></g>
<g><path style="opacity:1" fill="#b3b3b3" d="M 385.5,183.5 C 386.158,184.793 386.492,186.293 386.5,188C 386.431,189.986 385.765,191.486 384.5,192.5C 385.299,189.57 385.632,186.57 385.5,183.5 Z"/></g>
<g><path style="opacity:1" fill="#909090" d="M 403.5,187.5 C 400.023,188.323 396.356,188.823 392.5,189C 396.154,191.786 400.154,192.286 404.5,190.5C 404.773,192.451 404.107,193.951 402.5,195C 398.973,195.808 395.64,195.641 392.5,194.5C 396.394,194.89 400.06,194.223 403.5,192.5C 400.766,192.501 397.766,192.334 394.5,192C 392.137,191.411 391.137,189.911 391.5,187.5C 395.5,187.5 399.5,187.5 403.5,187.5 Z"/></g>
<g><path style="opacity:1" fill="#a9a9a9" d="M 493.5,195.5 C 493.5,195.167 493.5,194.833 493.5,194.5C 494.5,194.5 495.5,194.5 496.5,194.5C 496.649,193.448 496.483,192.448 496,191.5C 493.395,192.814 490.895,192.814 488.5,191.5C 491.518,191.296 494.518,190.963 497.5,190.5C 497.5,192.167 497.5,193.833 497.5,195.5C 496.167,195.5 494.833,195.5 493.5,195.5 Z"/></g>
<g><path style="opacity:1" fill="#adadad" d="M 597.5,183.5 C 598.158,184.793 598.492,186.293 598.5,188C 598.431,189.986 597.765,191.486 596.5,192.5C 597.265,189.904 597.599,187.237 597.5,184.5C 597.5,184.167 597.5,183.833 597.5,183.5 Z"/></g>
<g><path style="opacity:1" fill="#2c2c2c" d="M 381.5,179.5 C 383.328,180.283 384.661,181.616 385.5,183.5C 385.632,186.57 385.299,189.57 384.5,192.5C 381.658,195.902 378.492,196.235 375,193.5C 374.601,193.728 374.435,194.062 374.5,194.5C 374.167,194.5 373.833,194.5 373.5,194.5C 373.419,190.818 373.753,187.151 374.5,183.5C 374.337,185.857 374.503,188.19 375,190.5C 377.398,193.054 379.731,193.054 382,190.5C 382.796,187.961 382.629,185.628 381.5,183.5C 379.844,181.94 377.844,180.94 375.5,180.5C 377.435,179.85 379.435,179.517 381.5,179.5 Z"/></g>
<g><path style="opacity:1" fill="#181818" d="M 532.5,179.5 C 532.611,180.117 532.944,180.617 533.5,181C 531.618,181.198 529.952,181.698 528.5,182.5C 528.5,183.167 528.167,183.5 527.5,183.5C 526.848,184.449 526.514,185.615 526.5,187C 526.307,189.008 526.974,190.508 528.5,191.5C 530.288,192.622 532.288,192.789 534.5,192C 535.252,191.329 535.586,190.496 535.5,189.5C 535.795,187.265 535.461,185.265 534.5,183.5C 534.557,182.391 534.89,181.391 535.5,180.5C 535.5,180.167 535.5,179.833 535.5,179.5C 536.5,179.5 537.5,179.5 538.5,179.5C 538.751,185.892 538.418,192.225 537.5,198.5C 536.395,199.6 535.062,200.267 533.5,200.5C 530.763,200.599 528.096,200.265 525.5,199.5C 525.5,199.167 525.5,198.833 525.5,198.5C 528.777,198.784 531.943,198.451 535,197.5C 535.781,196.056 535.614,194.723 534.5,193.5C 531.916,194.393 529.249,194.726 526.5,194.5C 526.011,193.005 525.345,191.671 524.5,190.5C 524.368,187.43 524.701,184.43 525.5,181.5C 525.5,180.833 525.833,180.5 526.5,180.5C 528.379,179.659 530.379,179.325 532.5,179.5 Z"/></g>
<g><path style="opacity:1" fill="#868686" d="M 535.5,189.5 C 535.586,190.496 535.252,191.329 534.5,192C 532.288,192.789 530.288,192.622 528.5,191.5C 531.188,191.834 533.521,191.168 535.5,189.5 Z"/></g>
<g><path style="opacity:1" fill="#848484" d="M 527.5,183.5 C 527.401,186.237 527.735,188.904 528.5,191.5C 526.974,190.508 526.307,189.008 526.5,187C 526.514,185.615 526.848,184.449 527.5,183.5 Z"/></g>
<g><path style="opacity:1" fill="#f0f0f0" d="M 528.5,182.5 C 530.621,182.325 532.621,182.659 534.5,183.5C 535.461,185.265 535.795,187.265 535.5,189.5C 533.521,191.168 531.188,191.834 528.5,191.5C 527.735,188.904 527.401,186.237 527.5,183.5C 528.167,183.5 528.5,183.167 528.5,182.5 Z"/></g>
<g><path style="opacity:1" fill="#646464" d="M 532.5,179.5 C 533.609,179.557 534.609,179.89 535.5,180.5C 534.89,181.391 534.557,182.391 534.5,183.5C 532.621,182.659 530.621,182.325 528.5,182.5C 529.952,181.698 531.618,181.198 533.5,181C 532.944,180.617 532.611,180.117 532.5,179.5 Z"/></g>
<g><path style="opacity:1" fill="#6b6b6b" d="M 323.5,193.5 C 323.389,194.117 323.056,194.617 322.5,195C 318.973,195.808 315.64,195.641 312.5,194.5C 316.215,194.577 319.881,194.244 323.5,193.5 Z"/></g>
<g><path style="opacity:1" fill="#727272" d="M 349.5,193.5 C 349.389,194.117 349.056,194.617 348.5,195C 345.304,195.805 342.304,195.638 339.5,194.5C 342.902,194.658 346.236,194.324 349.5,193.5 Z"/></g>
<g><path style="opacity:1" fill="#5f5f5f" d="M 428.5,192.5 C 429.404,193.209 429.737,194.209 429.5,195.5C 427.143,195.663 424.81,195.497 422.5,195C 421.944,194.617 421.611,194.117 421.5,193.5C 422.967,193.894 424.467,194.227 426,194.5C 427.376,194.316 428.209,193.649 428.5,192.5 Z"/></g>
<g><path style="opacity:1" fill="#656565" d="M 439.5,193.5 C 442.096,194.265 444.763,194.599 447.5,194.5C 446.551,195.152 445.385,195.486 444,195.5C 441.992,195.693 440.492,195.026 439.5,193.5 Z"/></g>
<g><path style="opacity:1" fill="#606060" d="M 485.5,193.5 C 488.096,194.265 490.763,194.599 493.5,194.5C 493.5,194.833 493.5,195.167 493.5,195.5C 491.143,195.663 488.81,195.497 486.5,195C 485.944,194.617 485.611,194.117 485.5,193.5 Z"/></g>
<g><path style="opacity:1" fill="#828282" d="M 511.5,188.5 C 512.942,190.817 512.608,192.984 510.5,195C 507.5,195.667 504.5,195.667 501.5,195C 499.893,193.951 499.227,192.451 499.5,190.5C 502.127,191.092 504.794,191.425 507.5,191.5C 505.44,192.811 503.274,192.811 501,191.5C 500.544,192.744 501.044,193.577 502.5,194C 507.923,195.638 510.923,193.805 511.5,188.5 Z"/></g>
<g><path style="opacity:1" fill="#757575" d="M 596.5,192.5 C 596.423,193.75 595.756,194.583 594.5,195C 591.633,195.801 588.966,195.634 586.5,194.5C 588.966,195.634 591.633,195.801 594.5,195C 595.756,194.583 596.423,193.75 596.5,192.5 Z"/></g>
<g><path style="opacity:1" fill="#727272" d="M 525.5,198.5 C 528.5,197.907 531.5,197.074 534.5,196C 531.635,195.817 528.969,195.317 526.5,194.5C 529.249,194.726 531.916,194.393 534.5,193.5C 535.614,194.723 535.781,196.056 535,197.5C 531.943,198.451 528.777,198.784 525.5,198.5 Z"/></g>
<g><path style="opacity:1" fill="#696969" d="M 525.5,199.5 C 528.096,200.265 530.763,200.599 533.5,200.5C 532.551,201.152 531.385,201.486 530,201.5C 527.992,201.693 526.492,201.026 525.5,199.5 Z"/></g>
<g><path style="opacity:1" fill="#c3c0d9" d="M 97.5,180.5 C 114.17,180.333 130.837,180.5 147.5,181C 148.484,189.749 148.817,198.582 148.5,207.5C 131.5,207.5 114.5,207.5 97.5,207.5C 97.5,198.5 97.5,189.5 97.5,180.5 Z"/></g>
<g><path style="opacity:1" fill="#d9d4fd" d="M 98.5,181.5 C 114.503,181.333 130.503,181.5 146.5,182C 147.482,190.081 147.816,198.248 147.5,206.5C 131.167,206.5 114.833,206.5 98.5,206.5C 98.5,198.167 98.5,189.833 98.5,181.5 Z"/></g>
<g><path style="opacity:1" fill="#cecece" d="M 225.5,223.5 C 225.389,224.117 225.056,224.617 224.5,225C 181.998,225.831 139.665,225.665 97.5,224.5C 140.209,224.822 182.876,224.489 225.5,223.5 Z"/></g>
<g><path style="opacity:1" fill="#d6d6d6" d="M 240.5,219.5 C 238.318,225.181 234.318,229.014 228.5,231C 183.167,231.667 137.833,231.667 92.5,231C 91.244,230.583 90.5774,229.75 90.5,228.5C 136.429,229.661 182.429,229.828 228.5,229C 233.014,226.455 237.014,223.289 240.5,219.5 Z"/></g>
</svg>
