<?xml version="1.0" encoding="UTF-8"?>
<svg version="1.1" xmlns="http://www.w3.org/2000/svg" width="600" height="300">
<path d="M0 0 C1.01901901 -0.00571014 2.03803802 -0.01142029 3.0879364 -0.01730347 C4.20020599 -0.01842133 5.31247559 -0.01953918 6.45845032 -0.02069092 C7.6345134 -0.02565582 8.81057648 -0.03062073 10.02227783 -0.03573608 C13.24568884 -0.04783286 16.46906361 -0.05530014 19.6924932 -0.05974674 C21.70940474 -0.06268272 23.72631067 -0.06678858 25.74321938 -0.07125092 C32.06235625 -0.08492076 38.38148021 -0.09458908 44.70063084 -0.09845281 C51.97859782 -0.10292796 59.25637646 -0.12045262 66.5342862 -0.1494534 C72.17013353 -0.17112583 77.8059281 -0.1811601 83.44181663 -0.18249393 C86.80286492 -0.18353828 90.16373606 -0.18936634 93.52474022 -0.20731354 C97.28013134 -0.22441494 101.03506704 -0.22248325 104.79048157 -0.21600342 C105.89263 -0.2252182 106.99477844 -0.23443298 108.13032532 -0.243927 C116.15745807 -0.20065574 123.71715025 0.83874378 130.19795227 5.95294189 C130.80123352 6.41313721 131.40451477 6.87333252 132.02607727 7.34747314 C138.04176844 12.95967283 141.74187028 19.65975483 145.76045227 26.76544189 C146.75819456 28.5125075 147.75593934 30.25957168 148.7538147 32.00656128 C149.79430525 33.83057557 150.83197158 35.65616941 151.86885071 37.48223877 C153.88013035 41.02353848 155.90124792 44.55910073 157.92451477 48.09356689 C160.58268248 52.73757118 163.23775007 57.38331643 165.88935852 62.03106689 C168.64255895 66.85663294 171.40083532 71.67925987 174.16279602 76.49981689 C186.04602846 97.24426696 186.04602846 97.24426696 191.82295227 107.57794189 C192.22175598 108.2870874 192.62055969 108.99623291 193.03144836 109.72686768 C198.28500409 119.17858776 200.4170961 129.46025586 197.3795929 140.13848877 C195.77433173 144.23986648 193.57967585 148.00217589 191.33467102 151.78155518 C189.76840265 154.44586591 188.27818299 157.14566657 186.79170227 159.85528564 C180.44898435 171.37931472 173.86800621 182.76060823 167.20820618 194.10357666 C162.94664638 201.37852319 158.80131235 208.71276491 154.69795227 216.07794189 C152.45011791 220.09998976 150.19941181 224.12042254 147.94795227 228.14044189 C147.46278137 229.00975342 146.97761047 229.87906494 146.47773743 230.77471924 C139.53660932 243.15718288 133.48746102 253.36964906 119.1179533 257.69074631 C116.65891023 258.20034091 114.40774778 258.27243423 111.89590454 258.28088379 C110.87688553 258.28659393 109.85786652 258.29230408 108.80796814 258.29818726 C107.69569855 258.29930511 106.58342896 258.30042297 105.43745422 258.30157471 C103.6733596 258.30902206 103.6733596 258.30902206 101.87362671 258.31661987 C98.6502157 258.32871665 95.42684094 258.33618393 92.20341134 258.34063053 C90.1864998 258.34356651 88.16959387 258.34767237 86.15268517 258.3521347 C79.83354829 258.36580454 73.51442433 258.37547287 67.1952737 258.3793366 C59.91730672 258.38381175 52.63952808 258.40133641 45.36161834 258.43033719 C39.72577101 258.45200962 34.08997644 258.46204388 28.45408791 258.46337771 C25.09303962 258.46442207 21.73216848 258.47025013 18.37116432 258.48819733 C14.6157732 258.50529872 10.8608375 258.50336704 7.10542297 258.49688721 C5.45220032 258.51070938 5.45220032 258.51070938 3.76557922 258.52481079 C-4.21014857 258.48181663 -11.78677164 257.46149772 -18.23954773 252.39044189 C-18.83122742 251.94184814 -19.4229071 251.49325439 -20.03251648 251.03106689 C-26.67831234 244.80947077 -30.75915673 237.68637179 -35.05204773 229.70294189 C-36.37946173 227.26681218 -37.71354693 224.83436248 -39.04814148 222.40216064 C-39.38349411 221.78951355 -39.71884674 221.17686646 -40.06436157 220.5456543 C-43.30660376 214.6387064 -46.69451375 208.82107307 -50.11454773 203.01544189 C-55.50238612 193.8498888 -60.7477602 184.6135459 -65.91874695 175.32403564 C-68.74691746 170.24631153 -71.59220317 165.18074727 -74.49345398 160.14434814 C-75.31402283 158.7196521 -75.31402283 158.7196521 -76.15116882 157.26617432 C-77.1754922 155.4922654 -78.20293162 153.7201504 -79.23417664 151.95025635 C-85.39585463 141.27700248 -88.00663065 132.44204923 -86.05204773 120.14044189 C-84.63349642 115.21360639 -82.04244883 110.88252772 -79.43876648 106.49932861 C-77.87249811 103.83501787 -76.38227845 101.13521722 -74.89579773 98.42559814 C-68.55262919 86.90075034 -61.97297269 75.51739419 -55.31010437 64.17510986 C-51.06184331 56.92580544 -46.94519267 49.61015595 -42.86454773 42.26544189 C-22.06270341 5.0183115 -22.06270341 5.0183115 -7.25158978 0.60380936 C-4.77902366 0.08292516 -2.52727056 0.00850145 0 0 Z M47.94795227 46.14044189 C43.74872598 50.62926999 43.81974412 55.06497311 43.78681946 61.01690674 C43.78185455 61.7003566 43.77688965 62.38380646 43.77177429 63.08796692 C43.75720387 65.34244809 43.75035962 67.59685893 43.74482727 69.85137939 C43.73907205 71.42312623 43.73331436 72.99487306 43.72755432 74.56661987 C43.71705921 77.86011074 43.71120666 81.15357729 43.7077179 84.44708252 C43.70223317 88.65924683 43.67819953 92.8710879 43.64974594 97.08315086 C43.63108817 100.32944671 43.62591232 103.57566512 43.62438202 106.82201004 C43.62136256 108.37449538 43.61335792 109.92697959 43.60019684 111.47941208 C43.58306834 113.65491857 43.58503254 115.82964071 43.59150696 118.00518799 C43.58786133 119.24110687 43.5842157 120.47702576 43.58045959 121.75039673 C44.11461587 126.67787967 45.81075549 129.94006751 49.19795227 133.51544189 C52.81584218 135.65328593 54.80377485 135.7947857 58.94795227 135.14044189 C61.91523516 133.34148515 64.37145655 131.29343333 65.94795227 128.14044189 C66.06153042 125.69552658 66.11574731 123.27841165 66.12495422 120.83258057 C66.13152542 120.07954147 66.13809662 119.32650238 66.14486694 118.55064392 C66.16461209 116.05323186 66.17626526 113.55587997 66.18623352 111.05841064 C66.19030905 110.20594568 66.19438457 109.35348072 66.1985836 108.47518349 C66.21944964 103.96313341 66.23374897 99.45111379 66.24311829 94.93902588 C66.25418327 90.2782305 66.28858242 85.61791249 66.32828999 80.95728588 C66.35443434 77.37389742 66.36280817 73.79062305 66.36639977 70.2071476 C66.37127148 68.48914682 66.38290213 66.77115133 66.40143776 65.05324364 C66.42578338 62.64727327 66.42487306 60.24254262 66.41792297 57.83648682 C66.43713806 56.77412811 66.43713806 56.77412811 66.45674133 55.69030762 C66.40642468 50.90570064 65.34476878 48.48982465 61.94795227 45.14044189 C56.40120461 42.2994248 53.24690763 43.0493846 47.94795227 46.14044189 Z M0.94795227 67.76544189 C-15.47296039 84.78347865 -22.6499967 105.52103634 -22.33720398 128.87481689 C-22.06813104 136.31150622 -20.33277419 143.09236361 -18.05204773 150.14044189 C-17.76329773 151.06083252 -17.47454773 151.98122314 -17.17704773 152.92950439 C-10.53084993 171.6219357 5.10578889 186.84752141 22.65254211 195.40460205 C40.4763377 203.62365098 61.29003353 205.31458371 80.00654602 198.87237549 C102.05443211 190.56005626 117.00365999 175.4653334 127.22920227 154.51544189 C134.93451081 136.76988284 135.36003247 116.32217594 128.94795227 98.14044189 C123.79269462 85.22253299 116.27516077 73.5218417 105.94795227 64.14044189 C105.14357727 63.35669189 104.33920227 62.57294189 103.51045227 61.76544189 C100.06297647 59.57923773 97.01935277 58.92615766 92.94795227 59.14044189 C89.98576299 60.36395486 88.50456462 61.37178674 86.63545227 63.95294189 C85.66980882 67.02544379 85.4426729 68.91928592 85.94795227 72.14044189 C88.44283099 76.07364927 91.75420123 79.03144786 95.38545227 81.89044189 C105.5399251 90.36371061 111.13531823 104.90619136 112.72920227 117.71856689 C113.82040596 134.78811029 109.27666604 150.4146559 98.44795227 163.76544189 C88.38878352 174.43774093 74.57155451 181.01554941 59.94795227 182.14044189 C59.0120929 182.21778564 59.0120929 182.21778564 58.05732727 182.29669189 C42.94188207 182.96848946 28.22168675 177.67949732 16.63545227 168.07794189 C4.57432747 156.37447813 -1.64350649 141.40580418 -2.30204773 124.64044189 C-2.02040226 107.74171354 3.9371658 93.61823343 15.51826477 81.44512939 C17.89530015 79.19038523 20.3844706 77.17718075 22.94795227 75.14044189 C24.82696212 72.57815574 24.95940153 71.40949948 24.82295227 68.20294189 C23.78122653 64.55690179 22.74272804 62.71457747 19.94795227 60.14044189 C11.45205832 57.41534384 6.7401631 62.20106386 0.94795227 67.76544189 Z " fill="#6DB33F" transform="translate(244.0520477294922,21.85955810546875)"/>
</svg>
